<svg width="24" height="24" viewBox="0 0 24 24" fill="none" >
<g clip-path="url(#clip0_767:6)">
<path fill-rule="evenodd" clip-rule="evenodd" d="M1.70711 0.292893C1.31658 -0.0976311 0.683417 -0.0976311 0.292893 0.292893C-0.0976311 0.683417 -0.0976311 1.31658 0.292893 1.70711L4.56847 5.98269C2.75969 7.53966 1.25035 9.41849 0.118844 11.5272C-0.0347895 11.8135 -0.0397387 12.1566 0.105573 12.4472L1 12C0.105573 12.4472 0.10637 12.4488 0.10637 12.4488L0.107539 12.4511L0.11099 12.458L0.122338 12.4802C0.131875 12.4987 0.145357 12.5247 0.162754 12.5576C0.19754 12.6233 0.248024 12.7168 0.313971 12.834C0.445792 13.0684 0.63985 13.3985 0.894336 13.7925C1.40207 14.5787 2.15683 15.6294 3.14546 16.6839C5.10448 18.7736 8.10049 21 12 21L12.0163 20.9999C14.0848 20.966 16.0962 20.3536 17.8261 19.2403L22.2929 23.7071C22.6834 24.0976 23.3166 24.0976 23.7071 23.7071C24.0976 23.3166 24.0976 22.6834 23.7071 22.2929L18.6492 17.235L18.6471 17.2329L6.76711 5.35289L6.76531 5.3511L1.70711 0.292893ZM16.3714 17.7856L14.0497 15.464C13.891 15.5635 13.7251 15.6519 13.5531 15.7285C13.0625 15.9472 12.5328 16.0647 11.9957 16.0742C11.4586 16.0837 10.9252 15.9849 10.4271 15.7837C9.92902 15.5825 9.47657 15.2831 9.09674 14.9033C8.71691 14.5234 8.41747 14.071 8.21629 13.5729C8.01511 13.0748 7.91631 12.5413 7.92579 12.0043C7.93527 11.4672 8.05282 10.9375 8.27145 10.4468C8.34805 10.2749 8.43652 10.109 8.53604 9.95025L5.9871 7.40131C4.45031 8.70137 3.14935 10.2582 2.14257 12.0032C2.25165 12.1915 2.39592 12.4311 2.57441 12.7075C3.03543 13.4213 3.71817 14.3706 4.60454 15.3161C6.39395 17.2248 8.89512 18.9969 11.9918 19C13.5373 18.9733 15.0437 18.5524 16.3714 17.7856ZM10.0279 11.4421C9.96372 11.6345 9.92907 11.836 9.92548 12.0395C9.92074 12.3081 9.97014 12.5748 10.0707 12.8239C10.1713 13.0729 10.321 13.2991 10.511 13.489C10.7009 13.679 10.9271 13.8287 11.1761 13.9293C11.4252 14.0299 11.6919 14.0793 11.9604 14.0745C12.164 14.0709 12.3655 14.0363 12.5579 13.9721L10.0279 11.4421Z" fill="#18181B"/>
<path fill-rule="evenodd" clip-rule="evenodd" d="M23.8819 12.4714C24.0348 12.1853 24.0395 11.8429 23.8944 11.5528L23.8925 11.5489L23.889 11.542L23.8777 11.5198C23.8681 11.5013 23.8546 11.4753 23.8372 11.4424C23.8025 11.3767 23.752 11.2832 23.686 11.166C23.5542 10.9316 23.3601 10.6015 23.1057 10.2075C22.5979 9.42131 21.8432 8.37059 20.8545 7.31605C18.8957 5.22664 15.9001 3.00043 12.0012 2.99999C11.2171 2.99824 10.4355 3.08762 9.67209 3.26631C9.31876 3.34902 9.03796 3.61665 8.93838 3.9656C8.83881 4.31455 8.93609 4.69006 9.19257 4.94678L20.1326 15.8968C20.3306 16.095 20.6027 16.201 20.8827 16.1891C21.1627 16.1771 21.4247 16.0482 21.6052 15.8338C22.479 14.7953 23.2421 13.6684 23.8819 12.4714ZM20.7526 13.6876L12.0732 5.00032C15.1399 5.02796 17.6186 6.78861 19.3955 8.68394C20.2818 9.6294 20.9646 10.5787 21.4256 11.2925C21.6044 11.5693 21.7488 11.8092 21.858 11.9978C21.5223 12.582 21.1532 13.1462 20.7526 13.6876ZM23 12L23.8944 11.5528C23.8944 11.5528 23.8944 11.5528 23 12ZM12.0012 2.99999L12 2.99999V3.99999L12.0023 3L12.0012 2.99999Z" fill="#18181B"/>
</g>
<defs>
<clipPath id="clip0_767:6">
<rect width="24" height="24" fill="white"/>
</clipPath>
</defs>
</svg>
