<svg width="24" height="24" viewBox="0 0 24 24" fill="none" >
<path fill-rule="evenodd" clip-rule="evenodd" d="M10.9631 2.59604C11.426 1.80132 12.5741 1.80132 13.0369 2.59604L15.8751 7.46894L21.3866 8.66243C22.2855 8.85708 22.6403 9.94899 22.0275 10.6348L18.2701 14.8399L18.8382 20.4504C18.9308 21.3654 18.002 22.0403 17.1604 21.6694L12 19.3954L6.83962 21.6694C5.99801 22.0403 5.06918 21.3654 5.16183 20.4504L5.72989 14.8399L1.97254 10.6348C1.35975 9.94899 1.71454 8.85708 2.6134 8.66243L8.12486 7.46894L10.9631 2.59604ZM12 4.78951L9.67565 8.78017C9.50609 9.07129 9.22196 9.27773 8.89269 9.34903L4.37908 10.3264L7.45616 13.7702C7.68064 14.0214 7.78916 14.3554 7.75523 14.6906L7.29001 19.2854L11.5161 17.4231C11.8244 17.2872 12.1756 17.2872 12.4839 17.4231L16.71 19.2854L16.2448 14.6906C16.2108 14.3554 16.3194 14.0214 16.5438 13.7702L19.6209 10.3264L15.1073 9.34903C14.778 9.27773 14.4939 9.07129 14.3244 8.78017L12 4.78951Z" fill="#18181B"/>
</svg>
