<svg id="Layer_1" data-name="Layer 1" xmlns="http://www.w3.org/2000/svg" viewBox="0 0 448 448"><defs><style>.cls-1{fill:#fff;}</style></defs><path class="cls-1" d="M0,180V56A23.94,23.94,0,0,1,24,32H148a12,12,0,0,1,12,12V84a12,12,0,0,1-12,12H64v84a12,12,0,0,1-12,12H12A12,12,0,0,1,0,180ZM288,44V84a12,12,0,0,0,12,12h84v84a12,12,0,0,0,12,12h40a12,12,0,0,0,12-12V56a23.94,23.94,0,0,0-24-24H300A12,12,0,0,0,288,44ZM436,320H396a12,12,0,0,0-12,12v84H300a12,12,0,0,0-12,12v40a12,12,0,0,0,12,12H424a23.94,23.94,0,0,0,24-24V332A12,12,0,0,0,436,320ZM160,468V428a12,12,0,0,0-12-12H64V332a12,12,0,0,0-12-12H12A12,12,0,0,0,0,332V456a23.94,23.94,0,0,0,24,24H148A12,12,0,0,0,160,468Z" transform="translate(0 -32)"/></svg>