<svg width="17" height="17" viewBox="0 0 17 17" fill="none" xmlns="http://www.w3.org/2000/svg">
<g clip-path="url(#clip0)">
<path d="M14.3931 4.05325C14.0526 3.71259 13.6483 3.44235 13.2033 3.25797C12.7584 3.0736 12.2814 2.9787 11.7998 2.9787C11.3181 2.9787 10.8412 3.0736 10.3962 3.25797C9.95121 3.44235 9.54692 3.71259 9.20642 4.05325L8.49975 4.75992L7.79309 4.05325C7.10529 3.36545 6.17244 2.97906 5.19975 2.97906C4.22706 2.97906 3.29422 3.36545 2.60642 4.05325C1.91863 4.74104 1.53223 5.67389 1.53223 6.64658C1.53223 7.61927 1.91863 8.55212 2.60642 9.23992L3.31309 9.94658L8.49975 15.1332L13.6864 9.94658L14.3931 9.23992C14.7337 8.89941 15.004 8.49512 15.1884 8.05015C15.3727 7.60518 15.4676 7.12824 15.4676 6.64658C15.4676 6.16492 15.3727 5.68798 15.1884 5.24301C15.004 4.79804 14.7337 4.39375 14.3931 4.05325V4.05325Z" stroke="#BDBDBD" stroke-width="2" stroke-linecap="round" stroke-linejoin="round"/>
</g>
<defs>
<clipPath id="clip0">
<rect width="16" height="16" fill="white" transform="translate(0.5 0.979919)"/>
</clipPath>
</defs>
</svg>
