<svg width="13" height="14" viewBox="0 0 13 14" fill="none" xmlns="http://www.w3.org/2000/svg">
<path fill-rule="evenodd" clip-rule="evenodd" d="M7.40945 7.88894L7.40945 12.4344C7.40945 12.9365 7.00243 13.3435 6.50035 13.3435C5.99828 13.3435 5.59126 12.9365 5.59126 12.4344L5.59126 7.88894H1.04581C0.543733 7.88894 0.136719 7.48192 0.136719 6.97985C0.136719 6.47777 0.543733 6.07076 1.04581 6.07076H5.59126V1.5253C5.59126 1.02323 5.99828 0.616211 6.50035 0.616211C7.00243 0.616211 7.40945 1.02322 7.40945 1.5253V6.07076L11.9549 6.07076C12.457 6.07076 12.864 6.47777 12.864 6.97985C12.864 7.48192 12.457 7.88894 11.9549 7.88894L7.40945 7.88894Z" fill="#BDBDBD"/>
</svg>
