<svg width="15" height="10" viewBox="0 0 15 10" fill="none" xmlns="http://www.w3.org/2000/svg">
<path d="M0.879774 2.62926C0.603632 2.62926 0.379774 2.85311 0.379774 3.12926C0.379774 3.4054 0.603632 3.62926 0.879774 3.62926V2.62926ZM13.2773 0.229126H1.83496V1.22913H13.2773V0.229126ZM14.7773 3.1291V1.72913H13.7773V3.1291H14.7773ZM13.1071 4.79925C13.1071 4.15308 13.631 3.62926 14.2771 3.62926V2.62926C13.0787 2.62926 12.1071 3.60079 12.1071 4.79925H13.1071ZM14.2771 5.96924C13.631 5.96924 13.1071 5.44542 13.1071 4.79925H12.1071C12.1071 5.9977 13.0787 6.96924 14.2771 6.96924V5.96924ZM14.7773 7.86935V6.4694H13.7773V7.86935H14.7773ZM1.83496 9.36935H13.2773V8.36935H1.83496V9.36935ZM0.334961 6.51347V7.86935H1.33496V6.51347H0.334961ZM2.04977 4.79925C2.04977 5.44542 1.52594 5.96924 0.879774 5.96924V6.96924C2.07823 6.96924 3.04977 5.9977 3.04977 4.79925H2.04977ZM0.879774 3.62926C1.52594 3.62926 2.04977 4.15308 2.04977 4.79925H3.04977C3.04977 3.60079 2.07823 2.62926 0.879774 2.62926V3.62926ZM0.334961 1.72913V3.08503H1.33496V1.72913H0.334961ZM1.33496 6.51347C1.33496 6.77356 1.12277 6.96924 0.879774 6.96924V5.96924C0.58766 5.96924 0.334961 6.20426 0.334961 6.51347H1.33496ZM1.83496 8.36935C1.55882 8.36935 1.33496 8.14549 1.33496 7.86935H0.334961C0.334961 8.69777 1.00653 9.36935 1.83496 9.36935V8.36935ZM13.7773 7.86935C13.7773 8.14549 13.5534 8.36935 13.2773 8.36935V9.36935C14.1057 9.36935 14.7773 8.69777 14.7773 7.86935H13.7773ZM0.879774 2.62926C1.12277 2.62926 1.33496 2.82494 1.33496 3.08503H0.334961C0.334961 3.39423 0.587655 3.62926 0.879774 3.62926V2.62926ZM13.7773 3.1291C13.7773 2.85304 14.0011 2.62926 14.2771 2.62926V3.62926C14.5534 3.62926 14.7773 3.40533 14.7773 3.1291H13.7773ZM14.2771 6.96924C14.001 6.96924 13.7773 6.74543 13.7773 6.4694H14.7773C14.7773 6.1932 14.5534 5.96924 14.2771 5.96924V6.96924ZM1.83496 0.229126C1.00653 0.229126 0.334961 0.900699 0.334961 1.72913H1.33496C1.33496 1.45298 1.55882 1.22913 1.83496 1.22913V0.229126ZM13.2773 1.22913C13.5534 1.22913 13.7773 1.45298 13.7773 1.72913H14.7773C14.7773 0.900698 14.1057 0.229126 13.2773 0.229126V1.22913Z" fill="#52525A"/>
<path d="M9.62305 1.04199V2.13879" stroke="#52525A" stroke-linecap="round" stroke-linejoin="round"/>
<path d="M9.62305 4.30408L9.62305 5.29446" stroke="#52525A" stroke-linecap="round" stroke-linejoin="round"/>
<path d="M9.62305 7.42969L9.62305 8.55646" stroke="#52525A" stroke-linecap="round" stroke-linejoin="round"/>
</svg>
