<svg width="24" height="24" viewBox="0 0 24 24" fill="none" xmlns="http://www.w3.org/2000/svg">
<mask id="mask0_2126_5" style="mask-type:alpha" maskUnits="userSpaceOnUse" x="0" y="0" width="24" height="24">
<rect width="24" height="24" fill="#D9D9D9"/>
</mask>
<g mask="url(#mask0_2126_5)">
<path d="M4.22222 22C3.61111 22 3.08796 21.7824 2.65278 21.3472C2.21759 20.912 2 20.3889 2 19.7778V4.22222C2 3.61111 2.21759 3.08796 2.65278 2.65278C3.08796 2.21759 3.61111 2 4.22222 2H14.2222V4.22222H4.22222V19.7778H19.7778V9.77778H22V19.7778C22 20.3889 21.7824 20.912 21.3472 21.3472C20.912 21.7824 20.3889 22 19.7778 22H4.22222ZM17.5556 8.66667V6.44444H15.3333V4.22222H17.5556V2H19.7778V4.22222H22V6.44444H19.7778V8.66667H17.5556ZM5.33333 17.5556H18.6667L14.5 12L11.1667 16.4444L8.66667 13.1111L5.33333 17.5556Z" fill="black"/>
</g>
</svg>
