<svg width="24" height="24" viewBox="0 0 24 24" fill="none" xmlns="http://www.w3.org/2000/svg">
  <path
    d="M20.4933 17.5861C20.1908 18.2848 19.8328 18.928 19.418 19.5194C18.8526 20.3255 18.3897 20.8835 18.0329 21.1934C17.4798 21.702 16.8873 21.9625 16.2527 21.9773C15.7972 21.9773 15.2478 21.8477 14.6083 21.5847C13.9667 21.323 13.3771 21.1934 12.838 21.1934C12.2726 21.1934 11.6662 21.323 11.0175 21.5847C10.368 21.8477 9.84463 21.9847 9.4445 21.9983C8.836 22.0242 8.2295 21.7563 7.62408 21.1934C7.23767 20.8564 6.75438 20.2786 6.17536 19.4601C5.55415 18.5861 5.04343 17.5725 4.64331 16.417C4.21481 15.1689 4 13.9603 4 12.7902C4 11.4499 4.28962 10.2938 4.86973 9.32511C5.32564 8.54698 5.93216 7.93315 6.69129 7.48257C7.45038 7.03194 8.27063 6.80232 9.15392 6.78765C9.63721 6.78765 10.271 6.93715 11.0587 7.23094C11.8441 7.52577 12.3484 7.67527 12.5695 7.67527C12.7348 7.67527 13.295 7.50044 14.2448 7.15194C15.1428 6.82873 15.9008 6.69494 16.5218 6.74765C18.2045 6.88344 19.4686 7.54673 20.3094 8.74177C18.8045 9.65361 18.06 10.9307 18.0749 12.5691C18.0885 13.8452 18.5514 14.9072 19.4613 15.7503C19.8736 16.1417 20.334 16.4442 20.8464 16.6589C20.7353 16.9812 20.618 17.2898 20.4933 17.5861ZM16.6342 2.40011C16.6342 3.40034 16.2688 4.33426 15.5404 5.19867C14.6614 6.22631 13.5982 6.82011 12.4453 6.7264C12.4306 6.6064 12.4221 6.48011 12.4221 6.3474C12.4221 5.38719 12.8401 4.35956 13.5824 3.51934C13.953 3.09392 14.4244 2.74019 14.996 2.45801C15.5663 2.18005 16.1058 2.02632 16.6132 2C16.628 2.13371 16.6342 2.26745 16.6342 2.40011Z"
    fill="black" />
</svg>