<svg width="16" height="16" viewBox="0 0 16 16" fill="none" >
<path d="M6.17234 2.19867L3.03834 5.33333H4.96034L7.13367 3.16C7.27167 3.022 7.33301 2.85267 7.33301 2.686C7.33301 2.33667 7.06167 2 6.65301 2C6.47901 2 6.30501 2.06667 6.17234 2.19867Z" fill="#A1A1AA"/>
<path d="M12.961 5.33333H11.039L8.86567 3.16C8.72767 3.022 8.66634 2.85267 8.66634 2.686C8.66634 2.33667 8.93767 2 9.34634 2C9.52034 2 9.69434 2.06667 9.82701 2.19867L12.961 5.33333Z" fill="#A1A1AA"/>
<path d="M1.33301 7.33333V7.79487H1.69023C1.9869 7.79487 2.25745 7.96636 2.38801 8.23713L4.66634 14H11.333L13.6119 8.23826C13.7413 7.96692 14.013 7.79487 14.3097 7.79487H14.6663V7.33333C14.6663 6.96514 14.3679 6.66667 13.9997 6.66667H1.99967C1.63148 6.66667 1.33301 6.96514 1.33301 7.33333Z" fill="#A1A1AA"/>
</svg>
