<svg width="24" height="24" viewBox="0 0 24 24" fill="none" >
<path fill-rule="evenodd" clip-rule="evenodd" d="M12 1C10.1435 1 8.36301 1.7375 7.05025 3.05025C5.7375 4.36301 5 6.14348 5 8C5 11.3527 4.28293 13.4346 3.62211 14.6461C3.29031 15.2544 2.96723 15.6535 2.7428 15.8904C2.63032 16.0091 2.54194 16.0878 2.48872 16.1322C2.4621 16.1544 2.44425 16.168 2.43655 16.1737L2.43369 16.1758C2.07521 16.4221 1.91657 16.8725 2.04291 17.2898C2.17061 17.7115 2.55933 18 3 18H21C21.4407 18 21.8294 17.7115 21.9571 17.2898C22.0834 16.8725 21.9248 16.4221 21.5663 16.1758L21.5635 16.1737C21.5558 16.168 21.5379 16.1544 21.5113 16.1322C21.4581 16.0878 21.3697 16.0091 21.2572 15.8904C21.0328 15.6535 20.7097 15.2544 20.3779 14.6461C19.7171 13.4346 19 11.3527 19 8C19 6.14349 18.2625 4.36301 16.9497 3.05025C15.637 1.7375 13.8565 1 12 1ZM18.8507 16H5.14933C5.22541 15.8753 5.3018 15.7434 5.3779 15.6039C6.21707 14.0654 7 11.6473 7 8C7 6.67392 7.52679 5.40215 8.46447 4.46447C9.40215 3.52678 10.6739 3 12 3C13.3261 3 14.5979 3.52678 15.5355 4.46447C16.4732 5.40215 17 6.67392 17 8C17 11.6473 17.7829 14.0654 18.6221 15.6039C18.6982 15.7434 18.7746 15.8753 18.8507 16Z" fill="#18181B"/>
<path d="M11.135 20.4982C10.8579 20.0205 10.246 19.8579 9.76823 20.135C9.2905 20.4121 9.12788 21.0241 9.405 21.5018C9.66872 21.9564 10.0472 22.3338 10.5027 22.5961C10.9581 22.8584 11.4744 22.9965 12 22.9965C12.5256 22.9965 13.0419 22.8584 13.4973 22.5961C13.9528 22.3338 14.3313 21.9564 14.595 21.5018C14.8721 21.0241 14.7095 20.4121 14.2318 20.135C13.754 19.8579 13.1421 20.0205 12.865 20.4982C12.7771 20.6498 12.6509 20.7756 12.4991 20.863C12.3473 20.9504 12.1752 20.9965 12 20.9965C11.8248 20.9965 11.6527 20.9504 11.5009 20.863C11.3491 20.7756 11.2229 20.6498 11.135 20.4982Z" fill="#18181B"/>
</svg>
