<svg width="24" height="24" viewBox="0 0 24 24" fill="none" >
<path d="M7.05025 3.05025C8.36301 1.7375 10.1435 1 12 1C13.8565 1 15.637 1.7375 16.9497 3.05025C18.2625 4.36301 19 6.14349 19 8C19 11.3527 19.7171 13.4346 20.3779 14.6461C20.7097 15.2544 21.0328 15.6535 21.2572 15.8904C21.3697 16.0091 21.4581 16.0878 21.5113 16.1322C21.5379 16.1544 21.5558 16.168 21.5635 16.1737L21.5663 16.1758C21.9248 16.4221 22.0834 16.8725 21.9571 17.2898C21.8294 17.7115 21.4407 18 21 18H3C2.55933 18 2.17061 17.7115 2.04291 17.2898C1.91657 16.8725 2.07521 16.4221 2.43369 16.1758L2.43655 16.1737C2.44425 16.168 2.4621 16.1544 2.48872 16.1322C2.54194 16.0878 2.63032 16.0091 2.7428 15.8904C2.96723 15.6535 3.29031 15.2544 3.62211 14.6461C4.28293 13.4346 5 11.3527 5 8C5 6.14348 5.7375 4.36301 7.05025 3.05025Z" fill="#18181B"/>
<path d="M11.135 20.4982C10.8579 20.0205 10.246 19.8579 9.76823 20.135C9.2905 20.4121 9.12788 21.0241 9.405 21.5018C9.66872 21.9564 10.0472 22.3338 10.5027 22.5961C10.9581 22.8584 11.4744 22.9965 12 22.9965C12.5256 22.9965 13.0419 22.8584 13.4973 22.5961C13.9528 22.3338 14.3313 21.9564 14.595 21.5018C14.8721 21.0241 14.7095 20.4121 14.2318 20.135C13.754 19.8579 13.1421 20.0205 12.865 20.4982C12.7771 20.6498 12.6509 20.7756 12.4991 20.863C12.3473 20.9504 12.1752 20.9965 12 20.9965C11.8248 20.9965 11.6527 20.9504 11.5009 20.863C11.3491 20.7756 11.2229 20.6498 11.135 20.4982Z" fill="#18181B"/>
</svg>
