<svg width="31" height="28" viewBox="0 0 31 28" fill="none" xmlns="http://www.w3.org/2000/svg">
<g id="Group 1425">
<path id="Vector (Stroke)" fill-rule="evenodd" clip-rule="evenodd" d="M15.2198 27.0801C12.7675 27.0886 10.3444 26.5414 8.1281 25.4787L2.11148 27.0801C0.959456 27.3134 -0.00109884 26.1912 0.407137 25.089L2.54474 20.8026C1.07306 18.7135 0.219727 16.2362 0.219727 13.5801C0.219727 6.12471 6.93643 0.0800781 15.2198 0.0800781C23.5032 0.0800781 30.2199 6.12471 30.2199 13.5801C30.2199 21.0355 23.5032 27.0801 15.2198 27.0801Z" fill="white"/>
<g id="Group 925">
<rect id="Rectangle 493" x="9.90695" y="12.656" width="10.3896" height="7.2864" rx="0.986423" fill="#121212" stroke="#121212" stroke-width="1.45062"/>
<path id="Vector 212" d="M18.7247 12.7463V9.73497C18.7409 8.51634 18.0437 6.0791 15.1252 6.0791C12.5374 6.0791 11.6709 7.99527 11.5079 9.27906V12.5095" stroke="#121212" stroke-width="2.17593"/>
</g>
</g>
</svg>
