<svg width="24" height="24" viewBox="0 0 24 24" fill="none" >
<path fill-rule="evenodd" clip-rule="evenodd" d="M12 24C18.6274 24 24 18.6274 24 12C24 5.37258 18.6274 0 12 0C5.37258 0 0 5.37258 0 12C0 18.6274 5.37258 24 12 24ZM18.8192 7.57346C19.1359 7.12102 19.0259 6.49748 18.5735 6.18077C18.121 5.86406 17.4975 5.97409 17.1808 6.42654L10.8643 15.4501L7.70711 12.2929C7.31658 11.9024 6.68342 11.9024 6.29289 12.2929C5.90237 12.6834 5.90237 13.3166 6.29289 13.7071L10.2929 17.7071C10.5019 17.9161 10.7927 18.022 11.0872 17.9962C11.3817 17.9704 11.6497 17.8156 11.8192 17.5735L18.8192 7.57346Z" fill="#18181B"/>
</svg>
