<svg width="24" height="24" viewBox="0 0 24 24" fill="none" xmlns="http://www.w3.org/2000/svg">
<path fill-rule="evenodd" clip-rule="evenodd" d="M21.5816 4.43873C22.1395 3.88083 22.1395 2.97632 21.5816 2.41842C21.0237 1.86053 20.1192 1.86053 19.5613 2.41842L12 9.97973L4.43873 2.41842C3.88083 1.86053 2.97632 1.86053 2.41842 2.41842C1.86053 2.97632 1.86053 3.88083 2.41842 4.43873L9.97973 12L2.41842 19.5613C1.86053 20.1192 1.86053 21.0237 2.41842 21.5816C2.97632 22.1395 3.88083 22.1395 4.43873 21.5816L12 14.0203L19.5613 21.5816C20.1192 22.1395 21.0237 22.1395 21.5816 21.5816C22.1395 21.0237 22.1395 20.1192 21.5816 19.5613L14.0203 12L21.5816 4.43873Z" fill="#18181B"/>
</svg>
