<svg width="18" height="18" viewBox="0 0 18 18" fill="none" xmlns="http://www.w3.org/2000/svg">
<path d="M10.1933 1.23809L15.2106 3.4661C16.6563 4.10389 16.6563 5.15836 15.2106 5.79615L10.1933 8.02416C9.62357 8.27928 8.68815 8.27928 8.11839 8.02416L3.10112 5.79615C1.65546 5.15836 1.65546 4.10389 3.10112 3.4661L8.11839 1.23809C8.68815 0.982974 9.62357 0.982974 10.1933 1.23809Z" fill="#010101" stroke="#010101" stroke-width="1.5" stroke-linecap="round" stroke-linejoin="round"/>
<path d="M1.68091 8.10925C1.68091 8.82358 2.21665 9.64845 2.87145 9.93758L8.64556 12.5057C9.08776 12.7013 9.58949 12.7013 10.0232 12.5057L15.7973 9.93758C16.4521 9.64845 16.9878 8.82358 16.9878 8.10925" stroke="#010101" stroke-width="1.5" stroke-linecap="round" stroke-linejoin="round"/>
<path d="M1.68091 12.3612C1.68091 13.1521 2.14862 13.8664 2.87145 14.1895L8.64556 16.7577C9.08776 16.9533 9.58949 16.9533 10.0232 16.7577L15.7973 14.1895C16.5201 13.8664 16.9878 13.1521 16.9878 12.3612" stroke="#010101" stroke-width="1.5" stroke-linecap="round" stroke-linejoin="round"/>
</svg>
