<svg width="20" height="20" viewBox="0 0 20 20" fill="none" >
<path d="M0 10C0 4.47715 4.47715 0 10 0C15.5228 0 20 4.47715 20 10C20 15.5228 15.5228 20 10 20C4.47715 20 0 15.5228 0 10Z" fill="#6366F1"/>
<path fill-rule="evenodd" clip-rule="evenodd" d="M10 14.5C9.18258 14.5028 8.37488 14.3204 7.63611 13.9662L5.87992 14.3218C5.49592 14.3995 5.17574 14.0255 5.31181 13.6581L5.775 12.4075C5.28444 11.7111 5 10.8854 5 9.99998C5 7.51487 7.23889 5.5 10 5.5C12.7611 5.5 15 7.51487 15 9.99998C15 12.4851 12.7611 14.5 10 14.5Z" fill="white"/>
</svg>
