<svg width="24" height="24" viewBox="0 0 24 24" fill="none" >
<path d="M9.34114 14.6589L10.6706 10.6706L14.6589 9.34115L13.3294 13.3294L9.34114 14.6589Z" fill="black"/>
<path fill-rule="evenodd" clip-rule="evenodd" d="M1 12C1 5.92487 5.92487 1 12 1C18.0751 1 23 5.92487 23 12C23 18.0751 18.0751 23 12 23C5.92487 23 1 18.0751 1 12ZM17.1887 8.07624C17.3085 7.7169 17.2149 7.32074 16.9471 7.0529C16.6793 6.78507 16.2831 6.69155 15.9238 6.81133L9.56377 8.93133C9.26517 9.03086 9.03085 9.26518 8.93132 9.56378L6.81132 15.9238C6.69154 16.2831 6.78506 16.6793 7.0529 16.9471C7.32073 17.2149 7.7169 17.3085 8.07623 17.1887L14.4362 15.0687C14.7348 14.9692 14.9692 14.7348 15.0687 14.4362L17.1887 8.07624Z" fill="black"/>
</svg>
