<svg width="209" height="209" viewBox="0 0 209 209" fill="none" xmlns="http://www.w3.org/2000/svg">
  <path
    d="M70.9772 131.354L97.5741 108.882L76.8776 136.883C74.9887 139.438 71.0308 138.941 69.8337 135.997C69.17 134.365 69.6315 132.491 70.9772 131.354Z"
    fill="#121212" />
  <path
    d="M33.6308 168.236L55.551 151.277L39.2964 173.725C37.4617 176.258 33.5564 175.786 32.378 172.889C31.7044 171.232 32.2166 169.33 33.6308 168.236Z"
    fill="#121212" />
  <path
    d="M142.658 96.0984L110.666 101.674L140.162 88.0893C142.985 86.7893 146.199 88.8754 146.161 91.983C146.137 94.0192 144.664 95.7487 142.658 96.0984Z"
    fill="#121212" />
  <path
    d="M196.952 78.8946L169.481 82.5681L194.804 71.3044C197.662 70.0331 200.804 72.4004 200.369 75.4984C200.121 77.2691 198.724 78.6576 196.952 78.8946Z"
    fill="#121212" />
  <path
    d="M112.117 62.3917L104.148 94.4656L104.148 61.4165C104.148 58.2483 107.626 56.3104 110.32 57.9773C111.815 58.9019 112.541 60.686 112.117 62.3917Z"
    fill="#121212" />
  <path
    d="M131.991 60.1518L114.57 81.7069L125.213 56.1171C126.414 53.2287 130.323 52.7877 132.138 55.3358C133.175 56.7922 133.115 58.7612 131.991 60.1518Z"
    fill="#121212" />
  <path
    d="M153.821 21.3127L136.4 42.8678L147.043 17.278C148.244 14.3896 152.153 13.9485 153.967 16.4967C155.005 17.9531 154.945 19.9221 153.821 21.3127Z"
    fill="#121212" />
  <path
    d="M54.2104 118.845L80.7691 110.924L57.5176 126.007C54.8931 127.709 51.4203 125.862 51.3652 122.734C51.3337 120.946 52.497 119.356 54.2104 118.845Z"
    fill="#121212" />
  <path
    d="M156.126 115.371L129.488 107.719L157.202 107.556C160.33 107.538 162.259 110.966 160.618 113.63C159.681 115.153 157.844 115.864 156.126 115.371Z"
    fill="#121212" />
  <path
    d="M199.595 120.478L172.957 112.827L200.671 112.664C203.799 112.645 205.728 116.074 204.088 118.738C203.15 120.26 201.313 120.972 199.595 120.478Z"
    fill="#121212" />
  <path
    d="M70.4782 60.5203L88.1166 81.8977L65.1702 66.3553C62.5801 64.601 62.9292 60.6829 65.7886 59.4141C67.423 58.6889 69.3403 59.1412 70.4782 60.5203Z"
    fill="#121212" />
  <path
    d="M106.854 154.265L104.913 126.618L114.564 152.598C115.653 155.531 113.093 158.517 110.029 157.889C108.277 157.53 106.979 156.049 106.854 154.265Z"
    fill="#121212" />
  <path
    d="M115.433 199.819L113.492 172.172L123.143 198.152C124.232 201.085 121.672 204.071 118.607 203.443C116.856 203.084 115.558 201.602 115.433 199.819Z"
    fill="#121212" />
  <path
    d="M145.311 74.7514L120.976 88.0139L140.589 68.4328C142.803 66.2226 146.584 67.3087 147.287 70.3569C147.689 72.0991 146.881 73.8957 145.311 74.7514Z"
    fill="#121212" />
  <path
    d="M180.896 45.8678L156.56 59.1303L176.174 39.5492C178.388 37.339 182.168 38.4251 182.872 41.4733C183.274 43.2155 182.466 45.0122 180.896 45.8678Z"
    fill="#121212" />
  <path
    d="M57.5813 97.956L84.6747 103.792L57.0347 105.825C53.9148 106.055 51.7593 102.764 53.2161 99.9958C54.0487 98.4134 55.8334 97.5795 57.5813 97.956Z"
    fill="#121212" />
  <path
    d="M141.834 134.416L122.322 114.734L146.589 128.122C149.328 129.634 149.337 133.567 146.605 135.091C145.043 135.962 143.093 135.686 141.834 134.416Z"
    fill="#121212" />
  <path
    d="M180.261 162.756L160.75 143.074L185.016 156.462C187.755 157.973 187.764 161.907 185.032 163.431C183.471 164.302 181.52 164.026 180.261 162.756Z"
    fill="#121212" />
  <path
    d="M93.2754 53.1126L95.7827 80.7137L85.6012 54.9369C84.452 52.0274 86.9502 48.9889 90.027 49.5541C91.7856 49.8771 93.1137 51.332 93.2754 53.1126Z"
    fill="#121212" />
  <path
    d="M83.657 146.069L97.7368 122.198L90.9525 149.069C90.1867 152.102 86.3844 153.11 84.2165 150.855C82.9774 149.566 82.7486 147.609 83.657 146.069Z"
    fill="#121212" />
  <path
    d="M66.0804 191.988L80.1603 168.116L73.3759 194.987C72.6101 198.02 68.8079 199.028 66.6399 196.773C65.4008 195.484 65.1721 193.528 66.0804 191.988Z"
    fill="#121212" />
  <path
    d="M69.1376 82.1817L96.6915 98.7313L65.8786 89.584C62.8532 88.6859 61.952 84.8385 64.2637 82.6901C65.5938 81.4541 67.5811 81.2467 69.1376 82.1817Z"
    fill="#121212" />
  <path
    d="M120.927 139.518L106.842 109.47L127.883 135.132C129.88 137.568 128.536 141.253 125.44 141.832C123.584 142.179 121.728 141.228 120.927 139.518Z"
    fill="#121212" />
  <path
    d="M152.209 187.13L139.976 162.261L158.719 182.676C160.835 184.98 159.591 188.712 156.517 189.288C154.759 189.616 152.998 188.734 152.209 187.13Z"
    fill="#121212" />
  <path
    d="M129.531 175.183L121.254 148.733L136.648 171.78C138.385 174.381 136.584 177.879 133.458 177.976C131.671 178.031 130.065 176.89 129.531 175.183Z"
    fill="#121212" />
  <path
    d="M138.668 193.938L138.668 187.501L143.473 191.784C145.418 193.519 144.248 196.74 141.643 196.821C140.015 196.871 138.668 195.566 138.668 193.938Z"
    fill="#121212" />
  <path
    d="M152.042 164.404L136.4 141.525L157.854 159.07C160.275 161.051 159.575 164.921 156.613 165.928C154.92 166.503 153.051 165.88 152.042 164.404Z"
    fill="#121212" />
  <path
    d="M167.305 176.839L164.966 170.828L170.951 173.236C173.354 174.203 173.26 177.638 170.806 178.471C169.391 178.952 167.848 178.233 167.305 176.839Z"
    fill="#121212" />
  <path
    d="M176.591 138.516L153.322 123.461L179.89 131.351C182.888 132.242 183.738 136.083 181.395 138.155C180.056 139.34 178.092 139.488 176.591 138.516Z"
    fill="#121212" />
  <path
    d="M191.864 143.827L189.312 139.74L194.13 139.741C196.589 139.741 197.742 142.783 195.899 144.412C194.662 145.507 192.739 145.228 191.864 143.827Z"
    fill="#121212" />
  <path
    d="M177.87 100.304L150.159 99.8487L176.876 92.4786C179.892 91.6468 182.646 94.4552 181.755 97.4541C181.246 99.1681 179.658 100.333 177.87 100.304Z"
    fill="#121212" />
  <path
    d="M200.778 98.077L194.069 95.909L200.292 92.5935C202.633 91.3459 205.319 93.5397 204.563 96.0832C204.085 97.6929 202.376 98.5933 200.778 98.077Z"
    fill="#121212" />
  <path
    d="M176.042 70.2974L150.737 81.6008L171.833 63.6263C174.214 61.5974 177.897 62.9781 178.358 66.0722C178.622 67.8407 177.675 69.5681 176.042 70.2974Z"
    fill="#121212" />
  <path
    d="M190.61 59.9733L186.761 59.9733L188.495 56.5369C189.536 54.4736 192.613 54.9692 192.954 57.2551C193.167 58.6868 192.058 59.9733 190.61 59.9733Z"
    fill="#121212" />
  <path
    d="M159.097 45.735L137.157 62.6678L153.438 40.2398C155.276 37.7082 159.181 38.1848 160.356 41.084C161.027 42.7411 160.513 44.6426 159.097 45.735Z"
    fill="#121212" />
  <path
    d="M169.192 32.7889L163.974 34.2044L165.877 29.1441C166.764 26.7852 170.086 26.743 171.032 29.0786C171.656 30.617 170.794 32.3543 169.192 32.7889Z"
    fill="#121212" />
  <path
    d="M129.761 28.1995L117.428 53.0193L122.269 25.7306C122.815 22.6504 126.535 21.3722 128.859 23.4662C130.188 24.6631 130.556 26.5982 129.761 28.1995Z"
    fill="#121212" />
  <path
    d="M134.425 12.2314L129.902 16.0755L129.653 10.1454C129.546 7.58043 132.58 6.15285 134.488 7.87134C135.79 9.04458 135.76 11.0963 134.425 12.2314Z"
    fill="#121212" />
  <path
    d="M118.117 8.82507L111.71 35.7889L110.262 8.11208C110.098 4.98809 113.433 2.90271 116.17 4.41769C117.735 5.28359 118.531 7.08551 118.117 8.82507Z"
    fill="#121212" />
  <path
    d="M79.1473 11.17L83.9015 38.4739L71.6477 13.6152C70.2646 10.8093 72.5062 7.57689 75.6189 7.88873C77.398 8.06696 78.8405 9.40847 79.1473 11.17Z"
    fill="#121212" />
  <path
    d="M39.7349 32.1042L56.919 53.8484L34.3051 37.8261C31.7526 36.0176 32.1841 32.1077 35.0696 30.8994C36.7189 30.2088 38.6262 30.7014 39.7349 32.1042Z"
    fill="#121212" />
  <path
    d="M17.9369 63.3749L41.7725 77.5159L14.9185 70.6626C11.8873 69.8891 10.889 66.0842 13.1498 63.9221C14.442 62.6863 16.3991 62.4626 17.9369 63.3749Z"
    fill="#121212" />
  <path
    d="M8.79256 98.0916L35.9684 103.531L8.36104 105.968C5.24489 106.243 3.04154 102.984 4.45764 100.195C5.26704 98.6007 7.03933 97.7408 8.79256 98.0916Z"
    fill="#121212" />
  <path
    d="M13.69 137.533L39.6394 127.8L17.4831 144.449C14.9822 146.329 11.3902 144.725 11.1197 141.608C10.965 139.827 12.0159 138.161 13.69 137.533Z"
    fill="#121212" />
  <path
    d="M101.383 23.0857L99.7522 50.7523L93.523 23.7467C92.8199 20.6985 95.7428 18.0659 98.7011 19.083C100.392 19.6643 101.489 21.3008 101.383 23.0857Z"
    fill="#121212" />
  <path
    d="M98.2236 7.65864L96.2847 11.4898L93.9156 7.90865C92.6005 5.92079 94.5543 3.39688 96.8083 4.17179C98.2401 4.66405 98.9073 6.30767 98.2236 7.65864Z"
    fill="#121212" />
  <path
    d="M67.0523 32.6328L78.7397 57.7626L60.4461 36.9432C58.3812 34.5932 59.7057 30.8893 62.7924 30.3813C64.5567 30.0911 66.2983 31.0115 67.0523 32.6328Z"
    fill="#121212" />
  <path
    d="M57.1326 19.9068L56.7613 23.4315L53.6324 21.7669C51.6132 20.6928 52.1103 17.6689 54.367 17.2975C55.9241 17.0413 57.2979 18.3375 57.1326 19.9068Z"
    fill="#121212" />
  <path
    d="M43.6768 58.3094L65.362 75.568L39.693 65.1176C36.7957 63.938 36.3253 60.0326 38.8598 58.1988C40.3084 57.1508 42.2778 57.1959 43.6768 58.3094Z"
    fill="#121212" />
  <path
    d="M25.7202 48.575L27.6216 52.5065L23.2624 52.2424C20.864 52.0971 19.9708 49.0246 21.9175 47.6162C23.2073 46.683 25.0271 47.1418 25.7202 48.575Z"
    fill="#121212" />
  <path
    d="M32.1826 82.7521L58.3298 91.9405L30.6531 90.4905C27.5291 90.3268 25.8034 86.7919 27.596 84.2282C28.6205 82.7628 30.4957 82.1593 32.1826 82.7521Z"
    fill="#121212" />
  <path
    d="M10.8067 81.4385L14.1874 84.8911L9.4734 85.9532C7.07183 86.4943 5.2617 83.7973 6.67231 81.7798C7.6395 80.3964 9.62577 80.2325 10.8067 81.4385Z"
    fill="#121212" />
  <path
    d="M28.1684 112.764L55.851 111.43L29.6654 120.508C26.7097 121.533 23.78 118.908 24.4752 115.858C24.8725 114.115 26.3824 112.85 28.1684 112.764Z"
    fill="#121212" />
  <path
    d="M8.62396 116.383L14.5767 117.925L9.5294 121.437C7.41078 122.911 4.58738 121.007 5.16096 118.49C5.51492 116.937 7.08201 115.984 8.62396 116.383Z"
    fill="#121212" />
  <path
    d="M39.924 141.436L64.7639 129.144L44.3929 147.936C42.0935 150.057 38.3586 148.823 37.7762 145.749C37.4433 143.992 38.3214 142.229 39.924 141.436Z"
    fill="#121212" />
  <path
    d="M21.9748 154.234L28.1406 153.425L24.759 158.644C23.3502 160.818 20.0094 160.162 19.527 157.617C19.2198 155.995 20.3388 154.449 21.9748 154.234Z"
    fill="#121212" />
  <path
    d="M59.2465 161.401L78.852 141.812L65.5593 166.131C64.0589 168.876 60.1253 168.9 58.5907 166.174C57.7135 164.616 57.9817 162.665 59.2465 161.401Z"
    fill="#121212" />
  <path
    d="M47.5547 181.293L54.295 177.308L52.0485 184.809C51.2732 187.397 47.7699 187.787 46.4443 185.432C45.6268 183.98 46.1201 182.141 47.5547 181.293Z"
    fill="#121212" />
  <path
    d="M91.8716 177.438L98.7554 150.592L99.7135 178.29C99.8216 181.417 96.4499 183.443 93.7402 181.879C92.1914 180.986 91.4274 179.17 91.8716 177.438Z"
    fill="#121212" />
  <path
    d="M90.6314 199.562L94.7931 190.571L96.7758 200.278C97.3374 203.028 94.3899 205.152 91.9591 203.75C90.4996 202.908 89.9236 201.091 90.6314 199.562Z"
    fill="#121212" />
</svg>