<svg width="23" height="25" viewBox="0 0 23 25" fill="none" xmlns="http://www.w3.org/2000/svg">
<path d="M11.2347 23.825C11.5193 24.2984 12.1337 24.4514 12.607 24.1668C13.0804 23.8823 13.2334 23.2679 12.9489 22.7946L11.2347 23.825ZM7.84503 18.1864L11.2347 23.825L12.9489 22.7946L9.55914 17.1559L7.84503 18.1864Z" fill="black"/>
<path d="M18.3403 4.13867C20.0219 4.13867 21.3851 5.50188 21.3851 7.18348C21.3851 7.60279 21.3003 8.00231 21.147 8.36583" stroke="black" stroke-width="2" stroke-linecap="round"/>
<path d="M7.84321 8.36564L1.4382 12.3409C1.29837 12.4277 1.20341 12.5741 1.1792 12.7369C0.781305 15.4118 2.18636 18.0738 4.64014 19.2107C4.80584 19.2874 4.99873 19.2777 5.15582 19.1845L11.8604 15.2096C13.3623 14.3192 15.1427 14.0222 16.8523 14.3769L18.0843 14.6325C18.935 14.809 19.5906 13.8915 19.148 13.144L13.0273 2.805C12.5704 2.03316 11.4069 2.20673 11.1951 3.07832L10.9539 4.07081C10.5204 5.85498 9.40325 7.3974 7.84321 8.36564Z" stroke="black" stroke-width="2" stroke-linejoin="round"/>
</svg>
