<svg width="24" height="24" viewBox="0 0 24 24" fill="none" xmlns="http://www.w3.org/2000/svg">
<path d="M19.426 4.57515C18.4528 3.59226 17.2949 2.81135 16.0189 2.2773C14.7429 1.74325 13.374 1.46657 11.9908 1.46317C10.6076 1.45976 9.23729 1.7297 7.9587 2.25746C6.68011 2.78523 5.5184 3.56042 4.54031 4.53851C3.56222 5.5166 2.78703 6.67831 2.25926 7.9569C1.7315 9.23549 1.46156 10.6058 1.46497 11.989C1.46837 13.3722 1.74505 14.7411 2.2791 16.0171C2.81315 17.2931 3.59406 18.451 4.57695 19.4242C5.55022 20.4071 6.70809 21.188 7.98407 21.7221C9.26004 22.2561 10.629 22.5328 12.0122 22.5362C13.3954 22.5396 14.7657 22.2697 16.0443 21.7419C17.3229 21.2141 18.4846 20.4389 19.4627 19.4609C20.4407 18.4828 21.2159 17.3211 21.7437 16.0425C22.2715 14.7639 22.5414 13.3936 22.538 12.0104C22.5346 10.6272 22.2579 9.25824 21.7239 7.98227C21.1898 6.70629 20.4089 5.54841 19.426 4.57515ZM12.0015 20.2497V15.7497C11.0069 15.7497 10.0531 15.3546 9.34983 14.6513C8.64657 13.9481 8.25148 12.9942 8.25148 11.9997C8.25148 11.0051 8.64657 10.0513 9.34983 9.34803C10.0531 8.64477 11.0069 8.24968 12.0015 8.24968V3.74968C16.5507 3.74968 20.2515 7.45281 20.2515 11.9997C20.2515 16.5466 16.5507 20.2497 12.0015 20.2497Z" fill="#373737"/>
<path d="M15.7515 11.9997C15.7515 11.0051 15.3564 10.0513 14.6531 9.34803C13.9499 8.64477 12.996 8.24968 12.0015 8.24968V15.7497C12.996 15.7497 13.9499 15.3546 14.6531 14.6513C15.3564 13.9481 15.7515 12.9942 15.7515 11.9997Z" fill="#373737"/>
</svg>
