<svg width="24" height="24" viewBox="0 0 24 24" fill="none" >
<g clip-path="url(#clip0_224:7)">
<path fill-rule="evenodd" clip-rule="evenodd" d="M19.54 0C20.896 0 22 1.104 22 2.472V24L19.42 21.72L17.968 20.376L16.432 18.948L17.068 21.168H3.46C2.104 21.168 1 20.064 1 18.696V2.472C1 1.104 2.104 0 3.46 0H19.54V0ZM14.908 15.672C17.56 15.588 18.58 13.848 18.58 13.848C18.58 9.984 16.852 6.852 16.852 6.852C15.124 5.556 13.48 5.592 13.48 5.592L13.312 5.784C15.352 6.408 16.3 7.308 16.3 7.308C15.052 6.624 13.828 6.288 12.688 6.156C11.824 6.06 10.996 6.084 10.264 6.18L10.06 6.204C9.64 6.24 8.62 6.396 7.336 6.96C6.892 7.164 6.628 7.308 6.628 7.308C6.628 7.308 7.624 6.36 9.784 5.736L9.664 5.592C9.664 5.592 8.02 5.556 6.292 6.852C6.292 6.852 4.564 9.984 4.564 13.848C4.564 13.848 5.572 15.588 8.224 15.672C8.224 15.672 8.668 15.132 9.028 14.676C7.504 14.22 6.928 13.26 6.928 13.26L7.264 13.464L7.312 13.5L7.359 13.527L7.373 13.533L7.42 13.56C7.72 13.728 8.02 13.86 8.296 13.968C8.788 14.16 9.376 14.352 10.06 14.484C10.96 14.652 12.016 14.712 13.168 14.496C13.732 14.4 14.308 14.232 14.908 13.98C15.328 13.824 15.796 13.596 16.288 13.272C16.288 13.272 15.688 14.256 14.116 14.7C14.476 15.156 14.908 15.672 14.908 15.672ZM9.328 10.068C8.644 10.068 8.104 10.668 8.104 11.4C8.104 12.132 8.656 12.732 9.328 12.732C10.012 12.732 10.552 12.132 10.552 11.4C10.564 10.668 10.012 10.068 9.328 10.068ZM13.708 10.068C13.024 10.068 12.484 10.668 12.484 11.4C12.484 12.132 13.036 12.732 13.708 12.732C14.392 12.732 14.932 12.132 14.932 11.4C14.932 10.668 14.392 10.068 13.708 10.068Z" fill="#18181B"/>
</g>
<defs>
<clipPath id="clip0_224:7">
<rect width="24" height="24" fill="white"/>
</clipPath>
</defs>
</svg>
