<svg width="24" height="24" viewBox="0 0 24 24" fill="none" xmlns="http://www.w3.org/2000/svg">
<path fill-rule="evenodd" clip-rule="evenodd" d="M6.95098 10.9265C6.50467 10.4802 5.78105 10.4802 5.33474 10.9265C4.88842 11.3728 4.88842 12.0964 5.33474 12.5428L11.3535 18.5615C11.7998 19.0078 12.5234 19.0078 12.9697 18.5615L18.9884 12.5428C19.4347 12.0964 19.4347 11.3728 18.9884 10.9265C18.5421 10.4802 17.8185 10.4802 17.3722 10.9265L13.3044 14.9942V2.27286C13.3044 1.64168 12.7928 1.13 12.1616 1.13C11.5304 1.13 11.0187 1.64168 11.0187 2.27286V14.9942L6.95098 10.9265Z" fill="black"/>
<path d="M1.5 20.6249C1.5 21.8512 2.49411 22.8454 3.72042 22.8454H19.8788C21.1051 22.8454 22.0993 21.8512 22.0993 20.6249" stroke="black" stroke-width="2" stroke-linecap="round" stroke-linejoin="round"/>
</svg>
