<svg width="24" height="24" viewBox="0 0 24 24" fill="none" >
<path fill-rule="evenodd" clip-rule="evenodd" d="M19.2071 3.2071C19.4174 2.99682 19.7026 2.87868 20 2.87868C20.2974 2.87868 20.5826 2.99682 20.7929 3.2071C21.0032 3.41739 21.1213 3.70261 21.1213 4C21.1213 4.29739 21.0032 4.5826 20.7929 4.79289L11.4888 14.097L9.37437 14.6256L9.90296 12.5112L19.2071 3.2071ZM20 0.878677C19.1722 0.878677 18.3783 1.20753 17.7929 1.79289L8.29289 11.2929C8.16473 11.4211 8.07382 11.5816 8.02986 11.7575L7.02986 15.7575C6.94466 16.0982 7.04451 16.4587 7.29289 16.7071C7.54127 16.9555 7.90176 17.0553 8.24254 16.9701L12.2425 15.9701C12.4184 15.9262 12.5789 15.8353 12.7071 15.7071L22.2071 6.2071C22.7925 5.62174 23.1213 4.82782 23.1213 4C23.1213 3.17217 22.7925 2.37825 22.2071 1.79289C21.6217 1.20753 20.8278 0.878677 20 0.878677ZM4 3C3.20435 3 2.44129 3.31607 1.87868 3.87868C1.31607 4.44128 1 5.20435 1 6V20C1 20.7956 1.31607 21.5587 1.87868 22.1213C2.44129 22.6839 3.20435 23 4 23H18C18.7957 23 19.5587 22.6839 20.1213 22.1213C20.6839 21.5587 21 20.7956 21 20V13C21 12.4477 20.5523 12 20 12C19.4477 12 19 12.4477 19 13V20C19 20.2652 18.8946 20.5196 18.7071 20.7071C18.5196 20.8946 18.2652 21 18 21H4C3.73478 21 3.48043 20.8946 3.29289 20.7071C3.10536 20.5196 3 20.2652 3 20V6C3 5.73478 3.10536 5.48043 3.29289 5.29289C3.48043 5.10535 3.73478 5 4 5H11C11.5523 5 12 4.55228 12 4C12 3.44771 11.5523 3 11 3H4Z" fill="#18181B"/>
</svg>
