<svg xmlns="http://www.w3.org/2000/svg" enable-background="new 0 0 32 32" viewBox="0 0 32 32"><path d="M29.7915,15.3887C25.8979,10.3477,21.5156,8,16,8s-9.8979,2.3477-13.7915,7.3887c-0.2778,0.3604-0.2778,0.8623,0,1.2227C6.1021,21.6523,10.4844,24,16,24s9.8979-2.3477,13.7915-7.3887C30.0693,16.251,30.0693,15.749,29.7915,15.3887z M16,22c-4.6875,0-8.3306-1.8569-11.7227-6C7.6694,11.8569,11.3125,10,16,10s8.3306,1.8569,11.7227,6C24.3306,20.1431,20.6875,22,16,22z"/><path d="M16,12c-2.2056,0-4,1.7944-4,4s1.7944,4,4,4s4-1.7944,4-4S18.2056,12,16,12z M16,18c-1.103,0-2-0.897-2-2s0.897-2,2-2s2,0.897,2,2S17.103,18,16,18z"/></svg>