<svg xmlns="http://www.w3.org/2000/svg" enable-background="new 0 0 32 32" viewBox="0 0 32 32"><path d="M29.7881,15.3843C25.8959,10.3463,21.5145,8,16,8c-2.0162,0-3.8796,0.3174-5.6243,0.9616L7.0606,5.6465c-0.1953-0.1953-0.5118-0.1953-0.7071,0l-0.707,0.707c-0.1953,0.1953-0.1953,0.5118,0,0.7071l2.7821,2.7821c-2.2437,1.2166-4.2904,3.0483-6.2165,5.5414c-0.276,0.3572-0.2762,0.8744-0.0002,1.2316C6.1046,21.6537,10.486,24,16,24c2.0161,0,3.8795-0.3174,5.6243-0.9617l3.3151,3.3151c0.1953,0.1953,0.5118,0.1953,0.7071,0l0.707-0.707c0.1953-0.1953,0.1953-0.5118,0-0.7071l-2.7822-2.7822c2.2436-1.2166,4.2902-3.0482,6.2165-5.5412C30.0639,16.2588,30.0641,15.7416,29.7881,15.3843z M16,22c-4.6875,0-8.3306-1.8569-11.7227-6c1.772-2.1646,3.6174-3.6909,5.6399-4.6687l2.6496,2.6496C12.2155,14.5759,12,15.2604,12,16c0,2.2056,1.7944,4,4,4c0.7396,0,1.4241-0.2155,2.0191-0.5668l2.0085,2.0085C18.7648,21.8026,17.436,22,16,22z M17.9255,16.5114l-2.4369-2.4369C15.6528,14.0308,15.8221,14,16,14c1.103,0,2,0.897,2,2C18,16.1779,17.9692,16.3472,17.9255,16.5114z M16.5114,17.9255C16.3472,17.9692,16.1779,18,16,18c-1.103,0-2-0.897-2-2c0-0.1779,0.0308-0.3472,0.0745-0.5114L16.5114,17.9255z M22.0827,20.6686l-2.6495-2.6495C19.7845,17.4241,20,16.7396,20,16c0-2.2056-1.7944-4-4-4c-0.7396,0-1.4241,0.2155-2.0191,0.5668l-2.0086-2.0086C13.2351,10.1973,14.564,10,16,10c4.6875,0,8.3311,1.8569,11.7227,6C25.9505,18.1646,24.105,19.6909,22.0827,20.6686z"/></svg>