<svg width="19" height="19" viewBox="0 0 19 19" fill="none" xmlns="http://www.w3.org/2000/svg">
<path d="M11.6523 7.41844L7.93604 11.1347C7.45866 10.6573 7.16489 10.0037 7.16489 9.27656C7.16489 7.82238 8.33998 6.64728 9.79417 6.64728C10.5213 6.64728 11.1749 6.94105 11.6523 7.41844Z" stroke="#676767" stroke-width="1.5" stroke-linecap="round" stroke-linejoin="round"/>
<path d="M14.0686 4.70105C12.7833 3.7316 11.3145 3.2028 9.79417 3.2028C7.20161 3.2028 4.78531 4.73043 3.10346 7.3744C2.74826 7.93088 2.27268 8.69095 2.29923 9.43581C2.32208 10.0771 2.79766 10.707 3.10346 11.1861C3.68366 12.0968 4.35934 12.8827 5.09378 13.5143" stroke="#676767" stroke-width="1.5" stroke-linecap="round" stroke-linejoin="round"/>
<path d="M15.9705 6.62648C16.149 6.86336 16.3219 7.11021 16.4849 7.36702C16.841 7.92498 17.2837 8.68762 17.256 9.43438C17.2324 10.0736 16.7897 10.7011 16.4849 11.1787C14.803 13.8227 12.3867 15.3503 9.79417 15.3503C9.03432 15.3503 8.28487 15.2152 7.56766 14.9625" stroke="#676767" stroke-width="1.5" stroke-linecap="round" stroke-linejoin="round"/>
<path d="M12.372 9.79068C12.1811 10.8262 11.3365 11.6708 10.3009 11.8618" stroke="#676767" stroke-width="1.5" stroke-linecap="round" stroke-linejoin="round"/>
<path d="M7.93604 11.1348L2.4498 16.621" stroke="#676767" stroke-width="1.5" stroke-linecap="round" stroke-linejoin="round"/>
<path d="M17.1385 1.93225L11.6523 7.41849" stroke="#676767" stroke-width="1.5" stroke-linecap="round" stroke-linejoin="round"/>
</svg>
