<svg width="48" height="48" viewBox="0 0 48 48" fill="none" xmlns="http://www.w3.org/2000/svg">
<g clip-path="url(#clip0_17_61)">
<path d="M48 24C48 10.7452 37.2548 0 24 0C10.7452 0 0 10.7452 0 24C0 35.9789 8.77641 45.908 20.25 47.7084V30.9375H14.1562V24H20.25V18.7125C20.25 12.6975 23.8331 9.375 29.3152 9.375C31.9402 9.375 34.6875 9.84375 34.6875 9.84375V15.75H31.6613C28.68 15.75 27.75 17.6002 27.75 19.5V24H34.4062L33.3422 30.9375H27.75V47.7084C39.2236 45.908 48 35.9789 48 24Z" fill="white"/>
</g>
<defs>
<clipPath id="clip0_17_61">
<rect width="48" height="48" fill="white"/>
</clipPath>
</defs>
</svg>
