<svg width="24" height="24" viewBox="0 0 24 24" fill="none" >
<path fill-rule="evenodd" clip-rule="evenodd" d="M2.5 8C2.5 7.17157 3.17157 6.5 4 6.5H20C20.8284 6.5 21.5 7.17157 21.5 8C21.5 8.82843 20.8284 9.5 20 9.5H4C3.17157 9.5 2.5 8.82843 2.5 8ZM4.5 12C4.5 11.1716 5.17157 10.5 6 10.5H18C18.8284 10.5 19.5 11.1716 19.5 12C19.5 12.8284 18.8284 13.5 18 13.5H6C5.17157 13.5 4.5 12.8284 4.5 12ZM8 14.5C7.17157 14.5 6.5 15.1716 6.5 16C6.5 16.8284 7.17157 17.5 8 17.5H16C16.8284 17.5 17.5 16.8284 17.5 16C17.5 15.1716 16.8284 14.5 16 14.5H8Z" fill="#18181B"/>
</svg>
