<svg width="24" height="24" viewBox="0 0 24 24" fill="none" >
<path fill-rule="evenodd" clip-rule="evenodd" d="M2.97376 1.73358C2.63129 1.39111 2.07604 1.39111 1.73358 1.73358C1.39111 2.07605 1.39111 2.63129 1.73358 2.97376L7.30588 8.54606L3.43386 13.1925C3.21603 13.4539 3.16907 13.8177 3.3134 14.1258C3.45772 14.434 3.76728 14.6308 4.10754 14.6308H11.0066L10.2529 20.6606C10.2046 21.0469 10.4168 21.4188 10.7739 21.5738C11.131 21.7288 11.5475 21.6299 11.7967 21.3308L15.5667 16.8069L21.0262 22.2664C21.3687 22.6089 21.924 22.6089 22.2664 22.2664C22.6089 21.924 22.6089 21.3687 22.2664 21.0262L16.1354 14.8953C16.1309 14.8906 16.1263 14.8861 16.1217 14.8815L9.11989 7.87972C9.11539 7.87511 9.11083 7.87055 9.10621 7.86603L2.97376 1.73358ZM8.55117 9.79135L5.97985 12.8769H11.6368L8.55117 9.79135ZM12.8426 14.0828L12.3642 17.9102L14.3214 15.5616L12.8426 14.0828Z" fill="black"/>
<path d="M13.7472 3.3387C13.7952 2.95239 13.5827 2.58069 13.2255 2.42594C12.8684 2.27119 12.4519 2.37044 12.2029 2.66966L10.0719 5.23032C9.76211 5.6026 9.81276 6.15553 10.185 6.46533C10.5573 6.77514 11.1102 6.72449 11.42 6.35222L11.6381 6.09023L11.4893 7.28797C11.4296 7.7686 11.7708 8.20662 12.2515 8.26632C12.7321 8.32602 13.1701 7.98479 13.2298 7.50416L13.7472 3.3387Z" fill="black"/>
<path d="M15.2096 9.36918C14.7253 9.36918 14.3327 9.7618 14.3327 10.2461C14.3327 10.7304 14.7253 11.1231 15.2096 11.1231H18.0177L17.0884 12.2359C16.778 12.6077 16.8277 13.1607 17.1994 13.4711C17.5712 13.7816 18.1242 13.7319 18.4346 13.3601L20.5656 10.8082C20.7838 10.5469 20.831 10.1829 20.6868 9.87457C20.5426 9.56621 20.2329 9.36918 19.8925 9.36918H15.2096Z" fill="black"/>
</svg>
