<svg width="24" height="24" viewBox="0 0 24 24" fill="none" >
<path fill-rule="evenodd" clip-rule="evenodd" d="M7.46077 4.22632C9.18126 3.22165 11.1865 2.81621 13.1621 3.07352C15.1378 3.33084 16.9722 4.23637 18.378 5.6482C19.7838 7.06004 20.6814 8.89838 20.9302 10.8751C20.9991 11.4231 20.6108 11.9232 20.0629 11.9922C19.5149 12.0611 19.0148 11.6728 18.9458 11.1249C18.7523 9.58736 18.0541 8.15749 16.9607 7.05936C15.8673 5.96124 14.4405 5.25691 12.9038 5.05677C11.3671 4.85663 9.80749 5.17199 8.46929 5.95342C7.58529 6.46962 6.83092 7.16994 6.25324 8.00001H9C9.55228 8.00001 10 8.44772 10 9.00001C10 9.55229 9.55228 10 9 10H4C3.44772 10 3 9.55229 3 9.00001V4.00001C3 3.44772 3.44772 3.00001 4 3.00001C4.55228 3.00001 5 3.44772 5 4.00001V6.34023C5.68094 5.49798 6.51288 4.77982 7.46077 4.22632ZM3.93641 12.0079C4.48432 11.9386 4.98472 12.3265 5.05408 12.8744C5.24865 14.4114 5.94739 15.8405 7.04091 16.9379C8.13442 18.0353 9.56098 18.7392 11.0972 18.9393C12.6335 19.1393 14.1928 18.8243 15.5309 18.0436C16.4143 17.5281 17.1684 16.8289 17.7463 16H15C14.4477 16 14 15.5523 14 15C14 14.4477 14.4477 14 15 14H20C20.5523 14 21 14.4477 21 15V20C21 20.5523 20.5523 21 20 21C19.4477 21 19 20.5523 19 20V17.6585C18.3188 18.5003 17.4867 19.218 16.5388 19.771C14.8185 20.7748 12.814 21.1797 10.839 20.9225C8.86395 20.6653 7.02997 19.7604 5.62416 18.3496C4.21835 16.9387 3.32006 15.1015 3.06992 13.1256C3.00056 12.5777 3.3885 12.0773 3.93641 12.0079Z" fill="black"/>
</svg>
