<svg width="20" height="20" viewBox="0 0 20 20" fill="none" >
<path d="M0 10C0 4.47715 4.47715 0 10 0C15.5228 0 20 4.47715 20 10C20 15.5228 15.5228 20 10 20C4.47715 20 0 15.5228 0 10Z" fill="#10B981"/>
<path fill-rule="evenodd" clip-rule="evenodd" d="M11 6.5C11 5.94772 10.5523 5.5 10 5.5C9.44772 5.5 9 5.94772 9 6.5V9H6.5C5.94772 9 5.5 9.44772 5.5 10C5.5 10.5523 5.94772 11 6.5 11H9V13.5C9 14.0523 9.44772 14.5 10 14.5C10.5523 14.5 11 14.0523 11 13.5V11H13.5C14.0523 11 14.5 10.5523 14.5 10C14.5 9.44772 14.0523 9 13.5 9H11V6.5Z" fill="white"/>
</svg>
