<svg width="24" height="24" viewBox="0 0 24 24" fill="none" xmlns="http://www.w3.org/2000/svg">
<path fill-rule="evenodd" clip-rule="evenodd" d="M10.6505 1.49272C9.18622 0.559856 7.24291 0.990677 6.31004 2.45499C5.58248 3.59704 5.6844 5.03043 6.45917 6.0486H4.65853C2.63798 6.0486 1 7.68659 1 9.70713V10.8242C1 11.6317 1.28867 12.3718 1.76845 12.9468V17.8995C1.76845 20.5338 3.90405 22.6694 6.53843 22.6694H17.4615C20.0959 22.6694 22.2315 20.5338 22.2315 17.8995V12.9468C22.7113 12.3718 23 11.6317 23 10.8242V9.70713C23 7.68658 21.362 6.0486 19.3415 6.0486H17.541C18.3158 5.03043 18.4177 3.59703 17.6902 2.45499C16.7573 0.990677 14.814 0.559856 13.3496 1.49272C12.9064 1.77511 12.4212 2.24223 12.0001 2.76416C11.579 2.24223 11.0938 1.77511 10.6505 1.49272ZM13.3157 5.24308C13.7216 3.99343 15.0031 2.87908 15.616 3.73872C16.266 4.65035 14.7007 5.35452 13.3157 5.24308ZM10.5622 5.24308C10.1562 3.99343 8.87473 2.87908 8.26184 3.73872C7.61188 4.65035 9.17719 5.35452 10.5622 5.24308ZM11.2359 14.8159V20.5499H12.7641V14.8159H20.4529V13.2876H12.7641V8.59693H11.2359V13.2876H3.54708V14.8159H11.2359Z" fill="#121212"/>
</svg>
