<svg width="17" height="16" viewBox="0 0 17 16" fill="none" xmlns="http://www.w3.org/2000/svg">
<path d="M6.41009 15.3104H10.7075C14.2886 15.3104 15.7211 13.878 15.7211 10.2968V5.99944C15.7211 2.4183 14.2886 0.98584 10.7075 0.98584H6.41009C2.82894 0.98584 1.39648 2.4183 1.39648 5.99944V10.2968C1.39648 13.878 2.82894 15.3104 6.41009 15.3104Z" stroke="#121212" stroke-width="1.07434" stroke-linecap="round" stroke-linejoin="round"/>
<path d="M6.41097 6.71575C7.2021 6.71575 7.84343 6.07441 7.84343 5.28329C7.84343 4.49216 7.2021 3.85083 6.41097 3.85083C5.61985 3.85083 4.97852 4.49216 4.97852 5.28329C4.97852 6.07441 5.61985 6.71575 6.41097 6.71575Z" fill="#121212" stroke="#121212" stroke-width="1.07434" stroke-linecap="round" stroke-linejoin="round"/>
<path d="M1.94141 13.1474L5.48397 10.4038C5.86161 10.1113 6.39336 10.1267 6.75341 10.4406L7.69443 11.261C8.07962 11.5968 8.65601 11.5882 9.03097 11.241L12.3171 8.19826C12.7099 7.83455 13.3195 7.8447 13.7 8.22129L15.715 10.2157" stroke="black"/>
<path d="M6.01833 10.1586L2.14844 13.5106L4.24982 15.1191H13.2525L15.5356 12.8879L15.4059 9.57104L12.9327 7.806L8.73818 11.6945L6.01833 10.1586Z" fill="#121212"/>
</svg>
