<svg width="20" height="20" viewBox="0 0 20 20" fill="none" xmlns="http://www.w3.org/2000/svg">
<path d="M3 10V17C3 17.5304 3.21071 18.0391 3.58579 18.4142C3.96086 18.7893 4.46957 19 5 19H15C15.5304 19 16.0391 18.7893 16.4142 18.4142C16.7893 18.0391 17 17.5304 17 17V10M10 6V19V6ZM10 6V4C10 3.60444 10.1173 3.21776 10.3371 2.88886C10.5568 2.55996 10.8692 2.30362 11.2346 2.15224C11.6001 2.00087 12.0022 1.96126 12.3902 2.03843C12.7781 2.1156 13.1345 2.30608 13.4142 2.58579C13.6939 2.86549 13.8844 3.22186 13.9616 3.60982C14.0387 3.99778 13.9991 4.39992 13.8478 4.76537C13.6964 5.13082 13.44 5.44318 13.1111 5.66294C12.7822 5.8827 12.3956 6 12 6H10ZM10 6V3.5C10 3.00555 9.85338 2.5222 9.57867 2.11108C9.30397 1.69995 8.91352 1.37952 8.45671 1.1903C7.99989 1.00108 7.49723 0.951575 7.01227 1.04804C6.52732 1.1445 6.08186 1.3826 5.73223 1.73223C5.3826 2.08187 5.1445 2.52732 5.04804 3.01228C4.95157 3.49723 5.00108 3.99989 5.1903 4.45671C5.37952 4.91352 5.69995 5.30397 6.11107 5.57867C6.5222 5.85338 7.00555 6 7.5 6H10ZM3 10H17H3ZM3 10C2.46957 10 1.96086 9.78929 1.58579 9.41421C1.21071 9.03914 1 8.53043 1 8C1 7.46957 1.21071 6.96086 1.58579 6.58579C1.96086 6.21072 2.46957 6 3 6H17C17.5304 6 18.0391 6.21072 18.4142 6.58579C18.7893 6.96086 19 7.46957 19 8C19 8.53043 18.7893 9.03914 18.4142 9.41421C18.0391 9.78929 17.5304 10 17 10H3Z" stroke="#52525B" stroke-width="2" stroke-linecap="round" stroke-linejoin="round"/>
</svg>
