<svg width="24" height="24" viewBox="0 0 24 24" fill="none" xmlns="http://www.w3.org/2000/svg">
<path fill-rule="evenodd" clip-rule="evenodd" d="M6.98301 4.21262C7.76049 2.99223 9.38009 2.63317 10.6005 3.41065C11.0566 3.70123 11.5816 4.23561 12.0002 4.8134C12.4188 4.23561 12.9439 3.70123 13.4 3.41065C14.6204 2.63317 16.2399 2.99223 17.0174 4.21262C17.5655 5.07286 17.5488 6.13144 17.0638 6.95362H18.5806C20.1929 6.95362 21.5 8.26069 21.5 9.87303V10.7027C21.5 11.3691 21.2284 11.972 20.79 12.4069V16.8351C20.79 19.1263 18.9326 20.9837 16.6414 20.9837H7.35861C5.06739 20.9837 3.20998 19.1263 3.20998 16.8351V12.4069C2.77153 11.972 2.5 11.3691 2.5 10.7027V9.87303C2.5 8.26069 3.80707 6.95362 5.41941 6.95362H6.93663C6.45165 6.13144 6.43498 5.07286 6.98301 4.21262ZM11.1531 6.86928C11.1504 6.84368 11.1447 6.80883 11.1334 6.76307C11.0887 6.58248 10.9805 6.34097 10.8084 6.06665C10.4559 5.50447 9.97047 5.01331 9.69235 4.83613C9.25923 4.5602 8.68442 4.68763 8.40849 5.12076C8.13256 5.55388 8.25999 6.12868 8.69312 6.40461C8.97123 6.5818 9.62153 6.81418 10.28 6.8961C10.6013 6.93608 10.866 6.93211 11.0485 6.89628C11.0948 6.8872 11.1288 6.87763 11.1531 6.86928ZM12.8474 6.86928C12.8717 6.87763 12.9057 6.8872 12.952 6.89628C13.1345 6.93211 13.3991 6.93608 13.7204 6.8961C14.3789 6.81418 15.0292 6.5818 15.3074 6.40461C15.7404 6.12868 15.8679 5.55388 15.592 5.12076C15.3161 4.68763 14.7412 4.5602 14.3082 4.83613C14.03 5.01331 13.5445 5.50447 13.192 6.06665C13.02 6.34097 12.9117 6.58248 12.8671 6.76307C12.8557 6.80883 12.8501 6.84368 12.8474 6.86928ZM19.0998 12.8978H12.845V19.2935H16.6414C17.9991 19.2935 19.0998 18.1929 19.0998 16.8351V13.1029V12.8978ZM11.1549 19.2935V12.8978H4.90016V13.1029V16.8351C4.90016 18.1929 6.00085 19.2935 7.35861 19.2935H11.1549ZM19.599 11.2076H12.845V8.64476H11.1549V11.2076H4.40094C4.27081 11.0789 4.19018 10.9002 4.19018 10.7027V9.87303C4.19018 9.19415 4.74052 8.6438 5.41941 8.6438H18.5806C19.2594 8.6438 19.8098 9.19415 19.8098 9.87303V10.7027C19.8098 10.9002 19.7291 11.0789 19.599 11.2076Z" fill="#292D32"/>
</svg>
