<svg width="24" height="24" viewBox="0 0 24 24" fill="none" xmlns="http://www.w3.org/2000/svg">
  <path fill-rule="evenodd" clip-rule="evenodd"
    d="M12.0002 2.41667C9.62627 2.4179 7.33015 3.25872 5.52241 4.78877C3.71469 6.31883 2.51327 8.43834 2.13297 10.7683C1.75268 13.0983 2.21829 15.4868 3.44658 17.5068C4.67487 19.5268 6.58573 21.0465 8.83748 21.7941C9.33423 21.8863 9.52135 21.5785 9.52135 21.3167C9.52135 21.0549 9.5114 20.2958 9.5081 19.466C6.72619 20.067 6.13834 18.2921 6.13834 18.2921C5.68462 17.1395 5.02888 16.8366 5.02888 16.8366C4.12145 16.2208 5.09678 16.2323 5.09678 16.2323C6.10192 16.3031 6.63015 17.2581 6.63015 17.2581C7.52102 18.7778 8.96994 18.3382 9.53956 18.0813C9.62898 17.4375 9.88898 16.9996 10.1754 16.751C7.95323 16.5007 5.61839 15.6478 5.61839 11.8378C5.60461 10.8498 5.97337 9.89421 6.64835 9.16892C6.54569 8.91863 6.20294 7.90771 6.74606 6.53454C6.74606 6.53454 7.5856 6.26779 9.49652 7.55371C11.1356 7.108 12.8649 7.108 14.504 7.55371C16.4132 6.26779 17.2511 6.53454 17.2511 6.53454C17.7959 7.90442 17.4531 8.91534 17.3505 9.16892C18.0276 9.89434 18.3971 10.8515 18.3821 11.8411C18.3821 15.6593 16.0423 16.5007 13.8168 16.746C14.1744 17.0556 14.494 17.6598 14.494 18.5884C14.494 19.9188 14.4824 20.989 14.4824 21.3167C14.4824 21.5818 14.6629 21.8913 15.1696 21.7941C17.4216 21.0464 19.3327 19.5264 20.5609 17.5061C21.7892 15.4858 22.2546 13.0969 21.8739 10.7667C21.4931 8.4365 20.2911 6.31696 18.4828 4.78717C16.6745 3.25738 14.3778 2.41712 12.0036 2.41667H12.0002Z"
    fill="black" />
  <path
    d="M5.78705 16.6933C5.76552 16.7428 5.68604 16.7575 5.62146 16.723C5.55688 16.6884 5.50886 16.6242 5.53205 16.5731C5.55523 16.5221 5.63305 16.5089 5.69764 16.5435C5.76222 16.5781 5.81189 16.644 5.78705 16.6933Z"
    fill="black" />
  <path
    d="M6.1928 17.1428C6.1585 17.16 6.11927 17.1648 6.08181 17.1564C6.04435 17.148 6.01101 17.1269 5.98746 17.0967C5.92288 17.0276 5.90963 16.9321 5.95931 16.8893C6.00898 16.8465 6.09841 16.8662 6.16299 16.9354C6.22755 17.0045 6.24247 17.1 6.1928 17.1428Z"
    fill="black" />
  <path
    d="M6.58693 17.7141C6.52564 17.757 6.42135 17.7141 6.36339 17.6285C6.34735 17.6132 6.3346 17.5948 6.32589 17.5744C6.31718 17.554 6.31268 17.5321 6.31268 17.51C6.31268 17.4878 6.31718 17.466 6.32589 17.4456C6.3346 17.4252 6.34735 17.4068 6.36339 17.3914C6.42464 17.3503 6.52897 17.3914 6.58693 17.4754C6.64489 17.5594 6.64656 17.6713 6.58693 17.7141Z"
    fill="black" />
  <path
    d="M7.12174 18.2674C7.06711 18.3283 6.95615 18.3118 6.86507 18.2295C6.77399 18.1472 6.75249 18.0352 6.80711 17.976C6.86178 17.9167 6.9727 17.9331 7.06711 18.0138C7.16149 18.0945 7.1797 18.2081 7.12174 18.2674Z"
    fill="black" />
  <path
    d="M7.87184 18.5901C7.847 18.6675 7.73442 18.702 7.6218 18.6691C7.50921 18.6362 7.43471 18.544 7.45621 18.4649C7.47775 18.3859 7.592 18.3497 7.70625 18.3859C7.8205 18.4221 7.89338 18.5094 7.87184 18.5901Z"
    fill="black" />
  <path
    d="M8.68992 18.646C8.68992 18.7268 8.59717 18.7959 8.47796 18.7975C8.35871 18.7992 8.26105 18.7333 8.26105 18.6526C8.26105 18.572 8.35376 18.5028 8.47296 18.5012C8.59221 18.4995 8.68992 18.5638 8.68992 18.646Z"
    fill="black" />
  <path
    d="M9.45161 18.5193C9.46653 18.6 9.38369 18.6839 9.26448 18.7037C9.14528 18.7235 9.04094 18.6757 9.02603 18.5967C9.01115 18.5176 9.09723 18.432 9.21315 18.4106C9.32907 18.3892 9.43669 18.4386 9.45161 18.5193Z"
    fill="black" />
</svg>