<svg width="20" height="20" viewBox="0 0 20 20" fill="none" xmlns="http://www.w3.org/2000/svg">
  <path
    d="M9.99983 2C5.58683 2 2 5.58692 2 9.99995C2 14.3332 5.46036 17.867 9.76373 17.9931C9.84216 18.0009 9.91967 18 9.9998 18C10.0799 18 10.1574 18 10.2359 17.9931C14.5394 17.867 18 14.3335 18 9.99995C18 5.58688 14.413 2 10.0002 2H9.99983ZM9.54845 2.96523C9.55062 2.96461 9.55326 2.96585 9.55543 2.96523V5.99985H7.26381C7.40006 5.5841 7.55693 5.19831 7.72916 4.85403C8.25169 3.8088 8.89528 3.16999 9.54864 2.96507L9.54845 2.96523ZM10.4442 2.96523C11.0996 3.16783 11.7463 3.80554 12.2705 4.85419C12.4426 5.19846 12.5994 5.58426 12.7358 6.00001H10.4442V2.96523ZM7.68048 3.27773C7.40053 3.62139 7.15097 4.01729 6.93057 4.45828C6.69884 4.92177 6.50026 5.44414 6.33332 6.00001H4.12511C4.97891 4.74847 6.22094 3.78042 7.68068 3.27773H7.68048ZM12.3193 3.27773C13.779 3.78042 15.0209 4.74831 15.8748 6.00001H13.6666C13.4998 5.44414 13.3011 4.92177 13.0694 4.45828C12.8488 4.01729 12.5992 3.62138 12.3195 3.27773H12.3193ZM3.60437 6.88882H6.10432C5.92358 7.71718 5.81833 8.61345 5.79183 9.55542H2.90296C2.96217 8.6046 3.20878 7.70135 3.60437 6.88882ZM7.02105 6.88882H9.55572V9.55542H6.68082C6.70996 8.60241 6.82854 7.70322 7.02105 6.88882H7.02105ZM10.4445 6.88882H12.9792C13.1717 7.70322 13.2903 8.60245 13.3194 9.55542H10.4445L10.4445 6.88882ZM13.8959 6.88882H16.3959C16.7914 7.70151 17.0381 8.6046 17.0973 9.55542H14.2084C14.1819 8.61345 14.0766 7.71718 13.8959 6.88882V6.88882ZM2.90327 10.4444H5.79214C5.81834 11.3853 5.92452 12.2835 6.10464 13.111H3.5977C3.20368 12.2986 2.96157 11.3945 2.90327 10.4444ZM6.68093 10.4444H9.55584V13.111H7.02117C6.82865 12.2982 6.71007 11.397 6.68093 10.4444H6.68093ZM10.4448 10.4444H13.3197C13.2906 11.397 13.172 12.2983 12.9795 13.111H10.4448L10.4448 10.4444ZM14.2087 10.4444H17.0976C17.0393 11.3945 16.7972 12.2987 16.4032 13.111H13.8962C14.0763 12.2835 14.1825 11.3853 14.2087 10.4444V10.4444ZM4.11885 14H6.33404C6.50129 14.5582 6.69861 15.0764 6.93129 15.5418C7.15015 15.9795 7.39691 16.3804 7.67441 16.7223C6.21456 16.2181 4.97172 15.2536 4.11885 14V14ZM7.26453 14H9.55615V17.0416C8.90077 16.8373 8.25412 16.1875 7.72988 15.1389C7.55782 14.7946 7.40096 14.415 7.26453 14ZM10.4449 14H12.7366C12.6003 14.415 12.4434 14.7948 12.2712 15.1389C11.747 16.1875 11.1003 16.8373 10.4449 17.0416V14ZM13.6671 14H15.8823C15.0296 15.2536 13.7867 16.2181 12.3267 16.7223C12.6042 16.3804 12.8509 15.9795 13.0698 15.5418C13.3025 15.0766 13.4998 14.5584 13.6671 14Z"
    fill="white" />
</svg>