<svg fill="none" height="19" viewBox="0 0 17 19" width="17" xmlns="http://www.w3.org/2000/svg" xmlns:xlink="http://www.w3.org/1999/xlink"><linearGradient id="a" gradientUnits="userSpaceOnUse" x1="46.4621" x2="2.53305" y1="-10.6406" y2="-26.0386"><stop offset="0" stop-color="#f4ce5e"/><stop offset=".0211045" stop-color="#ffcb6c"/><stop offset=".0494776" stop-color="#fdd764"/><stop offset=".124157" stop-color="#ffd24d"/><stop offset=".15459" stop-color="#e6a130"/><stop offset=".17186" stop-color="#edaf38"/><stop offset=".191278" stop-color="#ffe956"/><stop offset=".25977" stop-color="#fed749"/><stop offset=".25987" stop-color="#ffec92"/><stop offset=".5625" stop-color="#e4973c"/><stop offset=".65625" stop-color="#f1a819"/><stop offset=".729167" stop-color="#fbc73f"/><stop offset=".84375" stop-color="#f5e794"/></linearGradient><path d="m7.31718.84042c.91762-.52011 2.04097-.52011 2.95862 0l2.5545 1.44787 2.5311 1.48831c.9092.53463 1.4709 1.50748 1.4793 2.56222l.0233 2.93617-.0233 2.93621c-.0084 1.0547-.5701 2.0276-1.4793 2.5622l-2.5311 1.4883-2.5545 1.4479c-.91765.5201-2.041.5201-2.95862 0l-2.55447-1.4479-2.53114-1.4883c-.90924-.5346-1.470913-1.5075-1.479297-2.5622l-.023341-2.93621.023341-2.93617c.008384-1.05474.570057-2.02759 1.479297-2.56222l2.53114-1.48831z" fill="url(#a)"/></svg>