<svg width="24" height="24" viewBox="0 0 24 24" fill="none" xmlns="http://www.w3.org/2000/svg">
  <path
    d="M21.9999 12.23C21.9999 11.5503 21.9437 10.8668 21.8237 10.1981H12.2014V14.0488H17.7117C17.483 15.2907 16.7483 16.3893 15.6725 17.0874V19.586H18.9599C20.8904 17.8444 21.9999 15.2723 21.9999 12.23Z"
    fill="#4285F4" />
  <path
    d="M12.2015 22C14.9529 22 17.2732 21.1145 18.9637 19.586L15.6763 17.0874C14.7617 17.6974 13.5809 18.0427 12.2053 18.0427C9.54382 18.0427 7.28725 16.2828 6.47759 13.9165H3.08521V16.4922C4.817 19.8689 8.34434 22 12.2015 22Z"
    fill="#34A853" />
  <path
    d="M6.47382 13.9165C6.04648 12.6746 6.04648 11.3298 6.47382 10.0879V7.51215H3.08518C1.63827 10.3377 1.63827 13.6667 3.08518 16.4922L6.47382 13.9165Z"
    fill="#FBBC04" />
  <path
    d="M12.2015 5.95792C13.6559 5.93587 15.0616 6.47231 16.1149 7.45703L19.0274 4.60209C17.1832 2.90456 14.7355 1.97128 12.2015 2.00067C8.34429 2.00067 4.817 4.13178 3.08521 7.51215L6.47381 10.0879C7.27973 7.71793 9.54008 5.95792 12.2015 5.95792Z"
    fill="#EA4335" />
</svg>