<svg width="25" height="22" viewBox="0 0 25 22" fill="none" xmlns="http://www.w3.org/2000/svg">
  <path fill-rule="evenodd" clip-rule="evenodd"
    d="M4.54052 1H20.4595C22.1387 1 23.5 2.38007 23.5 4.08247V17.9175C23.5 19.6199 22.1387 21 20.4595 21H4.54052C2.86129 21 1.5 19.6199 1.5 17.9175V4.08247C1.5 2.38007 2.86129 1 4.54052 1ZM19.4091 5.37456L19.3008 4.29788L18.236 4.49064L14.8601 5.10178L13.8761 5.27992L14.2324 7.24793L15.2164 7.0698L16.0934 6.91103L12.6757 11.4875L10.3896 9.4481L9.59312 8.73755L8.93594 9.57861L4.49154 15.2665L3.87584 16.0545L5.45179 17.2859L6.06749 16.4979L9.8547 11.6511L12.1584 13.7062L12.9726 14.4325L13.6254 13.5584L17.6766 8.13356L17.7636 8.99925L17.8637 9.99423L19.8537 9.79405L19.7536 8.79907L19.4091 5.37456Z"
    fill="black" />
</svg>