<svg width="24" height="24" viewBox="0 0 24 24" fill="none" >
<path fill-rule="evenodd" clip-rule="evenodd" d="M14.1625 3.66305C14.8555 3.37595 15.5981 3.22817 16.3482 3.22817C17.0982 3.22817 17.8409 3.37595 18.5338 3.66305C19.2265 3.9501 19.856 4.37081 20.3862 4.90115C20.9165 5.43132 21.3375 6.06105 21.6245 6.75383C21.9117 7.44673 22.0594 8.18941 22.0594 8.93944C22.0594 9.68947 21.9117 10.4321 21.6245 11.1251C21.3375 11.8179 20.9167 12.4474 20.3863 12.9776L12.6212 20.7427C12.2781 21.0858 11.7219 21.0858 11.3789 20.7427L3.61376 12.9776C2.54278 11.9066 1.94111 10.454 1.94111 8.93944C1.94111 7.42484 2.54278 5.97228 3.61376 4.9013C4.68474 3.83031 6.13731 3.22864 7.65191 3.22864C9.1665 3.22864 10.6191 3.83031 11.69 4.9013L12 5.21128L12.3099 4.90144C12.8401 4.37104 13.4697 3.95013 14.1625 3.66305Z" fill="#18181B"/>
</svg>
