<svg width="24" height="24" viewBox="0 0 24 24" fill="none" >
<path fill-rule="evenodd" clip-rule="evenodd" d="M14.1625 3.66305C14.8555 3.37595 15.5981 3.22817 16.3482 3.22817C17.0982 3.22817 17.8409 3.37595 18.5338 3.66305C19.2265 3.9501 19.856 4.37081 20.3862 4.90115C20.9165 5.43132 21.3375 6.06105 21.6245 6.75383C21.9117 7.44673 22.0594 8.18941 22.0594 8.93944C22.0594 9.68947 21.9117 10.4321 21.6245 11.1251C21.3375 11.8179 20.9167 12.4474 20.3863 12.9776C20.3863 12.9776 20.3864 12.9775 20.3863 12.9776L12.6212 20.7427C12.2781 21.0858 11.7219 21.0858 11.3789 20.7427L3.61376 12.9776C2.54278 11.9066 1.94111 10.454 1.94111 8.93944C1.94111 7.42484 2.54278 5.97228 3.61376 4.9013C4.68474 3.83031 6.13731 3.22864 7.65191 3.22864C9.1665 3.22864 10.6191 3.83031 11.69 4.9013L12 5.21128L12.3099 4.90144C12.3099 4.90139 12.3098 4.90149 12.3099 4.90144C12.8401 4.37104 13.4697 3.95013 14.1625 3.66305ZM16.3482 4.98499C15.8289 4.98499 15.3147 5.0873 14.835 5.28606C14.3553 5.48483 13.9195 5.77616 13.5524 6.14341L12.6212 7.07467C12.2781 7.41771 11.7219 7.41771 11.3789 7.07467L10.4478 6.14355C9.70627 5.40204 8.70057 4.98546 7.65191 4.98546C6.60325 4.98546 5.59754 5.40204 4.85602 6.14355C4.11451 6.88507 3.69793 7.89078 3.69793 8.93944C3.69793 9.9881 4.11451 10.9938 4.85602 11.7353L12 18.8793L19.144 11.7353C19.5113 11.3682 19.8028 10.9323 20.0015 10.4526C20.2003 9.97285 20.3026 9.45869 20.3026 8.93944C20.3026 8.42019 20.2003 7.90602 20.0015 7.42632C19.8028 6.94662 19.5114 6.51078 19.1442 6.1437C18.7771 5.77645 18.341 5.48483 17.8613 5.28606C17.3816 5.0873 16.8674 4.98499 16.3482 4.98499Z" fill="#18181B"/>
</svg>
