<svg width="24" height="24" viewBox="0 0 24 24" fill="none" >
<path fill-rule="evenodd" clip-rule="evenodd" d="M5 22C3.34315 22 2 20.6569 2 19V10.6422C2 9.68897 2.453 8.79248 3.2204 8.22703L10.2204 3.06913C11.2787 2.28935 12.7213 2.28935 13.7796 3.06913L20.7796 8.22703C21.547 8.79248 22 9.68897 22 10.6422V19C22 20.6568 20.6569 22 19 22H5ZM11.4068 4.67924C11.7596 4.41932 12.2404 4.41932 12.5932 4.67924L19.5932 9.83714C19.849 10.0256 20 10.3245 20 10.6422V19C20 19.5523 19.5523 20 19 20H16V15C16 13.3431 14.6569 12 13 12H11C9.34315 12 8 13.3431 8 15V20H5C4.44772 20 4 19.5523 4 19V10.6422C4 10.3245 4.151 10.0256 4.4068 9.83714L11.4068 4.67924ZM10 20H14V15C14 14.4477 13.5523 14 13 14H11C10.4477 14 10 14.4477 10 15V20Z" fill="#18181B"/>
</svg>
