<svg width="24" height="24" viewBox="0 0 24 24" fill="none" >
<path fill-rule="evenodd" clip-rule="evenodd" d="M7.467 0C8.569 0.018 13.022 2.549 13.853 8.558C14.758 7.669 15.262 4.894 15 3.715C18.952 6.684 21 10.496 21 14.749C21 19.843 17.57 24 12.037 24C6.309 24 3 20.247 3 15.724C3 9.464 8.052 8.104 7.467 0ZM10.729 19.743C9.98 20.591 10.361 21.688 11.492 21.788C12.527 21.881 13.251 20.976 13.524 19.996C13.797 19.018 13.614 17.976 13.155 17.103C12.157 18.618 11.635 18.743 10.729 19.743Z" fill="#18181B"/>
</svg>
