<?xml version="1.0" encoding="UTF-8"?>
<svg xmlns="http://www.w3.org/2000/svg" xmlns:xlink="http://www.w3.org/1999/xlink" width="14pt" height="14pt" viewBox="0 0 14 14" version="1.1">
<defs>
<clipPath id="clip1">
  <path d="M 8.964844 7 L 13.859375 2.105469 C 14.046875 1.917969 14.046875 1.617188 13.859375 1.429688 L 12.570312 0.140625 C 12.382812 -0.046875 12.082031 -0.046875 11.894531 0.140625 L 7 5.035156 L 2.105469 0.140625 C 1.917969 -0.046875 1.617188 -0.046875 1.429688 0.140625 L 0.140625 1.429688 C -0.046875 1.617188 -0.046875 1.917969 0.140625 2.105469 L 5.035156 7 L 0.140625 11.894531 C -0.046875 12.082031 -0.046875 12.382812 0.140625 12.570312 L 1.429688 13.859375 C 1.617188 14.046875 1.917969 14.046875 2.105469 13.859375 L 7 8.964844 L 11.894531 13.859375 C 12.082031 14.046875 12.382812 14.046875 12.570312 13.859375 L 13.859375 12.570312 C 14.046875 12.382812 14.046875 12.082031 13.859375 11.894531 Z M 8.964844 7 "/>
</clipPath>
</defs>
<g id="surface1">
<g clip-path="url(#clip1)" clip-rule="nonzero">
<rect x="0" y="0" width="14" height="14" style="fill:rgb(0%,0%,0%);fill-opacity:1;stroke:none;"/>
</g>
</g>
</svg>
