<svg width="24" height="24" viewBox="0 0 24 24" fill="none" xmlns="http://www.w3.org/2000/svg">
<g clip-path="url(#clip0_2125_20)">
<path d="M11.9587 2C7.81158 2 6.59869 2.00428 6.36293 2.02384C5.51185 2.09458 4.98227 2.22858 4.40532 2.51584C3.96067 2.73663 3.61002 2.99256 3.26393 3.35132C2.63365 4.0056 2.25166 4.81052 2.11338 5.76733C2.04615 6.23182 2.02659 6.32655 2.02262 8.69916C2.02109 9.49003 2.02262 10.5309 2.02262 11.927C2.02262 16.0708 2.02721 17.2824 2.04707 17.5178C2.11583 18.346 2.2457 18.8669 2.52073 19.4369C3.04635 20.5278 4.05021 21.3469 5.23285 21.6524C5.64235 21.7578 6.09461 21.8158 6.67524 21.8434C6.92124 21.854 9.42861 21.8618 11.9375 21.8618C14.4464 21.8618 16.9554 21.8587 17.1952 21.8464C17.8675 21.8148 18.2579 21.7624 18.6896 21.6509C19.276 21.5004 19.8224 21.2239 20.2909 20.8404C20.7593 20.457 21.1384 19.9758 21.4016 19.4307C21.6713 18.8746 21.8081 18.3337 21.87 17.5488C21.8834 17.3776 21.8891 14.6492 21.8891 11.9244C21.8891 9.1991 21.883 6.47569 21.8696 6.30455C21.8069 5.50696 21.6702 4.97064 21.3918 4.40378C21.1633 3.93973 20.9097 3.59319 20.5415 3.23887C19.8843 2.61118 19.0807 2.22919 18.1228 2.09107C17.6588 2.02399 17.5663 2.00413 15.1919 2H11.9587Z" fill="url(#paint0_radial_2125_20)"/>
<path d="M11.9587 2C7.81158 2 6.59869 2.00428 6.36293 2.02384C5.51185 2.09458 4.98227 2.22858 4.40532 2.51584C3.96067 2.73663 3.61002 2.99256 3.26393 3.35132C2.63365 4.0056 2.25166 4.81052 2.11338 5.76733C2.04615 6.23182 2.02659 6.32655 2.02262 8.69916C2.02109 9.49003 2.02262 10.5309 2.02262 11.927C2.02262 16.0708 2.02721 17.2824 2.04707 17.5178C2.11583 18.346 2.2457 18.8669 2.52073 19.4369C3.04635 20.5278 4.05021 21.3469 5.23285 21.6524C5.64235 21.7578 6.09461 21.8158 6.67524 21.8434C6.92124 21.854 9.42861 21.8618 11.9375 21.8618C14.4464 21.8618 16.9554 21.8587 17.1952 21.8464C17.8675 21.8148 18.2579 21.7624 18.6896 21.6509C19.276 21.5004 19.8224 21.2239 20.2909 20.8404C20.7593 20.457 21.1384 19.9758 21.4016 19.4307C21.6713 18.8746 21.8081 18.3337 21.87 17.5488C21.8834 17.3776 21.8891 14.6492 21.8891 11.9244C21.8891 9.1991 21.883 6.47569 21.8696 6.30455C21.8069 5.50696 21.6702 4.97064 21.3918 4.40378C21.1633 3.93973 20.9097 3.59319 20.5415 3.23887C19.8843 2.61118 19.0807 2.22919 18.1228 2.09107C17.6588 2.02399 17.5663 2.00413 15.1919 2H11.9587Z" fill="url(#paint1_radial_2125_20)"/>
<path d="M11.9542 4.59752C9.96234 4.59752 9.71236 4.60624 8.93004 4.64183C8.14927 4.67758 7.61631 4.80119 7.14999 4.98256C6.66761 5.16989 6.25842 5.42047 5.85076 5.82828C5.44281 6.23595 5.19222 6.64513 5.00428 7.12735C4.82245 7.59383 4.69869 8.12694 4.66355 8.90741C4.62872 9.68973 4.61954 9.93986 4.61954 11.9317C4.61954 13.9235 4.6284 14.1727 4.66385 14.9551C4.69976 15.7358 4.82337 16.2688 5.00458 16.7351C5.19206 17.2175 5.44266 17.6267 5.85046 18.0343C6.25797 18.4422 6.66715 18.6936 7.14922 18.8809C7.61587 19.0622 8.14896 19.1858 8.9296 19.2216C9.71191 19.2572 9.96173 19.2658 11.9534 19.2658C13.9454 19.2658 14.1946 19.2572 14.9769 19.2216C15.7577 19.1858 16.2913 19.0622 16.7579 18.8809C17.2402 18.6936 17.6487 18.4422 18.0563 18.0343C18.4642 17.6267 18.7148 17.2175 18.9027 16.7353C19.083 16.2688 19.2067 15.7357 19.2434 14.9552C19.2785 14.1729 19.2878 13.9235 19.2878 11.9317C19.2878 9.93986 19.2785 9.68989 19.2434 8.90758C19.2067 8.12679 19.083 7.59383 18.9027 7.1275C18.7148 6.64513 18.4642 6.23595 18.0563 5.82828C17.6482 5.42032 17.2403 5.16974 16.7574 4.98256C16.2899 4.80119 15.7566 4.67758 14.9759 4.64183C14.1936 4.60624 13.9445 4.59752 11.952 4.59752H11.9542ZM11.2962 5.91921C11.4915 5.91889 11.7094 5.91921 11.9542 5.91921C13.9124 5.91921 14.1445 5.92624 14.9178 5.96137C15.6329 5.99407 16.021 6.11356 16.2795 6.21394C16.6218 6.34688 16.8658 6.50579 17.1223 6.76247C17.379 7.01918 17.5379 7.26365 17.6712 7.60591C17.7715 7.86413 17.8912 8.25224 17.9237 8.96731C17.9588 9.74046 17.9666 9.97271 17.9666 11.93C17.9666 13.8873 17.9588 14.1196 17.9237 14.8927C17.8911 15.6078 17.7715 15.9959 17.6712 16.2541C17.5382 16.5964 17.379 16.8401 17.1223 17.0967C16.8656 17.3533 16.6219 17.5122 16.2795 17.6452C16.0213 17.746 15.6329 17.8652 14.9178 17.8979C14.1447 17.933 13.9124 17.9407 11.9542 17.9407C9.99581 17.9407 9.7637 17.933 8.99055 17.8979C8.27548 17.8649 7.88737 17.7454 7.62869 17.6451C7.28643 17.5121 7.04196 17.3531 6.78527 17.0964C6.52857 16.8398 6.36966 16.5959 6.23642 16.2535C6.13603 15.9953 6.0164 15.6072 5.98385 14.8921C5.9487 14.119 5.94169 13.8867 5.94169 11.9282C5.94169 9.96965 5.9487 9.73862 5.98385 8.96549C6.01655 8.2504 6.13603 7.8623 6.23642 7.60377C6.36936 7.2615 6.52857 7.01704 6.78527 6.76034C7.04196 6.50364 7.28643 6.34474 7.62869 6.2115C7.88722 6.11065 8.27548 5.99147 8.99055 5.95862C9.66713 5.92806 9.92933 5.91889 11.2962 5.91737V5.91921ZM15.8691 7.13698C15.695 7.13698 15.5249 7.18861 15.3801 7.28533C15.2354 7.38204 15.1226 7.51952 15.056 7.68035C14.9894 7.84119 14.9719 8.01816 15.0059 8.18889C15.0399 8.35962 15.1238 8.51644 15.2469 8.63952C15.37 8.76259 15.5269 8.84638 15.6976 8.88031C15.8683 8.91424 16.0453 8.89676 16.2061 8.8301C16.3669 8.76344 16.5044 8.65059 16.601 8.50582C16.6977 8.36104 16.7493 8.19086 16.7492 8.01677C16.7492 7.53089 16.355 7.13667 15.8691 7.13667V7.13698ZM11.9542 8.1653C9.87418 8.1653 8.18778 9.8517 8.18778 11.9317C8.18778 14.0117 9.87418 15.6973 11.9542 15.6973C14.0342 15.6973 15.7201 14.0117 15.7201 11.9317C15.7201 9.8517 14.0342 8.1653 11.9542 8.1653ZM11.9542 9.48697C13.3043 9.48697 14.3989 10.5814 14.3989 11.9317C14.3989 13.2818 13.3043 14.3764 11.9542 14.3764C10.6039 14.3764 9.50945 13.2818 9.50945 11.9317C9.50945 10.5814 10.6039 9.48697 11.9542 9.48697Z" fill="white"/>
</g>
<defs>
<radialGradient id="paint0_radial_2125_20" cx="0" cy="0" r="1" gradientUnits="userSpaceOnUse" gradientTransform="translate(7.29918 23.3915) rotate(-90) scale(19.6845 18.313)">
<stop stop-color="#FFDD55"/>
<stop offset="0.1" stop-color="#FFDD55"/>
<stop offset="0.5" stop-color="#FF543E"/>
<stop offset="1" stop-color="#C837AB"/>
</radialGradient>
<radialGradient id="paint1_radial_2125_20" cx="0" cy="0" r="1" gradientUnits="userSpaceOnUse" gradientTransform="translate(-1.30591 3.4308) rotate(78.6776) scale(8.79912 36.2794)">
<stop stop-color="#3771C8"/>
<stop offset="0.128" stop-color="#3771C8"/>
<stop offset="1" stop-color="#6600FF" stop-opacity="0"/>
</radialGradient>
<clipPath id="clip0_2125_20">
<rect width="20" height="20" fill="white" transform="translate(2 2)"/>
</clipPath>
</defs>
</svg>
