<svg width="20" height="20" viewBox="0 0 20 20" fill="none" >
<path d="M0 10C0 4.47715 4.47715 0 10 0C15.5228 0 20 4.47715 20 10C20 15.5228 15.5228 20 10 20C4.47715 20 0 15.5228 0 10Z" fill="#EF4444"/>
<path fill-rule="evenodd" clip-rule="evenodd" d="M11.0812 5.83151C11.4276 5.68796 11.799 5.61407 12.174 5.61407C12.549 5.61407 12.9203 5.68796 13.2668 5.83151C13.6132 5.97504 13.9279 6.18539 14.193 6.45056C14.4582 6.71565 14.6687 7.03051 14.8122 7.3769C14.9557 7.72335 15.0296 8.09469 15.0296 8.46971C15.0296 8.84472 14.9557 9.21606 14.8122 9.56251C14.6686 9.90893 14.4583 10.2237 14.1931 10.4888L10.3105 14.3713C10.139 14.5429 9.86088 14.5429 9.68936 14.3713L5.80679 10.4888C5.27129 9.95329 4.97046 9.22701 4.97046 8.46971C4.97046 7.71241 5.27129 6.98613 5.80679 6.45064C6.34228 5.91515 7.06856 5.61431 7.82586 5.61431C8.58316 5.61431 9.30944 5.91515 9.84493 6.45064L9.99992 6.60563L10.1548 6.45071C10.4199 6.18551 10.7348 5.97505 11.0812 5.83151Z" fill="white"/>
</svg>
