<svg width="24" height="24" viewBox="0 0 24 24" fill="none" xmlns="http://www.w3.org/2000/svg">
  <path fill-rule="evenodd" clip-rule="evenodd"
    d="M16.5691 2.00021C15.1303 1.9877 13.7441 2.54083 12.7091 3.54046L12.709 3.54039L12.6996 3.54972L11.1265 5.11371C10.7683 5.46985 10.7666 6.04895 11.1227 6.40717C11.4789 6.76539 12.058 6.76708 12.4162 6.41094L13.9844 4.85187C14.6739 4.18819 15.5961 3.82105 16.5532 3.82937C17.5125 3.83771 18.4301 4.22246 19.1084 4.90077C19.7867 5.57908 20.1714 6.49667 20.1798 7.4559C20.1881 8.41264 19.8213 9.33445 19.1582 10.0239L16.4202 12.7618L16.4201 12.7619C16.0492 13.1329 15.6029 13.4198 15.1114 13.6032C14.6199 13.7865 14.0947 13.862 13.5714 13.8246C13.0481 13.7871 12.539 13.6375 12.0787 13.386C11.6183 13.1345 11.2174 12.7869 10.9032 12.3668C10.6006 11.9623 10.0274 11.8797 9.62293 12.1822C9.21845 12.4848 9.13582 13.058 9.43838 13.4625C9.90972 14.0926 10.5111 14.614 11.2016 14.9913C11.8922 15.3685 12.6558 15.5929 13.4407 15.6491C14.2256 15.7053 15.0134 15.5921 15.7507 15.3171C16.4879 15.042 17.1574 14.6117 17.7137 14.0552L17.7138 14.0551L20.4576 11.3114L20.4687 11.3001C21.4683 10.2651 22.0214 8.87886 22.0089 7.44001C21.9964 6.00115 21.4193 4.62477 20.4018 3.60731C19.3844 2.58985 18.008 2.01271 16.5691 2.00021ZM10.5593 8.35089C9.77439 8.29468 8.98658 8.40793 8.2493 8.68295C7.51207 8.95796 6.8426 9.38829 6.2863 9.94477L6.28618 9.94488L3.54245 12.6886L3.53131 12.6999C2.53169 13.7349 1.97856 15.1211 1.99106 16.56C2.00356 17.9989 2.5807 19.3752 3.59816 20.3927C4.61562 21.4102 5.99201 21.9873 7.43086 21.9998C8.86972 22.0123 10.2559 21.4592 11.2909 20.4595L11.3022 20.4484L12.8662 18.8844C13.2234 18.5272 13.2234 17.9481 12.8662 17.591C12.5091 17.2338 11.93 17.2338 11.5728 17.591L10.0147 19.149C9.32529 19.8121 8.40348 20.179 7.44676 20.1706C6.48752 20.1623 5.56993 19.7775 4.89162 19.0992C4.21331 18.4209 3.82856 17.5033 3.82022 16.5441C3.81191 15.5874 4.17872 14.6656 4.84184 13.9761L7.57976 11.2382L7.57988 11.2381C7.95076 10.8671 8.3971 10.5802 8.88863 10.3968C9.38015 10.2135 9.90535 10.138 10.4286 10.1754C10.9519 10.2129 11.461 10.3625 11.9213 10.614C12.3817 10.8655 12.7826 11.2131 13.0968 11.6332C13.3994 12.0377 13.9726 12.1203 14.3771 11.8178C14.7816 11.5152 14.8642 10.942 14.5616 10.5376C14.0903 9.90742 13.4889 9.38603 12.7984 9.00875C12.1078 8.63146 11.3442 8.4071 10.5593 8.35089Z"
    fill="black" />
</svg>