<svg width="24" height="24" viewBox="0 0 24 24" fill="none" >
<path fill-rule="evenodd" clip-rule="evenodd" d="M16.9957 1.06666C15.4225 1.05299 13.9069 1.65776 12.7753 2.75071L12.765 2.76083L11.045 4.47083C10.6533 4.86021 10.6515 5.49338 11.0408 5.88504C11.4302 6.2767 12.0634 6.27855 12.455 5.88916L14.1696 4.18453C14.9235 3.4589 15.9318 3.05749 16.9783 3.06659C18.0271 3.0757 19.0304 3.49638 19.772 4.23801C20.5136 4.97964 20.9343 5.98289 20.9434 7.03168C20.9525 8.07773 20.5514 9.0856 19.8264 9.83937L16.8329 12.8329L16.8328 12.833C16.4273 13.2387 15.9392 13.5524 15.4018 13.7528C14.8644 13.9533 14.2902 14.0359 13.7181 13.9949C13.146 13.9539 12.5894 13.7904 12.086 13.5154C11.5827 13.2404 11.1443 12.8603 10.8008 12.401C10.47 11.9588 9.84327 11.8684 9.40102 12.1992C8.95877 12.53 8.86843 13.1567 9.19923 13.599C9.71458 14.2879 10.3721 14.858 11.1271 15.2705C11.8821 15.683 12.717 15.9283 13.5752 15.9898C14.4334 16.0512 15.2947 15.9274 16.1008 15.6267C16.907 15.326 17.639 14.8555 18.2472 14.247L21.2471 11.2471L21.2593 11.2347C22.3522 10.1031 22.957 8.58748 22.9433 7.0143C22.9297 5.44112 22.2986 3.93624 21.1862 2.8238C20.0738 1.71135 18.5689 1.08033 16.9957 1.06666ZM10.4248 8.01022C9.56661 7.94876 8.70526 8.07258 7.89915 8.37328C7.0931 8.67396 6.36113 9.14447 5.75289 9.75289L5.75277 9.75302L2.75289 12.7529L2.74071 12.7653C1.64776 13.8969 1.043 15.4125 1.05667 16.9857C1.07034 18.5589 1.70135 20.0637 2.8138 21.1762C3.92625 22.2886 5.43113 22.9197 7.00431 22.9333C8.57749 22.947 10.0931 22.3422 11.2247 21.2493L11.2371 21.2371L12.9471 19.5271C13.3376 19.1366 13.3376 18.5034 12.9471 18.1129C12.5566 17.7224 11.9234 17.7224 11.5329 18.1129L9.82937 19.8164C9.0756 20.5414 8.06773 20.9425 7.02168 20.9334C5.9729 20.9243 4.96965 20.5036 4.22802 19.762C3.48638 19.0204 3.06571 18.0171 3.05659 16.9683C3.0475 15.9223 3.44856 14.9144 4.17359 14.1606L7.16711 11.1671L7.16724 11.167C7.57274 10.7613 8.06075 10.4476 8.59816 10.2471C9.13557 10.0467 9.7098 9.96413 10.2819 10.0051C10.854 10.0461 11.4106 10.2096 11.914 10.4846C12.4173 10.7596 12.8557 11.1397 13.1992 11.599C13.53 12.0412 14.1567 12.1316 14.599 11.8008C15.0412 11.47 15.1316 10.8433 14.8008 10.401C14.2854 9.71206 13.6279 9.142 12.8729 8.72949C12.1179 8.31698 11.283 8.07168 10.4248 8.01022Z" fill="#18181B"/>
</svg>
