<svg width="125" height="28" viewBox="0 0 125 28" fill="none" xmlns="http://www.w3.org/2000/svg">
  <g clip-path="url(#clip0_2913_215)">
    <path d="M35.12 7.74999H31.41V1.79999H32.33V6.90999H35.12V7.74999Z" fill="white" />
    <path
      d="M36.21 1.93001C36.21 1.62001 36.45 1.39001 36.78 1.39001C37.11 1.39001 37.35 1.63001 37.35 1.93001C37.35 2.24001 37.11 2.47001 36.78 2.47001C36.45 2.47001 36.21 2.23001 36.21 1.93001ZM36.34 3.26001H37.22V7.75001H36.34V3.26001Z"
      fill="white" />
    <path
      d="M40.3001 3.17004C41.3101 3.17004 41.9701 3.64004 42.0601 4.43004H41.2101C41.1301 4.10004 40.8101 3.89004 40.3001 3.89004C39.8001 3.89004 39.4301 4.13004 39.4301 4.48004C39.4301 4.75004 39.6601 4.92004 40.1401 5.03004L40.8901 5.20004C41.7401 5.40004 42.1401 5.76004 42.1401 6.43004C42.1401 7.28004 41.3501 7.84004 40.2801 7.84004C39.2101 7.84004 38.5101 7.36004 38.4401 6.56004H39.3301C39.4401 6.91004 39.7701 7.12004 40.3101 7.12004C40.8601 7.12004 41.2601 6.87004 41.2601 6.51004C41.2601 6.24004 41.0501 6.07004 40.6001 5.96004L39.8201 5.78004C38.9701 5.58004 38.5701 5.19004 38.5701 4.52004C38.5601 3.73004 39.2901 3.17004 40.3001 3.17004Z"
      fill="white" />
    <path
      d="M44.5201 2.14001V3.28001H45.4901V4.03001H44.5201V6.34001C44.5201 6.81001 44.7101 7.02001 45.1601 7.02001C45.3001 7.02001 45.3701 7.01001 45.5001 7.00001V7.74001C45.3601 7.77001 45.1901 7.79001 45.0201 7.79001C44.0301 7.79001 43.6401 7.44001 43.6401 6.58001V4.04001H42.9301V3.29001H43.6401V2.14001H44.5201Z"
      fill="white" />
    <path
      d="M50.42 6.54004C50.22 7.35004 49.5 7.84004 48.47 7.84004C47.18 7.84004 46.39 6.96004 46.39 5.52004C46.39 4.08004 47.2 3.17004 48.46 3.17004C49.71 3.17004 50.47 4.02004 50.47 5.44004V5.75004H47.3V5.80004C47.33 6.59004 47.79 7.09004 48.5 7.09004C49.04 7.09004 49.4 6.90004 49.57 6.54004H50.42ZM47.3 5.09004H49.57C49.55 4.38004 49.12 3.93004 48.46 3.93004C47.81 3.93004 47.35 4.39004 47.3 5.09004Z"
      fill="white" />
    <path
      d="M51.67 3.26004H52.52V3.97004H52.59C52.81 3.47004 53.25 3.17004 53.93 3.17004C54.93 3.17004 55.49 3.77004 55.49 4.84004V7.75004H54.6V5.06004C54.6 4.34004 54.29 3.98004 53.63 3.98004C52.97 3.98004 52.56 4.42004 52.56 5.12004V7.75004H51.67V3.26004Z"
      fill="white" />
    <path
      d="M59.09 5.50004C59.09 4.05004 59.9 3.17004 61.21 3.17004C62.52 3.17004 63.33 4.05004 63.33 5.50004C63.33 6.96004 62.52 7.84004 61.21 7.84004C59.9 7.84004 59.09 6.96004 59.09 5.50004ZM62.42 5.50004C62.42 4.53004 61.98 3.96004 61.22 3.96004C60.45 3.96004 60.01 4.53004 60.01 5.50004C60.01 6.48004 60.44 7.05004 61.22 7.05004C61.98 7.05004 62.42 6.48004 62.42 5.50004Z"
      fill="white" />
    <path
      d="M64.53 3.26004H65.38V3.97004H65.45C65.67 3.47004 66.11 3.17004 66.79 3.17004C67.79 3.17004 68.35 3.77004 68.35 4.84004V7.75004H67.46V5.06004C67.46 4.34004 67.15 3.98004 66.49 3.98004C65.83 3.98004 65.42 4.42004 65.42 5.12004V7.75004H64.53V3.26004Z"
      fill="white" />
    <path
      d="M39.04 20.84H34.3L33.16 24.2H31.15L35.64 11.77H37.72L42.21 24.2H40.17L39.04 20.84ZM34.79 19.29H38.55L36.7 13.84H36.65L34.79 19.29Z"
      fill="white" />
    <path
      d="M51.9 19.67C51.9 22.49 50.39 24.29 48.12 24.29C46.83 24.29 45.8 23.71 45.27 22.71H45.23V27.2H43.37V15.14H45.17V16.65H45.2C45.72 15.68 46.82 15.05 48.09 15.05C50.38 15.04 51.9 16.86 51.9 19.67ZM49.99 19.67C49.99 17.84 49.04 16.63 47.6 16.63C46.18 16.63 45.22 17.86 45.22 19.67C45.22 21.5 46.18 22.72 47.6 22.72C49.04 22.72 49.99 21.52 49.99 19.67Z"
      fill="white" />
    <path
      d="M61.86 19.67C61.86 22.49 60.35 24.29 58.08 24.29C56.79 24.29 55.76 23.71 55.23 22.71H55.19V27.2H53.33V15.14H55.13V16.65H55.16C55.68 15.68 56.78 15.05 58.05 15.05C60.35 15.04 61.86 16.86 61.86 19.67ZM59.95 19.67C59.95 17.84 59 16.63 57.56 16.63C56.14 16.63 55.18 17.86 55.18 19.67C55.18 21.5 56.14 22.72 57.56 22.72C59 22.72 59.95 21.52 59.95 19.67Z"
      fill="white" />
    <path d="M63.36 11.77H65.22V24.2H63.36V11.77Z" fill="white" />
    <path
      d="M74.9 21.54C74.65 23.19 73.05 24.31 71 24.31C68.37 24.31 66.73 22.54 66.73 19.71C66.73 16.87 68.38 15.02 70.92 15.02C73.43 15.02 75 16.74 75 19.49V20.13H68.6V20.24C68.6 21.79 69.57 22.81 71.04 22.81C72.07 22.81 72.88 22.32 73.13 21.54H74.9ZM68.61 18.83H73.14C73.1 17.44 72.21 16.53 70.92 16.53C69.64 16.53 68.71 17.46 68.61 18.83Z"
      fill="white" />
    <path
      d="M91.05 24.2V15.05H90.99L87.24 24.1H85.81L82.05 15.05H82V24.2H80.24V11.77H82.47L86.49 21.58H86.56L90.57 11.77H92.81V24.2H91.05Z"
      fill="white" />
    <path
      d="M102.72 24.2H100.94V22.64H100.9C100.38 23.73 99.48 24.3 98.09 24.3C96.12 24.3 94.91 23.03 94.91 20.95V15.14H96.77V20.59C96.77 21.97 97.42 22.7 98.71 22.7C100.05 22.7 100.86 21.77 100.86 20.36V15.14H102.72V24.2Z"
      fill="white" />
    <path
      d="M108.01 15.04C110.02 15.04 111.46 16.15 111.5 17.75H109.75C109.67 16.95 108.99 16.46 107.96 16.46C106.95 16.46 106.28 16.92 106.28 17.63C106.28 18.17 106.73 18.53 107.67 18.77L109.2 19.12C111.03 19.56 111.71 20.23 111.71 21.56C111.71 23.2 110.16 24.32 107.95 24.32C105.81 24.32 104.38 23.23 104.24 21.57H106.08C106.21 22.44 106.91 22.91 108.04 22.91C109.15 22.91 109.85 22.45 109.85 21.73C109.85 21.17 109.51 20.87 108.56 20.63L106.94 20.23C105.3 19.83 104.48 19 104.48 17.74C104.46 16.13 105.9 15.04 108.01 15.04Z"
      fill="white" />
    <path
      d="M113.16 12.75C113.16 12.16 113.64 11.68 114.24 11.68C114.84 11.68 115.33 12.15 115.33 12.75C115.33 13.34 114.85 13.81 114.24 13.81C113.64 13.81 113.16 13.34 113.16 12.75ZM113.3 15.14H115.16V24.2H113.3V15.14Z"
      fill="white" />
    <path
      d="M123.17 18.26C123.01 17.3 122.26 16.59 121.03 16.59C119.6 16.59 118.65 17.79 118.65 19.67C118.65 21.6 119.61 22.76 121.04 22.76C122.19 22.76 122.95 22.18 123.16 21.13H124.95C124.74 23.03 123.22 24.31 121.02 24.31C118.44 24.31 116.75 22.54 116.75 19.67C116.75 16.85 118.44 15.03 121 15.03C123.33 15.03 124.77 16.5 124.93 18.26H123.17Z"
      fill="white" />
    <path fill-rule="evenodd" clip-rule="evenodd"
      d="M25.7101 8.28998C25.7101 7.98998 25.7101 7.68998 25.7101 7.38998C25.7101 7.13998 25.7101 6.87998 25.7001 6.62998C25.6901 6.07998 25.6501 5.51998 25.5501 4.97998C25.4501 4.42998 25.2901 3.90998 25.0301 3.40998C24.7801 2.91998 24.4501 2.45998 24.0601 2.06998C23.6701 1.67998 23.2201 1.34998 22.7201 1.09998C22.2201 0.839983 21.7001 0.679983 21.1501 0.579983C20.6001 0.479983 20.0501 0.449983 19.5001 0.429983C19.2501 0.419983 18.9901 0.419983 18.7401 0.419983C18.4401 0.419983 18.1401 0.419983 17.8401 0.419983H8.42004C8.12004 0.419983 7.82004 0.419983 7.52004 0.419983C7.27004 0.419983 7.01004 0.419983 6.76004 0.429983C6.21004 0.439983 5.65004 0.479983 5.11004 0.579983C4.56004 0.679983 4.04004 0.839983 3.54004 1.09998C3.04004 1.34998 2.59004 1.66998 2.20004 2.06998C1.80004 2.45998 1.48004 2.90998 1.22004 3.39998C0.960039 3.89998 0.800039 4.41998 0.700039 4.96998C0.600039 5.51998 0.570039 6.06998 0.550039 6.61998C0.540039 6.86998 0.540039 7.12998 0.540039 7.37998C0.540039 7.67998 0.540039 7.97998 0.540039 8.27998V17.7C0.540039 18 0.540039 18.3 0.540039 18.6C0.540039 18.85 0.540039 19.11 0.550039 19.36C0.560039 19.91 0.600039 20.47 0.700039 21.01C0.800039 21.56 0.960039 22.08 1.22004 22.58C1.47004 23.07 1.80004 23.53 2.19004 23.92C2.58004 24.31 3.03004 24.64 3.53004 24.89C4.03004 25.15 4.55004 25.31 5.10004 25.41C5.65004 25.51 6.20004 25.54 6.75004 25.56C7.00004 25.57 7.26004 25.57 7.51004 25.57C7.81004 25.57 8.11004 25.57 8.41004 25.57H17.8301C18.1301 25.57 18.4301 25.57 18.7301 25.57C18.9801 25.57 19.2401 25.57 19.4901 25.56C20.0401 25.55 20.6001 25.51 21.1401 25.41C21.6901 25.31 22.2101 25.15 22.7101 24.89C23.2001 24.64 23.6601 24.31 24.0501 23.92C24.4401 23.53 24.7701 23.08 25.0201 22.58C25.2801 22.08 25.4401 21.56 25.5401 21.01C25.6401 20.46 25.6701 19.91 25.6901 19.36C25.7001 19.11 25.7001 18.85 25.7001 18.6C25.7001 18.3 25.7001 18 25.7001 17.7V8.28998H25.7101Z"
      fill="url(#paint0_linear_2913_215)" />
    <path fill-rule="evenodd" clip-rule="evenodd"
      d="M18.3401 4.25997C18.2801 4.26997 17.7401 4.35997 17.6701 4.36997L10.1901 5.87997C9.99002 5.91997 9.84002 5.98997 9.72002 6.08997C9.58002 6.20997 9.50002 6.37997 9.47002 6.57997C9.46002 6.61997 9.45002 6.70997 9.45002 6.82997C9.45002 6.82997 9.45002 14.47 9.45002 16.19C9.45002 16.41 9.43002 16.62 9.28002 16.8C9.13002 16.98 8.95002 17.04 8.73002 17.08L8.24002 17.18C7.62002 17.3 7.22002 17.39 6.86002 17.53C6.51002 17.67 6.25002 17.84 6.04002 18.05C5.63002 18.48 5.46002 19.07 5.52002 19.61C5.57002 20.08 5.78002 20.52 6.14002 20.86C6.38002 21.08 6.69002 21.25 7.05002 21.33C7.42002 21.41 7.82002 21.38 8.40002 21.26C8.71002 21.2 9.00002 21.1 9.27002 20.94C9.54002 20.78 9.78002 20.56 9.96002 20.3C10.1401 20.04 10.2601 19.75 10.3301 19.44C10.4001 19.12 10.4101 18.83 10.4101 18.51V10.4C10.4101 9.95997 10.5301 9.84997 10.8801 9.76997C10.8801 9.76997 17.1001 8.51997 17.3901 8.45997C17.7901 8.37997 17.9901 8.49997 17.9901 8.91997V14.46C17.9901 14.68 17.9901 14.9 17.8401 15.08C17.6901 15.26 17.5101 15.32 17.2901 15.36C17.1301 15.39 16.9601 15.43 16.8001 15.46C16.1801 15.58 15.7801 15.67 15.4201 15.81C15.0701 15.95 14.8101 16.12 14.6001 16.33C14.1901 16.76 14.0101 17.35 14.0601 17.89C14.1101 18.36 14.3301 18.8 14.7001 19.14C14.9401 19.36 15.2501 19.53 15.6101 19.6C15.9801 19.68 16.3801 19.65 16.9601 19.53C17.2701 19.47 17.5601 19.38 17.8301 19.21C18.1001 19.05 18.3401 18.83 18.5201 18.57C18.7001 18.31 18.8201 18.02 18.8901 17.71C18.9601 17.39 18.9601 17.1 18.9601 16.78V4.91997C18.9701 4.48997 18.7401 4.22997 18.3401 4.25997Z"
      fill="white" />
  </g>
  <defs>
    <linearGradient id="paint0_linear_2913_215" x1="13.1296" y1="25.4838" x2="13.1296" y2="0.960383"
      gradientUnits="userSpaceOnUse">
      <stop stop-color="#FA233B" />
      <stop offset="1" stop-color="#FB5C74" />
    </linearGradient>
    <clipPath id="clip0_2913_215">
      <rect width="125" height="28" fill="white" />
    </clipPath>
  </defs>
</svg>