<svg width="20" height="20" viewBox="0 0 20 20" fill="none" xmlns="http://www.w3.org/2000/svg">
	<path
		d="M15.0622 18H4.93792C3.86943 18 3 17.2323 3 16.2887V9.52935C3 8.58575 3.86939 7.81793 4.93792 7.81793H15.0622C16.1306 7.81793 17 8.58571 17 9.52935V16.2887C17 17.2323 16.1306 18 15.0621 18H15.0622ZM4.93792 8.54539C4.32348 8.54539 3.82355 8.98686 3.82355 9.52952V16.2889C3.82355 16.8315 4.32344 17.2729 4.93792 17.2729H15.0622C15.6765 17.2729 16.1765 16.8315 16.1765 16.2889V9.52952C16.1765 8.98689 15.6766 8.54539 15.0621 8.54539H4.93792Z"
		fill="white" />
	<path
		d="M14.1174 8.54541H5.88232V5.27271C5.88232 3.37639 7.61427 2 9.99988 2C12.3856 2 14.1174 3.37639 14.1174 5.27271V8.54541ZM6.70553 7.81812H13.2939V5.27271C13.2939 3.77392 11.9392 2.72729 9.99981 2.72729C8.0604 2.72729 6.70576 3.77405 6.70576 5.27271L6.70553 7.81812Z"
		fill="white" />
	<path
		d="M9.99988 13.2727C9.09149 13.2727 8.35278 12.6203 8.35278 11.8181C8.35278 11.0159 9.09149 10.3635 9.99988 10.3635C10.9083 10.3635 11.647 11.0159 11.647 11.8181C11.647 12.6205 10.9083 13.2727 9.99988 13.2727V13.2727ZM9.99988 11.091C9.54584 11.091 9.17633 11.4173 9.17633 11.8182C9.17633 12.2192 9.54584 12.5455 9.99988 12.5455C10.4539 12.5455 10.8234 12.2192 10.8234 11.8182C10.8234 11.4173 10.4539 11.091 9.99988 11.091Z"
		fill="white" />
	<path
		d="M9.99987 15.0911C9.77225 15.0911 9.58807 14.9284 9.58807 14.7274V12.9091C9.58807 12.7081 9.77223 12.5455 9.99987 12.5455C10.2275 12.5455 10.4117 12.7081 10.4117 12.9091V14.7274C10.4117 14.9284 10.2275 15.0911 9.99987 15.0911Z"
		fill="white" />
</svg>