<svg width="24" height="24" viewBox="0 0 24 24" fill="none" xmlns="http://www.w3.org/2000/svg">
<path fill-rule="evenodd" clip-rule="evenodd" d="M6.81826 7.15673C6.81826 4.30875 9.12699 2 11.975 2C14.8229 2 17.1317 4.30875 17.1317 7.15673V9.22135C17.2661 9.22765 17.3942 9.23558 17.5163 9.24556C18.1275 9.29549 18.6642 9.40099 19.1608 9.65403C19.9497 10.056 20.5911 10.6973 20.9931 11.4862C21.2461 11.9828 21.3516 12.5196 21.4015 13.1307C21.45 13.7243 21.45 14.4572 21.45 15.366V15.4019V16.1846V16.2205C21.45 17.1292 21.45 17.8621 21.4015 18.4557C21.3516 19.0669 21.2461 19.6036 20.9931 20.1002C20.5911 20.8891 19.9497 21.5305 19.1608 21.9324C18.6642 22.1855 18.1275 22.2909 17.5163 22.3409C16.9227 22.3894 16.1898 22.3894 15.2811 22.3894H15.2452H8.70481H8.6689C7.76017 22.3894 7.02721 22.3894 6.43367 22.3409C5.82253 22.2909 5.28575 22.1855 4.78911 21.9324C4.00025 21.5305 3.35889 20.8891 2.95695 20.1002C2.7039 19.6036 2.59841 19.0669 2.54848 18.4557C2.49999 17.8621 2.49999 17.1292 2.5 16.2205V16.1846V15.4019V15.366C2.49999 14.4572 2.49999 13.7243 2.54848 13.1307C2.59841 12.5196 2.7039 11.9828 2.95695 11.4862C3.35889 10.6973 4.00025 10.056 4.78911 9.65403C5.28575 9.40099 5.82253 9.29549 6.43367 9.24556C6.55584 9.23558 6.68394 9.22765 6.81826 9.22135V7.15673ZM15.4547 7.15673V9.19709L15.2811 9.19708H15.2452H8.70481H8.66892L8.49522 9.19709V7.15673C8.49522 5.23492 10.0532 3.67698 11.975 3.67698C13.8968 3.67698 15.4547 5.23492 15.4547 7.15673ZM6.57022 10.917C6.0628 10.9584 5.77126 11.0357 5.55045 11.1482C5.07713 11.3894 4.69231 11.7742 4.45115 12.2475C4.33863 12.4683 4.26135 12.7599 4.21989 13.2673C4.17763 13.7845 4.17697 14.4488 4.17697 15.4019V16.1846C4.17697 17.1376 4.17763 17.802 4.21989 18.3192C4.26135 18.8266 4.33863 19.1181 4.45115 19.339C4.69231 19.8122 5.07713 20.197 5.55045 20.4382C5.77126 20.5508 6.0628 20.628 6.57022 20.6695C7.08743 20.7118 7.75178 20.7124 8.70481 20.7124H15.2452C16.1982 20.7124 16.8626 20.7118 17.3798 20.6695C17.8872 20.628 18.1787 20.5508 18.3996 20.4382C18.8728 20.197 19.2576 19.8122 19.4988 19.339C19.6114 19.1181 19.6886 18.8266 19.7301 18.3192C19.7724 17.802 19.773 17.1376 19.773 16.1846V15.4019C19.773 14.4488 19.7724 13.7845 19.7301 13.2673C19.6886 12.7599 19.6114 12.4683 19.4988 12.2475C19.2576 11.7742 18.8728 11.3894 18.3996 11.1482C18.1787 11.0357 17.8872 10.9584 17.3798 10.917C16.8626 10.8747 16.1982 10.8741 15.2452 10.8741H8.70481C7.75178 10.8741 7.08743 10.8747 6.57022 10.917ZM12.9346 16.4961C13.5083 16.1643 13.8942 15.544 13.8942 14.8336C13.8942 13.7737 13.0349 12.9144 11.975 12.9144C10.915 12.9144 10.0558 13.7737 10.0558 14.8336C10.0558 15.544 10.4417 16.1643 11.0154 16.4961V18.1923C11.0154 18.7222 11.445 19.1518 11.975 19.1518C12.505 19.1518 12.9346 18.7222 12.9346 18.1923V16.4961Z" fill="#292D32"/>
</svg>
