<svg width="24" height="24" viewBox="0 0 24 24" fill="none" >
<path fill-rule="evenodd" clip-rule="evenodd" d="M1.00005 5.98266C0.999889 5.99253 0.999873 6.00239 1 6.01225V18C1 19.6523 2.34772 21 4 21H20C21.6523 21 23 19.6523 23 18V6.01236C23.0001 6.00242 23.0001 5.99247 23 5.98251C22.9905 4.33822 21.6465 3 20 3H4C2.3535 3 1.00944 4.3383 1.00005 5.98266ZM3.10658 5.55395C3.27196 5.22692 3.61204 5 4 5H20C20.388 5 20.728 5.22692 20.8934 5.55395L12 11.7793L3.10658 5.55395ZM21 7.92066V18C21 18.5477 20.5477 19 20 19H4C3.45229 19 3 18.5477 3 18V7.92066L11.4265 13.8192C11.7709 14.0603 12.2291 14.0603 12.5735 13.8192L21 7.92066Z" fill="#18181B"/>
</svg>
