<svg width="24" height="24" viewBox="0 0 24 24" fill="none" xmlns="http://www.w3.org/2000/svg">
  <path fill-rule="evenodd" clip-rule="evenodd"
    d="M2.00012 6.71149C1.99998 6.72046 1.99996 6.72943 2.00008 6.73839V17.6363C2.00008 19.1383 3.22527 20.3635 4.72733 20.3635H19.2727C20.7748 20.3635 21.9999 19.1383 21.9999 17.6363V6.73849C22 6.72945 22 6.72041 21.9999 6.71135C21.9913 5.21655 20.7695 4 19.2727 4H4.72733C3.23052 4 2.00866 5.21663 2.00012 6.71149ZM3.91514 6.32176C4.06548 6.02446 4.37464 5.81817 4.72733 5.81817H19.2727C19.6254 5.81817 19.9345 6.02446 20.0849 6.32176L12 11.9811L3.91514 6.32176ZM20.1818 8.47329V17.6363C20.1818 18.1342 19.7706 18.5453 19.2727 18.5453H4.72733C4.22941 18.5453 3.81825 18.1342 3.81825 17.6363V8.47329L11.4786 13.8356C11.7917 14.0547 12.2083 14.0547 12.5214 13.8356L20.1818 8.47329Z"
    fill="#18181B" />
</svg>