<svg  width="16" height="17" viewBox="0 0 16 17" fill="none">
<path d="M3.48753 2.07319C3.61419 1.92119 3.80182 1.83331 3.99967 1.83331H11.9997C12.1975 1.83331 12.3852 1.92119 12.5118 2.07319L14.5118 4.47319C14.5191 4.48196 14.5262 4.49089 14.533 4.49998H1.46634C1.47316 4.49089 1.48022 4.48196 1.48753 4.47319L3.48753 2.07319Z" fill="#F59E0B"/>
<path fill-rule="evenodd" clip-rule="evenodd" d="M1.33301 5.83331H14.6663V13.3C14.6663 13.8191 14.4366 14.3007 14.0551 14.644C13.676 14.9853 13.1754 15.1666 12.6663 15.1666H3.33301C2.82392 15.1666 2.32338 14.9853 1.94422 14.644C1.56275 14.3007 1.33301 13.8191 1.33301 13.3V5.83331ZM5.99967 7.83331C5.99967 7.46512 5.7012 7.16665 5.33301 7.16665C4.96482 7.16665 4.66634 7.46512 4.66634 7.83331C4.66634 8.71737 5.01753 9.56521 5.64265 10.1903C6.26777 10.8155 7.11562 11.1666 7.99967 11.1666C8.88373 11.1666 9.73158 10.8155 10.3567 10.1903C10.9818 9.56521 11.333 8.71737 11.333 7.83331C11.333 7.46512 11.0345 7.16665 10.6663 7.16665C10.2982 7.16665 9.99967 7.46512 9.99967 7.83331C9.99967 8.36375 9.78896 8.87245 9.41389 9.24753C9.03882 9.6226 8.53011 9.83331 7.99967 9.83331C7.46924 9.83331 6.96053 9.6226 6.58546 9.24753C6.21039 8.87245 5.99967 8.36375 5.99967 7.83331Z" fill="#F59E0B"/>
</svg>