<svg width="24" height="24" viewBox="0 0 24 24" fill="none" xmlns="http://www.w3.org/2000/svg">
  <path
    d="M21.0243 3H2.97573C2.43685 3 2 3.44771 2 4C2 4.55228 2.43685 5 2.97573 5H21.0243C21.5632 5 22 4.55228 22 4C22 3.44771 21.5632 3 21.0243 3Z"
    fill="#121212" />
  <path
    d="M21.0243 11H2.97573C2.43685 11 2 11.4477 2 12C2 12.5523 2.43685 13 2.97573 13H21.0243C21.5632 13 22 12.5523 22 12C22 11.4477 21.5632 11 21.0243 11Z"
    fill="#121212" />
  <path
    d="M21.0243 19H2.97573C2.43685 19 2 19.4478 2 20.0001C2 20.5523 2.43685 21 2.97573 21H21.0243C21.5632 21 22 20.5523 22 20.0001C22 19.4478 21.5632 19 21.0243 19Z"
    fill="#121212" />
</svg>