<svg width="27" height="25" viewBox="0 0 27 25" fill="none" xmlns="http://www.w3.org/2000/svg">
  <path fill-rule="evenodd" clip-rule="evenodd"
    d="M13.7149 21.7073H13.7239C19.7211 21.7073 24.1061 17.3455 24.1061 12.5311C24.1061 7.71676 19.7211 3.35499 13.7239 3.35499C7.72668 3.35499 3.34165 7.71676 3.34165 12.5311C3.34165 14.2764 3.89371 15.9195 4.87957 17.3332C5.37174 18.0389 5.48845 18.9441 5.19163 19.7536L4.79873 20.8251L7.07312 20.3599C7.62651 20.2467 8.20135 20.3189 8.71048 20.5655C10.2759 21.3237 11.9857 21.7133 13.7149 21.7073ZM13.7239 24.3291C11.6022 24.3365 9.50579 23.8583 7.58826 22.9295L3.02999 23.8619C2.03328 24.0658 1.20223 23.0851 1.55542 22.1218L2.75765 18.843C1.48438 17.0173 0.746094 14.8524 0.746094 12.5311C0.746094 6.01574 6.55725 0.733215 13.7239 0.733215C20.8905 0.733215 26.7016 6.01574 26.7016 12.5311C26.7016 19.0466 20.8905 24.3291 13.7239 24.3291Z"
    fill="#121212" />
</svg>