<svg width="24" height="24" viewBox="0 0 24 24" fill="none" >
<path fill-rule="evenodd" clip-rule="evenodd" d="M9.77778 12C9.77778 10.7727 10.7727 9.77777 12 9.77777C13.2273 9.77777 14.2222 10.7727 14.2222 12C14.2222 13.2273 13.2273 14.2222 12 14.2222C10.7727 14.2222 9.77778 13.2273 9.77778 12Z" fill="#18181B"/>
<path fill-rule="evenodd" clip-rule="evenodd" d="M4.22222 9.77777C2.99492 9.77777 2 10.7727 2 12C2 13.2273 2.99492 14.2222 4.22222 14.2222C5.44952 14.2222 6.44444 13.2273 6.44444 12C6.44444 10.7727 5.44952 9.77777 4.22222 9.77777ZM19.7778 9.77777C18.5505 9.77777 17.5556 10.7727 17.5556 12C17.5556 13.2273 18.5505 14.2222 19.7778 14.2222C21.0051 14.2222 22 13.2273 22 12C22 10.7727 21.0051 9.77777 19.7778 9.77777Z" fill="#18181B"/>
</svg>
