<svg width="24" height="24" viewBox="0 0 24 24" fill="none" >
<path fill-rule="evenodd" clip-rule="evenodd" d="M6 8C6 7.44772 6.44772 7 7 7H16.9989C17.5512 7 17.9989 7.44772 17.9989 8C17.9989 8.55228 17.5512 9 16.9989 9H7C6.44772 9 6 8.55228 6 8ZM6 12C6 11.4477 6.44772 11 7 11H16.9989C17.5512 11 17.9989 11.4477 17.9989 12C17.9989 12.5523 17.5512 13 16.9989 13H7C6.44772 13 6 12.5523 6 12ZM7 15C6.44772 15 6 15.4477 6 16C6 16.5523 6.44772 17 7 17H16.9989C17.5512 17 17.9989 16.5523 17.9989 16C17.9989 15.4477 17.5512 15 16.9989 15H7Z" fill="#18181B"/>
</svg>
