<svg width="24" height="24" viewBox="0 0 24 24" fill="none" xmlns="http://www.w3.org/2000/svg">
  <path
    d="M5.39998 21.6608C7.3882 21.6608 8.99997 20.119 8.99997 18.2173C8.99997 16.3155 7.3882 14.7737 5.39998 14.7737C3.41176 14.7737 1.79999 16.3155 1.79999 18.2173C1.79999 20.119 3.41176 21.6608 5.39998 21.6608Z"
    fill="#121212" stroke="#121212" stroke-width="1.5" stroke-linecap="round" stroke-linejoin="round" />
  <path
    d="M22.2 18.4167V4.95185C22.2 2.08229 20.3192 1.68496 18.4154 2.18162L11.2153 4.05787C9.9 4.40001 9 5.39332 9 6.8281V9.22307V10.8345V17.6945"
    stroke="#121212" stroke-width="1.5" stroke-linecap="round" stroke-linejoin="round" />
  <path
    d="M18.5999 21.8605C20.5881 21.8605 22.1998 20.3188 22.1998 18.417C22.1998 16.5153 20.5881 14.9735 18.5999 14.9735C16.6116 14.9735 14.9999 16.5153 14.9999 18.417C14.9999 20.3188 16.6116 21.8605 18.5999 21.8605Z"
    fill="#121212" stroke="#121212" stroke-width="1.5" stroke-linecap="round" stroke-linejoin="round" />
  <path
    d="M21.2422 6.61441L9 9.80802L9.53382 9.2053V5.93358L10.2505 4.68727L18.1664 2.47519H19.3391L20.5444 3.16043L21.033 4.68727L21.2422 6.61441Z"
    fill="#121212" stroke="#121212" stroke-width="1.5" stroke-linecap="round" stroke-linejoin="round" />
</svg>