<svg width="24" height="24" viewBox="0 0 24 24" fill="none" xmlns="http://www.w3.org/2000/svg">
<path d="M6.68775 19.6323C8.29264 19.6323 9.59367 18.3314 9.59367 16.7264C9.59367 15.1216 8.29264 13.8205 6.68775 13.8205C5.08285 13.8205 3.78183 15.1216 3.78183 16.7264C3.78183 18.3314 5.08285 19.6323 6.68775 19.6323Z" stroke="#292D32" stroke-width="1.5" stroke-linecap="round" stroke-linejoin="round"/>
<path d="M20.2488 16.8945V5.53159C20.2488 3.10999 18.7305 2.7747 17.1938 3.19382L11.382 4.77717C10.3202 5.06591 9.59369 5.90415 9.59369 7.11495V9.13605V10.4959V18.8224" stroke="#292D32" stroke-width="1.5" stroke-linecap="round" stroke-linejoin="round"/>
<path d="M17.3428 19.8007C18.9477 19.8007 20.2487 18.4997 20.2487 16.8947C20.2487 15.2899 18.9477 13.9888 17.3428 13.9888C15.7379 13.9888 14.437 15.2899 14.437 16.8947C14.437 18.4997 15.7379 19.8007 17.3428 19.8007Z" stroke="#292D32" stroke-width="1.5" stroke-linecap="round" stroke-linejoin="round"/>
<path d="M9.59369 10.1138L20.2488 7.2079" stroke="#292D32" stroke-width="1.5" stroke-linecap="round" stroke-linejoin="round"/>
</svg>
