<svg width="23" height="16" viewBox="0 0 23 16" fill="none" xmlns="http://www.w3.org/2000/svg">
<path fill-rule="evenodd" clip-rule="evenodd" d="M10.4332 0.0986909C10.7797 0.265211 11 0.615589 11 0.999994V15C11 15.3844 10.7797 15.7348 10.4332 15.9013C10.0867 16.0678 9.67548 16.021 9.37531 15.7809L4.64922 12H1C0.447715 12 0 11.5523 0 11V4.99999C0 4.44771 0.447715 3.99999 1 3.99999H4.64922L9.37531 0.219125C9.67548 -0.0210107 10.0867 -0.0678291 10.4332 0.0986909ZM9 3.08062L5.62469 5.78086C5.44738 5.92271 5.22707 5.99999 5 5.99999H2V9.99999H5C5.22707 9.99999 5.44738 10.0773 5.62469 10.2191L9 12.9194V3.08062Z" fill="white"/>
<path d="M19 9.41421L16.7071 11.7071C16.3166 12.0976 15.6834 12.0976 15.2929 11.7071C14.9024 11.3166 14.9024 10.6834 15.2929 10.2929L17.5858 7.99999L15.2929 5.7071C14.9024 5.31658 14.9024 4.68341 15.2929 4.29289C15.6834 3.90236 16.3166 3.90236 16.7071 4.29289L19 6.58578L21.2929 4.29289C21.6834 3.90236 22.3166 3.90236 22.7071 4.29289C23.0976 4.68341 23.0976 5.31658 22.7071 5.7071L20.4142 7.99999L22.7071 10.2929C23.0976 10.6834 23.0976 11.3166 22.7071 11.7071C22.3166 12.0976 21.6834 12.0976 21.2929 11.7071L19 9.41421Z" fill="white"/>
</svg>
