<svg width="24" height="24" viewBox="0 0 24 24" fill="none" xmlns="http://www.w3.org/2000/svg">
<g clip-path="url(#clip0_1116_14)">
<path fill-rule="evenodd" clip-rule="evenodd" d="M12 24C18.627 24 24 18.627 24 12C24 5.37296 18.6284 0 12 0C5.37296 0 0 5.37296 0 12C0 18.627 5.37296 24 12 24ZM19.8347 13.3106V14.0836C19.8347 14.128 19.8075 14.1675 19.7681 14.1847C19.5264 14.2883 18.6992 14.668 18.3552 15.1464C18.1638 15.4127 17.9823 15.704 17.7999 15.9967C17.1456 17.0468 16.4799 18.1152 15.3075 18.1152H9.05305C6.83631 18.1152 5.03999 16.3127 5.03999 14.0886V14.0171C5.03999 13.9579 5.08807 13.9098 5.14727 13.9098H8.63385C8.70289 13.9098 8.75345 13.9739 8.74729 14.0417C8.72263 14.2686 8.76455 14.5004 8.8718 14.7112C9.07895 15.1316 9.50799 15.3942 9.97156 15.3942H11.6976V14.0467H9.99127C9.90375 14.0467 9.85196 13.9456 9.90252 13.874C9.91281 13.8583 9.92388 13.8421 9.9355 13.8251C9.94123 13.8167 9.94709 13.8081 9.95306 13.7993C9.95671 13.7939 9.96041 13.7884 9.96415 13.7828C10.1257 13.5535 10.3562 13.1972 10.5855 12.7916C10.7421 12.5179 10.8937 12.2257 11.0158 11.9323C11.0387 11.8831 11.0573 11.8328 11.0756 11.7834L11.0799 11.772C11.0885 11.7477 11.0972 11.7238 11.1058 11.7003C11.1304 11.6329 11.1541 11.5681 11.1724 11.5032C11.1925 11.4428 11.2094 11.3799 11.2256 11.3192L11.2365 11.2788C11.2944 11.0298 11.3191 10.7659 11.3191 10.4922C11.3191 10.385 11.3142 10.2728 11.3043 10.1655C11.2994 10.0484 11.2846 9.93127 11.2698 9.81416C11.2599 9.71058 11.2414 9.60826 11.2217 9.50101C11.197 9.34442 11.1625 9.18909 11.1231 9.0325L11.1095 8.97333C11.1007 8.94131 11.0923 8.90972 11.0839 8.87831C11.0643 8.80452 11.045 8.73171 11.0207 8.65648C10.9233 8.31989 10.8111 7.99194 10.6928 7.68496C10.6498 7.56329 10.6006 7.44653 10.5515 7.32978L10.551 7.32866C10.4939 7.19018 10.436 7.06159 10.3809 6.93931L10.3365 6.84042C10.302 6.77138 10.2724 6.7085 10.2428 6.6444C10.2095 6.57165 10.175 6.49893 10.1405 6.42986C10.1308 6.4091 10.1206 6.38891 10.1105 6.36907C10.0949 6.33825 10.0797 6.30822 10.0677 6.27824L9.85689 5.88864C9.82729 5.83562 9.87663 5.77274 9.93455 5.78877L11.2537 6.14632H11.2575C11.2599 6.14632 11.2624 6.14754 11.2624 6.14754L11.4362 6.19562L11.6273 6.24986L11.6976 6.2696V5.48549C11.6976 5.10698 12.0009 4.8 12.3757 4.8C12.5631 4.8 12.7332 4.87642 12.8553 5.00096C12.9773 5.12549 13.0538 5.29562 13.0538 5.48549V6.64933L13.1943 6.68877C13.2054 6.69248 13.2165 6.69741 13.2264 6.7048L13.2718 6.73925C13.3001 6.76083 13.334 6.78663 13.3731 6.81575C13.393 6.83167 13.4135 6.84898 13.435 6.86721C13.467 6.89419 13.5013 6.92318 13.5395 6.95261C13.6665 7.05496 13.8181 7.18688 13.9846 7.3385C14.029 7.37674 14.0721 7.41618 14.1116 7.45565C14.3261 7.65536 14.5665 7.88962 14.7959 8.14853C14.86 8.22125 14.9228 8.29522 14.9869 8.3729C15.0096 8.4008 15.0327 8.42854 15.0558 8.45619C15.0979 8.5067 15.1398 8.55699 15.178 8.60717L15.2213 8.66458C15.2861 8.75027 15.3529 8.83857 15.4123 8.93018C15.4273 8.9532 15.4432 8.97644 15.4591 8.99972C15.4799 9.03004 15.5007 9.06047 15.5196 9.09045C15.6132 9.23223 15.6959 9.37895 15.7748 9.52565C15.808 9.59346 15.8426 9.66743 15.8721 9.74018C15.9597 9.93621 16.0287 10.1359 16.0731 10.3357C16.0867 10.3788 16.0965 10.4257 16.1015 10.4676V10.4774C16.1163 10.5366 16.1212 10.5995 16.1261 10.6636C16.1459 10.8683 16.136 11.0729 16.0916 11.2788C16.0731 11.3664 16.0485 11.449 16.0189 11.5365L16.0088 11.5651C15.9825 11.6401 15.9554 11.7172 15.9215 11.7905C15.8475 11.9618 15.76 12.1332 15.6564 12.2935C15.6231 12.3527 15.5837 12.4155 15.5442 12.4747C15.523 12.5056 15.5016 12.5355 15.4805 12.5649C15.4587 12.5954 15.4373 12.6252 15.4172 12.6547C15.363 12.7287 15.305 12.8064 15.2459 12.8754C15.1928 12.9482 15.1386 13.0209 15.0794 13.085C14.9968 13.1824 14.9179 13.2749 14.8353 13.3636C14.786 13.4216 14.733 13.4808 14.6787 13.5338C14.6332 13.5846 14.5867 13.6309 14.5433 13.6742L14.5221 13.6953C14.4395 13.7779 14.3705 13.842 14.3125 13.895L14.1769 14.0195C14.1572 14.0368 14.1313 14.0467 14.1042 14.0467H13.0538V15.3942H14.3754C14.6713 15.3942 14.9524 15.2894 15.1793 15.0971L15.1853 15.0918C15.2733 15.0151 15.6056 14.7252 15.9967 14.2932C16.0102 14.2784 16.0275 14.2674 16.0472 14.2624L19.6978 13.2071C19.7656 13.1873 19.8347 13.2391 19.8347 13.3106ZM5.92029 12.4032L5.97208 12.3218L9.09376 7.43836C9.13936 7.36684 9.24664 7.37425 9.28115 7.45191C9.80267 8.62071 10.2527 10.0743 10.0418 10.9792C9.95184 11.3515 9.70528 11.8558 9.42787 12.3218C9.39211 12.3896 9.35267 12.4562 9.31075 12.5203C9.29101 12.5499 9.25774 12.5672 9.22198 12.5672H6.01152C5.92523 12.5672 5.87469 12.4735 5.92029 12.4032Z" fill="black"/>
</g>
<defs>
<clipPath id="clip0_1116_14">
<rect width="24" height="24" fill="white"/>
</clipPath>
</defs>
</svg>
