<svg width="19" height="15" viewBox="0 0 19 15" fill="none" xmlns="http://www.w3.org/2000/svg">
<path fill-rule="evenodd" clip-rule="evenodd" d="M3.98213 2.50668C2.23375 2.50668 0.816406 3.92402 0.816406 5.6724V8.68315C0.816406 10.7128 0.816406 11.7276 1.17613 12.5175C1.57614 13.3958 2.28023 14.0999 3.15857 14.4999C3.94846 14.8596 4.96326 14.8596 6.99288 14.8596H12.0475C14.0771 14.8596 15.0919 14.8596 15.8818 14.4999C16.7601 14.0999 17.4642 13.3958 17.8642 12.5175C18.2239 11.7276 18.2239 10.7128 18.2239 8.68315V5.6724C18.2239 3.92402 16.8066 2.50668 15.0582 2.50668C14.4312 2.50668 13.8296 2.25866 13.3848 1.81674L13.0846 1.51844C13.0077 1.44212 12.9693 1.40396 12.9304 1.36911C12.5904 1.06498 12.1568 0.886171 11.7013 0.862349C11.6491 0.859619 11.5949 0.859619 11.4866 0.859619H7.55369C7.4454 0.859619 7.39125 0.859619 7.33906 0.862349C6.88356 0.886171 6.44988 1.06498 6.10995 1.36911C6.07101 1.40396 6.0326 1.44211 5.95578 1.51843L5.95577 1.51844L5.65551 1.81674C5.2107 2.25866 4.60914 2.50668 3.98213 2.50668ZM6.9541 8.20014C6.9541 6.79968 8.09818 5.65602 9.51982 5.65602C10.9415 5.65602 12.0855 6.79968 12.0855 8.20014C12.0855 9.60061 10.9415 10.7443 9.51982 10.7443C8.09818 10.7443 6.9541 9.60061 6.9541 8.20014ZM9.51982 4.15602C7.27901 4.15602 5.4541 5.96202 5.4541 8.20014C5.4541 10.4383 7.27901 12.2443 9.51982 12.2443C11.7606 12.2443 13.5855 10.4383 13.5855 8.20014C13.5855 5.96202 11.7606 4.15602 9.51982 4.15602Z" fill="#121212"/>
</svg>
