<svg width="24" height="24" viewBox="0 0 24 24" fill="none" xmlns="http://www.w3.org/2000/svg">
  <path
    d="M23.9208 10.1579C23.446 4.91998 19.2752 0.749118 14.0373 0.274319C13.4873 0.22446 13.0381 0.676963 13.0381 1.22925V10.1571C13.0381 10.7094 13.4858 11.1571 14.0381 11.1571H22.9659C23.5182 11.1571 23.9707 10.7079 23.9208 10.1579Z"
    fill="#121212" />
  <path fill-rule="evenodd" clip-rule="evenodd"
    d="M10.0739 3.20044C10.6237 3.14755 11.0728 3.60036 11.0728 4.15266V12.4617C11.0728 13.014 11.5205 13.4617 12.0728 13.4617H20.3823C20.9346 13.4617 21.3874 13.9108 21.3345 14.4605C20.8322 19.6854 16.4298 23.7708 11.0732 23.7708C5.37969 23.7708 0.76416 19.1552 0.76416 13.4617C0.76416 8.10528 4.84927 3.703 10.0739 3.20044Z"
    fill="#121212" />

</svg>