<svg  width="16" height="17" viewBox="0 0 16 17" fill="none">
<path fill-rule="evenodd" clip-rule="evenodd" d="M8.00033 1.16669C3.95024 1.16669 0.666992 4.44993 0.666992 8.50002C0.666992 12.5501 3.95024 15.8334 8.00033 15.8334C12.0504 15.8334 15.3337 12.5501 15.3337 8.50002C15.3337 4.44993 12.0504 1.16669 8.00033 1.16669ZM8.00033 4.16669C8.55261 4.16669 9.00033 4.6144 9.00033 5.16669V7.50002H11.3337C11.8859 7.50002 12.3337 7.94774 12.3337 8.50002C12.3337 9.05231 11.8859 9.50002 11.3337 9.50002H9.00033V11.8334C9.00033 12.3856 8.55261 12.8334 8.00033 12.8334C7.44804 12.8334 7.00033 12.3856 7.00033 11.8334V9.50002H4.66699C4.11471 9.50002 3.66699 9.05231 3.66699 8.50002C3.66699 7.94774 4.11471 7.50002 4.66699 7.50002H7.00033V5.16669C7.00033 4.6144 7.44804 4.16669 8.00033 4.16669Z" fill="#14B8A6"/>
</svg>