<svg width="24" height="24" viewBox="0 0 24 24" fill="none" >
<path d="M18.1114 7.99286C17.8813 7.86428 17.6222 7.79677 17.3586 7.79677C17.0951 7.79677 16.8359 7.86428 16.6059 7.99286L13.1518 9.99628L10.8049 11.3028L7.35097 13.3063C7.12088 13.4347 6.86173 13.5022 6.5982 13.5022C6.33467 13.5022 6.07553 13.4347 5.84544 13.3063L3.09985 11.7384C2.87646 11.6103 2.68988 11.4267 2.5581 11.2055C2.42633 10.9843 2.35382 10.7328 2.34758 10.4754V7.38313C2.34449 7.12374 2.4131 6.86854 2.54584 6.64567C2.67858 6.4228 2.8703 6.24093 3.09985 6.1201L5.80109 4.59577C6.03119 4.4673 6.29033 4.39985 6.55386 4.39985C6.81739 4.39985 7.07653 4.4673 7.30662 4.59577L10.0079 6.1201C10.2313 6.2482 10.4178 6.43173 10.5496 6.65297C10.6814 6.87421 10.7539 7.12569 10.7601 7.38313V9.38654L13.107 8.03641V6.033C13.1101 5.77361 13.0415 5.51841 12.9088 5.29554C12.776 5.07268 12.5843 4.8908 12.3548 4.76998L7.35097 1.89571C7.12088 1.76724 6.86173 1.69979 6.5982 1.69979C6.33467 1.69979 6.07553 1.76724 5.84544 1.89571L0.75237 4.77017C0.522852 4.89098 0.331153 5.07283 0.198413 5.29566C0.0656717 5.51849 -0.00295486 5.77365 0.000100051 6.033V11.8255C-0.0029915 12.0849 0.0656177 12.3401 0.198361 12.5629C0.331103 12.7858 0.522822 12.9677 0.75237 13.0885L5.84484 15.963C6.07494 16.0914 6.33408 16.1589 6.59761 16.1589C6.86114 16.1589 7.12028 16.0914 7.35038 15.963L10.8043 14.0031L13.1512 12.653L16.6053 10.6931C16.8353 10.5645 17.0945 10.497 17.358 10.497C17.6216 10.497 17.8808 10.5645 18.1108 10.6931L20.8121 12.2175C21.0354 12.3456 21.222 12.5291 21.3538 12.7503C21.4855 12.9716 21.5581 13.223 21.5643 13.4805V16.5727C21.5674 16.8321 21.4988 17.0873 21.3661 17.3102C21.2333 17.533 21.0416 17.7149 20.8121 17.8357L18.1108 19.4036C17.8807 19.5321 17.6216 19.5995 17.358 19.5995C17.0945 19.5995 16.8354 19.5321 16.6053 19.4036L13.904 17.8793C13.6807 17.7512 13.4941 17.5676 13.3623 17.3464C13.2305 17.1252 13.158 16.8737 13.1518 16.6163V14.6126L10.8049 15.9628V17.9662C10.8018 18.2256 10.8704 18.4808 11.0031 18.7036C11.1359 18.9265 11.3276 19.1084 11.5572 19.2292L16.6496 22.1037C16.8797 22.2321 17.1389 22.2996 17.4024 22.2996C17.6659 22.2996 17.9251 22.2321 18.1552 22.1037L23.2476 19.2292C23.471 19.1011 23.6576 18.9176 23.7894 18.6963C23.9211 18.4751 23.9936 18.2236 23.9999 17.9662V12.1739C24.003 11.9145 23.9344 11.6593 23.8016 11.4364C23.6689 11.2136 23.4772 11.0317 23.2476 10.9109L18.1114 7.99286Z" fill="#18181B"/>
</svg>
