<?xml version="1.0" encoding="utf-8"?>
<!-- Generator: Adobe Illustrator 24.2.1, SVG Export Plug-In . SVG Version: 6.00 Build 0)  -->
<svg version="1.1" id="Artwork" xmlns="http://www.w3.org/2000/svg" xmlns:xlink="http://www.w3.org/1999/xlink" x="0px" y="0px"
	 width="125.29px" height="27.88px" viewBox="0 0 125.29 27.88" style="enable-background:new 0 0 125.29 27.88;"
	 xml:space="preserve">
<style type="text/css">
	.st0{fill-rule:evenodd;clip-rule:evenodd;fill:url(#SVGID_1_);}
	.st1{fill-rule:evenodd;clip-rule:evenodd;fill:#FFFFFF;}
</style>
<g>
	<g>
		<path d="M38.36,20.52h-4.73l-1.14,3.36h-2l4.48-12.42h2.08l4.48,12.42h-2.04L38.36,20.52z M34.11,18.98h3.75l-1.85-5.45h-0.05
			L34.11,18.98z"/>
		<path d="M51.22,19.35c0,2.81-1.51,4.62-3.78,4.62c-1.29,0-2.31-0.58-2.85-1.58h-0.04v4.48h-1.86V14.83h1.8v1.51h0.03
			c0.52-0.97,1.62-1.6,2.88-1.6C49.7,14.73,51.22,16.55,51.22,19.35z M49.31,19.35c0-1.83-0.95-3.04-2.39-3.04
			c-1.42,0-2.38,1.23-2.38,3.04c0,1.82,0.96,3.05,2.38,3.05C48.36,22.4,49.31,21.2,49.31,19.35z"/>
		<path d="M61.18,19.35c0,2.81-1.51,4.62-3.78,4.62c-1.29,0-2.31-0.58-2.85-1.58h-0.04v4.48h-1.86V14.83h1.8v1.51h0.03
			c0.52-0.97,1.62-1.6,2.88-1.6C59.67,14.73,61.18,16.55,61.18,19.35z M59.27,19.35c0-1.83-0.95-3.04-2.39-3.04
			c-1.42,0-2.38,1.23-2.38,3.04c0,1.82,0.96,3.05,2.38,3.05C58.32,22.4,59.27,21.2,59.27,19.35z"/>
		<path d="M62.68,11.46h1.86v12.42h-1.86V11.46z"/>
		<path d="M74.22,21.22c-0.25,1.64-1.85,2.77-3.9,2.77c-2.63,0-4.27-1.76-4.27-4.6s1.64-4.68,4.19-4.68c2.5,0,4.08,1.72,4.08,4.47
			v0.64h-6.39v0.11c0,1.55,0.97,2.56,2.44,2.56c1.03,0,1.84-0.49,2.09-1.27C72.46,21.22,74.22,21.22,74.22,21.22z M67.94,18.52h4.53
			c-0.04-1.39-0.93-2.3-2.22-2.3C68.96,16.22,68.03,17.15,67.94,18.52z"/>
		<path d="M90.37,23.88v-9.14h-0.06l-3.74,9.04h-1.43l-3.75-9.04h-0.06v9.14h-1.76V11.46h2.23l4.02,9.8h0.07l4.01-9.8h2.24v12.42
			C92.14,23.88,90.37,23.88,90.37,23.88z"/>
		<path d="M102.04,23.88h-1.78v-1.56h-0.04c-0.52,1.08-1.42,1.66-2.81,1.66c-1.97,0-3.18-1.27-3.18-3.35v-5.81h1.86v5.45
			c0,1.38,0.65,2.11,1.94,2.11c1.34,0,2.15-0.93,2.15-2.34v-5.22h1.86C102.04,14.82,102.04,23.88,102.04,23.88z"/>
		<path d="M107.33,14.72c2.01,0,3.44,1.11,3.49,2.71h-1.75c-0.08-0.8-0.76-1.29-1.79-1.29c-1.01,0-1.68,0.46-1.68,1.17
			c0,0.54,0.45,0.9,1.39,1.14l1.52,0.35c1.82,0.44,2.51,1.11,2.51,2.44c0,1.63-1.55,2.75-3.76,2.75c-2.13,0-3.57-1.09-3.71-2.75
			h1.84c0.13,0.87,0.83,1.33,1.95,1.33c1.11,0,1.81-0.46,1.81-1.18c0-0.56-0.34-0.86-1.29-1.1l-1.62-0.4
			c-1.63-0.4-2.46-1.23-2.46-2.49C103.79,15.82,105.23,14.72,107.33,14.72z"/>
		<path d="M112.48,12.44c0-0.59,0.48-1.07,1.08-1.07s1.08,0.47,1.08,1.07c0,0.58-0.48,1.06-1.08,1.06
			C112.96,13.5,112.48,13.03,112.48,12.44z M112.63,14.83h1.86v9.05h-1.86V14.83z"/>
		<path d="M122.49,17.94c-0.16-0.96-0.91-1.67-2.13-1.67c-1.43,0-2.38,1.2-2.38,3.08c0,1.93,0.96,3.09,2.39,3.09
			c1.15,0,1.91-0.58,2.12-1.63h1.79c-0.21,1.9-1.73,3.18-3.92,3.18c-2.58,0-4.27-1.76-4.27-4.64c0-2.81,1.69-4.64,4.25-4.64
			c2.32,0,3.77,1.46,3.92,3.23C124.26,17.94,122.49,17.94,122.49,17.94z"/>
	</g>
	<g>
		<g>
			<path d="M33.48,1.59c1.18,0,2,0.82,2,2.02c0,1.18-0.84,2-2.03,2h-1.4v2.04h-0.94V1.59H33.48z M32.05,4.78h1.18
				c0.81,0,1.28-0.42,1.28-1.17c0-0.77-0.46-1.19-1.28-1.19h-1.18V4.78z"/>
			<path d="M36.7,3.08h0.87v0.7h0.07C37.77,3.33,38.28,3,38.87,3c0.13,0,0.31,0.01,0.4,0.04v0.89c-0.08-0.03-0.34-0.05-0.5-0.05
				c-0.68,0-1.17,0.43-1.17,1.07v2.7h-0.9V3.08z"/>
			<path d="M44.01,6.42c-0.21,0.82-0.94,1.32-1.98,1.32c-1.31,0-2.11-0.9-2.11-2.36s0.82-2.39,2.11-2.39c1.27,0,2.04,0.87,2.04,2.3
				V5.6h-3.23v0.05c0.03,0.8,0.5,1.31,1.22,1.31c0.55,0,0.92-0.2,1.09-0.55h0.86V6.42z M40.84,4.94h2.31
				c-0.02-0.72-0.46-1.18-1.12-1.18S40.89,4.23,40.84,4.94z"/>
			<path d="M45.29,5.65V4.77h2.75v0.89L45.29,5.65L45.29,5.65z"/>
			<path d="M49.22,6.36c0-0.82,0.61-1.3,1.7-1.36l1.24-0.07v-0.4c0-0.48-0.32-0.75-0.94-0.75c-0.5,0-0.85,0.18-0.95,0.51H49.4
				C49.49,3.5,50.23,3,51.27,3c1.15,0,1.79,0.57,1.79,1.54v3.12h-0.87V7.01h-0.07c-0.27,0.46-0.77,0.72-1.37,0.72
				C49.87,7.73,49.22,7.19,49.22,6.36z M52.16,5.97V5.58l-1.12,0.07c-0.63,0.04-0.92,0.26-0.92,0.66c0,0.41,0.36,0.65,0.85,0.65
				C51.66,6.97,52.16,6.53,52.16,5.97z"/>
			<path d="M54.24,5.36c0-1.44,0.74-2.36,1.9-2.36c0.62,0,1.15,0.3,1.4,0.8h0.07V1.3h0.9v6.35h-0.86V6.93h-0.07
				c-0.27,0.5-0.81,0.8-1.43,0.8C54.97,7.73,54.24,6.81,54.24,5.36z M55.17,5.36c0,0.97,0.46,1.55,1.22,1.55
				c0.76,0,1.23-0.59,1.23-1.55c0-0.95-0.47-1.55-1.23-1.55C55.63,3.81,55.17,4.4,55.17,5.36z"/>
			<path d="M59.75,5.36c0-1.44,0.74-2.36,1.9-2.36c0.62,0,1.15,0.3,1.4,0.8h0.07V1.3h0.9v6.35h-0.86V6.93h-0.07
				c-0.27,0.5-0.81,0.8-1.43,0.8C60.48,7.73,59.75,6.81,59.75,5.36z M60.68,5.36c0,0.97,0.46,1.55,1.22,1.55
				c0.76,0,1.23-0.59,1.23-1.55c0-0.95-0.47-1.55-1.23-1.55C61.14,3.81,60.68,4.4,60.68,5.36z"/>
			<path d="M67.74,5.36c0-1.47,0.82-2.37,2.16-2.37c1.33,0,2.15,0.9,2.15,2.37c0,1.48-0.82,2.38-2.15,2.38
				C68.56,7.74,67.74,6.84,67.74,5.36z M71.12,5.36c0-0.99-0.45-1.57-1.23-1.57c-0.78,0-1.23,0.58-1.23,1.57
				c0,1,0.44,1.57,1.23,1.57C70.67,6.94,71.12,6.36,71.12,5.36z"/>
			<path d="M73.25,3.08h0.87v0.73h0.07C74.41,3.3,74.87,3,75.55,3c1.02,0,1.58,0.61,1.58,1.7v2.96h-0.9V4.92
				c0-0.73-0.32-1.1-0.99-1.1s-1.09,0.45-1.09,1.16v2.67h-0.9C73.25,7.65,73.25,3.08,73.25,3.08z"/>
		</g>
	</g>
	<g>
		<g>
			
				<linearGradient id="SVGID_1_" gradientUnits="userSpaceOnUse" x1="12.58" y1="4.9345" x2="12.58" y2="29.4579" gradientTransform="matrix(1 0 0 -1 0 30)">
				<stop  offset="0" style="stop-color:#FA233B"/>
				<stop  offset="1" style="stop-color:#FB5C74"/>
			</linearGradient>
			<path class="st0" d="M25.16,7.87c0-0.3,0-0.6,0-0.9c0-0.25,0-0.51-0.01-0.76C25.14,5.66,25.1,5.1,25,4.56
				c-0.1-0.55-0.26-1.07-0.52-1.57c-0.25-0.49-0.58-0.95-0.97-1.34s-0.84-0.72-1.34-0.97c-0.5-0.26-1.02-0.42-1.57-0.52
				s-1.1-0.13-1.65-0.15C18.7,0.01,18.45,0,18.19,0c-0.3,0-0.6,0-0.9,0H7.87c-0.3,0-0.6,0-0.9,0C6.72,0,6.46,0,6.21,0.01
				C5.66,0.03,5.1,0.06,4.56,0.16C4,0.26,3.49,0.42,2.99,0.68c-0.5,0.25-0.95,0.58-1.34,0.97S0.93,2.49,0.68,2.99
				C0.42,3.49,0.26,4,0.16,4.56c-0.1,0.55-0.13,1.1-0.15,1.65C0.01,6.46,0,6.72,0,6.97c0,0.3,0,0.6,0,0.9v9.42c0,0.3,0,0.6,0,0.9
				c0,0.25,0,0.51,0.01,0.76c0.01,0.55,0.05,1.11,0.15,1.65c0.1,0.55,0.26,1.07,0.52,1.57c0.25,0.49,0.58,0.95,0.97,1.34
				s0.84,0.72,1.34,0.97C3.49,24.74,4,24.91,4.56,25c0.55,0.1,1.1,0.13,1.65,0.15c0.25,0.01,0.51,0.01,0.76,0.01c0.3,0,0.6,0,0.9,0
				h9.42c0.3,0,0.6,0,0.9,0c0.25,0,0.51,0,0.76-0.01c0.55-0.01,1.11-0.05,1.65-0.15c0.55-0.1,1.07-0.26,1.57-0.52
				c0.49-0.25,0.95-0.58,1.34-0.97s0.72-0.84,0.97-1.34c0.26-0.5,0.42-1.02,0.52-1.57s0.13-1.1,0.15-1.65
				c0.01-0.25,0.01-0.51,0.01-0.76c0-0.3,0-0.6,0-0.9V7.87z"/>
		</g>
		<g id="Glyph_13_">
			<g>
				<path class="st1" d="M17.79,3.84c-0.06,0.01-0.6,0.1-0.67,0.11L9.64,5.47l0,0c-0.2,0.04-0.35,0.11-0.47,0.21
					C9.03,5.8,8.95,5.97,8.92,6.16c0,0.05-0.01,0.13-0.01,0.26c0,0,0,7.64,0,9.36c0,0.22-0.02,0.43-0.17,0.61s-0.33,0.24-0.55,0.28
					c-0.16,0.03-0.33,0.07-0.49,0.1c-0.62,0.12-1.02,0.21-1.38,0.35c-0.35,0.14-0.61,0.31-0.82,0.52c-0.41,0.43-0.58,1.02-0.52,1.56
					c0.05,0.47,0.26,0.91,0.62,1.25c0.24,0.22,0.55,0.39,0.91,0.47c0.37,0.07,0.77,0.05,1.35-0.07c0.31-0.06,0.6-0.16,0.87-0.32
					s0.51-0.38,0.69-0.64c0.18-0.26,0.3-0.55,0.37-0.86c0.07-0.32,0.08-0.61,0.08-0.93V9.98c0-0.44,0.12-0.55,0.47-0.63
					c0,0,6.22-1.25,6.51-1.31c0.41-0.08,0.6,0.04,0.6,0.46v5.54c0,0.22,0,0.44-0.15,0.62s-0.33,0.24-0.55,0.28
					c-0.16,0.03-0.33,0.07-0.49,0.1c-0.62,0.12-1.02,0.21-1.38,0.35c-0.35,0.14-0.61,0.31-0.82,0.52c-0.41,0.43-0.59,1.02-0.54,1.56
					c0.05,0.47,0.27,0.91,0.64,1.25c0.24,0.22,0.55,0.39,0.91,0.46c0.37,0.07,0.77,0.05,1.35-0.07c0.31-0.06,0.6-0.15,0.87-0.32
					c0.27-0.16,0.51-0.38,0.69-0.64s0.3-0.55,0.37-0.86c0.07-0.32,0.07-0.61,0.07-0.93V4.51C18.42,4.07,18.19,3.81,17.79,3.84z"/>
			</g>
		</g>
	</g>
</g>
</svg>
