<svg width="20" height="20" viewBox="0 0 20 20" fill="none" >
<path d="M0 10C0 4.47715 4.47715 0 10 0C15.5228 0 20 4.47715 20 10C20 15.5228 15.5228 20 10 20C4.47715 20 0 15.5228 0 10Z" fill="#F59E0B"/>
<path fill-rule="evenodd" clip-rule="evenodd" d="M9.999 4.00137L9.99901 4.00134V4.00139L13.6813 10.1113L13.6813 10.1113L9.99901 12.2879V12.2879L9.99898 12.2879L6.31668 10.1113L6.31665 10.1113L9.99895 4.00144L9.99898 4.00134L9.999 4.00137ZM9.99892 15.9985L6.31665 10.8095L9.99901 12.9851V12.9851L13.6835 10.8096L9.99901 15.9986L9.99898 15.9987L9.99892 15.9985Z" fill="white"/>
</svg>
