<svg width="24" height="24" viewBox="0 0 24 24" fill="none" xmlns="http://www.w3.org/2000/svg">
<path d="M19.125 15.75H16.125C15.9179 15.75 15.75 15.9179 15.75 16.125V19.125C15.75 19.3321 15.9179 19.5 16.125 19.5H19.125C19.3321 19.5 19.5 19.3321 19.5 19.125V16.125C19.5 15.9179 19.3321 15.75 19.125 15.75Z" fill="#373737"/>
<path d="M15.375 12.75H13.125C12.9179 12.75 12.75 12.9179 12.75 13.125V15.375C12.75 15.5821 12.9179 15.75 13.125 15.75H15.375C15.5821 15.75 15.75 15.5821 15.75 15.375V13.125C15.75 12.9179 15.5821 12.75 15.375 12.75Z" fill="#373737"/>
<path d="M22.125 19.5H19.875C19.6679 19.5 19.5 19.6679 19.5 19.875V22.125C19.5 22.3321 19.6679 22.5 19.875 22.5H22.125C22.3321 22.5 22.5 22.3321 22.5 22.125V19.875C22.5 19.6679 22.3321 19.5 22.125 19.5Z" fill="#373737"/>
<path d="M22.125 12.75H20.625C20.4179 12.75 20.25 12.9179 20.25 13.125V14.625C20.25 14.8321 20.4179 15 20.625 15H22.125C22.3321 15 22.5 14.8321 22.5 14.625V13.125C22.5 12.9179 22.3321 12.75 22.125 12.75Z" fill="#373737"/>
<path d="M14.625 20.25H13.125C12.9179 20.25 12.75 20.4179 12.75 20.625V22.125C12.75 22.3321 12.9179 22.5 13.125 22.5H14.625C14.8321 22.5 15 22.3321 15 22.125V20.625C15 20.4179 14.8321 20.25 14.625 20.25Z" fill="#373737"/>
<path d="M21 1.5H14.25C13.8522 1.5 13.4706 1.65804 13.1893 1.93934C12.908 2.22064 12.75 2.60218 12.75 3V9.75C12.75 10.1478 12.908 10.5294 13.1893 10.8107C13.4706 11.092 13.8522 11.25 14.25 11.25H21C21.3978 11.25 21.7794 11.092 22.0607 10.8107C22.342 10.5294 22.5 10.1478 22.5 9.75V3C22.5 2.60218 22.342 2.22064 22.0607 1.93934C21.7794 1.65804 21.3978 1.5 21 1.5ZM19.5 7.875C19.5 7.97446 19.4605 8.06984 19.3902 8.14017C19.3198 8.21049 19.2245 8.25 19.125 8.25H16.125C16.0255 8.25 15.9302 8.21049 15.8598 8.14017C15.7895 8.06984 15.75 7.97446 15.75 7.875V4.875C15.75 4.77554 15.7895 4.68016 15.8598 4.60984C15.9302 4.53951 16.0255 4.5 16.125 4.5H19.125C19.2245 4.5 19.3198 4.53951 19.3902 4.60984C19.4605 4.68016 19.5 4.77554 19.5 4.875V7.875Z" fill="#373737"/>
<path d="M9.75 1.5H3C2.60218 1.5 2.22064 1.65804 1.93934 1.93934C1.65804 2.22064 1.5 2.60218 1.5 3V9.75C1.5 10.1478 1.65804 10.5294 1.93934 10.8107C2.22064 11.092 2.60218 11.25 3 11.25H9.75C10.1478 11.25 10.5294 11.092 10.8107 10.8107C11.092 10.5294 11.25 10.1478 11.25 9.75V3C11.25 2.60218 11.092 2.22064 10.8107 1.93934C10.5294 1.65804 10.1478 1.5 9.75 1.5ZM8.25 7.875C8.25 7.97446 8.21049 8.06984 8.14017 8.14017C8.06984 8.21049 7.97446 8.25 7.875 8.25H4.875C4.77554 8.25 4.68016 8.21049 4.60984 8.14017C4.53951 8.06984 4.5 7.97446 4.5 7.875V4.875C4.5 4.77554 4.53951 4.68016 4.60984 4.60984C4.68016 4.53951 4.77554 4.5 4.875 4.5H7.875C7.97446 4.5 8.06984 4.53951 8.14017 4.60984C8.21049 4.68016 8.25 4.77554 8.25 4.875V7.875Z" fill="#373737"/>
<path d="M9.75 12.75H3C2.60218 12.75 2.22064 12.908 1.93934 13.1893C1.65804 13.4706 1.5 13.8522 1.5 14.25V21C1.5 21.3978 1.65804 21.7794 1.93934 22.0607C2.22064 22.342 2.60218 22.5 3 22.5H9.75C10.1478 22.5 10.5294 22.342 10.8107 22.0607C11.092 21.7794 11.25 21.3978 11.25 21V14.25C11.25 13.8522 11.092 13.4706 10.8107 13.1893C10.5294 12.908 10.1478 12.75 9.75 12.75ZM8.25 19.125C8.25 19.2245 8.21049 19.3198 8.14017 19.3902C8.06984 19.4605 7.97446 19.5 7.875 19.5H4.875C4.77554 19.5 4.68016 19.4605 4.60984 19.3902C4.53951 19.3198 4.5 19.2245 4.5 19.125V16.125C4.5 16.0255 4.53951 15.9302 4.60984 15.8598C4.68016 15.7895 4.77554 15.75 4.875 15.75H7.875C7.97446 15.75 8.06984 15.7895 8.14017 15.8598C8.21049 15.9302 8.25 16.0255 8.25 16.125V19.125Z" fill="#373737"/>
</svg>
