<svg width="24" height="24" viewBox="0 0 24 24" fill="none" xmlns="http://www.w3.org/2000/svg">
  <path fill-rule="evenodd" clip-rule="evenodd"
    d="M12.1811 10C12.7947 10.0064 13.0398 10.3146 12.9166 10.9243C12.8587 11.3526 12.7956 11.7798 12.7275 12.2058C13.189 12.4927 13.6654 12.7588 14.1565 13.0041C14.455 13.2408 14.5181 13.5279 14.3456 13.8654C14.2642 13.9749 14.1591 14.052 14.0304 14.0965C13.4884 14.1965 12.949 14.3015 12.4122 14.4117C12.3001 14.9718 12.1881 15.5321 12.076 16.0923C11.7927 16.4964 11.4564 16.5524 11.0673 16.2603C10.7887 15.7665 10.5155 15.2694 10.2477 14.7688C9.64659 14.8366 9.04417 14.8926 8.44036 14.9368C7.99029 14.7215 7.88522 14.3924 8.12513 13.9495C8.51946 13.5764 8.89071 13.1842 9.23894 12.773C8.96212 12.2227 8.70994 11.6625 8.48239 11.0924C8.56098 10.6683 8.81317 10.4792 9.23894 10.5252C9.76373 10.742 10.2751 10.9871 10.7731 11.2605C11.1711 10.9046 11.5564 10.5335 11.9289 10.1471C12.0101 10.0858 12.0942 10.0368 12.1811 10Z"
    fill="black" />
  <path fill-rule="evenodd" clip-rule="evenodd"
    d="M14.2289 2.6731C14.383 2.60308 14.495 2.49104 14.5651 2.33698C14.8186 1.98639 15.1408 1.90936 15.5318 2.10589C16.1413 2.71512 16.7507 3.32435 17.3601 3.93357C17.4534 4.10563 17.4815 4.2877 17.4442 4.47978C17.2587 4.69641 17.1045 4.93449 16.9819 5.19405C16.7317 6.17142 17.089 6.80863 18.0536 7.10576C18.4144 7.15568 18.7507 7.08564 19.0624 6.89568C19.2674 6.63199 19.5336 6.51994 19.861 6.55956C19.9343 6.57935 20.0044 6.60737 20.0711 6.64359C20.6805 7.25282 21.29 7.86204 21.8994 8.47127C22.0463 8.74618 22.0323 9.01231 21.8574 9.26957C17.6326 13.4439 13.4226 17.6454 9.22724 21.8743C8.98148 22.0346 8.7293 22.0416 8.47069 21.8953C7.86124 21.2861 7.2518 20.6768 6.64236 20.0676C6.54401 19.8972 6.51597 19.7151 6.5583 19.5214C6.67401 19.332 6.8001 19.1499 6.93657 18.9752C7.28728 18.1932 7.11218 17.5559 6.41119 17.0635C6.01644 16.8583 5.61016 16.8303 5.19231 16.9795C4.94698 17.1231 4.70881 17.2771 4.47779 17.4416C4.28564 17.4789 4.10351 17.4509 3.93139 17.3576C3.32195 16.7484 2.71251 16.1391 2.10307 15.5299C1.95283 15.2537 1.96684 14.9876 2.1451 14.7316C6.16746 10.7037 10.1954 6.68413 14.2289 2.6731ZM15.1115 3.4714C15.43 3.72653 15.7312 4.00664 16.0152 4.31172C15.9102 4.61263 15.8122 4.92075 15.7209 5.23606C15.5622 6.55015 16.0735 7.50949 17.2551 8.11414C18.0687 8.40505 18.8602 8.35602 19.6298 7.96708C19.9508 8.23897 20.252 8.53308 20.5334 8.84941C19.5253 9.87821 18.5095 10.9006 17.4862 11.9166C15.6859 10.1169 13.8856 8.3172 12.0853 6.51754C13.1025 5.50771 14.1113 4.49232 15.1115 3.4714ZM11.3708 18.0509L11.0766 18.3029C10.7824 18.569 10.5021 18.8492 10.236 19.1433C10.236 19.1433 10.0818 19.2693 10.0258 19.3533L9.68957 19.6895C9.68957 19.6895 9.47942 19.8715 9.39536 19.9836C9.39536 19.9836 9.02393 20.3662 8.80693 20.5298C8.51431 20.2722 8.24112 19.9921 7.98734 19.6895C8.10065 19.3772 8.19871 19.0552 8.28155 18.7231C8.40793 17.1276 7.70044 16.1262 6.15901 15.719C5.50429 15.6174 4.89485 15.7365 4.33068 16.0761C4.01646 15.776 3.71524 15.4608 3.42703 15.1308C6.02968 12.5711 8.62859 9.98711 11.2237 7.37886C13.024 9.17852 14.8243 10.9782 16.6246 12.7779C14.8649 14.53 13.1136 16.2877 11.3708 18.0509Z"
    fill="black" />
</svg>