<svg width="24" height="24" viewBox="0 0 24 24" fill="none" xmlns="http://www.w3.org/2000/svg">
  <path fill-rule="evenodd" clip-rule="evenodd"
    d="M11.1811 9C11.7947 9.0064 12.0398 9.3146 11.9166 9.9243C11.8587 10.3526 11.7956 10.7798 11.7275 11.2058C12.189 11.4927 12.6654 11.7588 13.1565 12.0041C13.455 12.2408 13.5181 12.5279 13.3456 12.8654C13.2642 12.9749 13.1591 13.052 13.0304 13.0965C12.4884 13.1965 11.949 13.3015 11.4122 13.4117C11.3001 13.9718 11.1881 14.5321 11.076 15.0923C10.7927 15.4964 10.4564 15.5524 10.0673 15.2603C9.7887 14.7665 9.5155 14.2694 9.2477 13.7688C8.64659 13.8366 8.04417 13.8926 7.44036 13.9368C6.99029 13.7215 6.88522 13.3924 7.12513 12.9495C7.51946 12.5764 7.89071 12.1842 8.23894 11.773C7.96212 11.2227 7.70994 10.6625 7.48239 10.0924C7.56098 9.6683 7.81317 9.4792 8.23894 9.5252C8.76373 9.742 9.2751 9.9871 9.7731 10.2605C10.1711 9.9046 10.5564 9.5335 10.9289 9.1471C11.0101 9.0858 11.0942 9.0368 11.1811 9Z"
    fill="black" />
  <path fill-rule="evenodd" clip-rule="evenodd"
    d="M20.1712 6.98096C20.3297 7.04042 20.4881 7.04039 20.6466 6.98102C21.0737 6.91237 21.356 7.08573 21.4935 7.50117C21.4937 8.36295 21.4939 9.22465 21.494 10.0863C21.4383 10.274 21.3294 10.4226 21.1672 10.532C20.8829 10.5541 20.6055 10.6134 20.3353 10.7102C19.4672 11.2244 19.2693 11.9276 19.7413 12.8198C19.9611 13.1102 20.2484 13.2985 20.6032 13.3846C20.9346 13.3431 21.202 13.4521 21.4055 13.7116C21.4434 13.7774 21.4731 13.8468 21.4947 13.9196C21.4948 14.7813 21.495 15.643 21.4951 16.5048C21.4046 16.803 21.2065 16.9813 20.9009 17.0395C14.9619 17.0038 9.01403 16.9978 3.05718 17.0216C2.77005 16.9611 2.58678 16.7878 2.50736 16.5014C2.50719 15.6397 2.50709 14.7779 2.50692 13.9162C2.55787 13.7262 2.6668 13.5776 2.8337 13.4706C3.04945 13.4185 3.26737 13.3789 3.4874 13.3518C4.28835 13.0469 4.61517 12.4724 4.46768 11.6286C4.33364 11.2043 4.06616 10.8972 3.6652 10.7073C3.39018 10.6353 3.11287 10.5758 2.8332 10.5288C2.67095 10.4193 2.56197 10.2707 2.50623 10.083C2.50606 9.22132 2.50596 8.35954 2.50579 7.49784C2.59486 7.1963 2.79293 7.01804 3.1 6.96307C8.79239 6.95916 14.4828 6.96507 20.1712 6.98096ZM20.2308 8.16954C20.2756 8.57516 20.2905 8.9862 20.2756 9.40275C19.9886 9.54128 19.7014 9.68985 19.4139 9.84825C18.3725 10.6652 18.0557 11.7051 18.4636 12.9682C18.8332 13.7492 19.4276 14.2742 20.2468 14.5434C20.2815 14.9626 20.2865 15.3836 20.2618 15.8062C18.8215 15.8209 17.3803 15.8255 15.9383 15.8204C15.9379 13.2748 15.9375 10.7292 15.937 8.18364C17.3703 8.18885 18.8016 8.18419 20.2308 8.16954ZM7.27645 15.8337L6.89023 15.8039C6.49404 15.784 6.09771 15.7839 5.70159 15.8037C5.70159 15.8037 5.50345 15.7838 5.40446 15.8036L4.92898 15.8036C4.92898 15.8036 4.65169 15.7837 4.51298 15.8035C4.51298 15.8035 3.9798 15.8114 3.71068 15.7736C3.68591 15.3846 3.6908 14.9933 3.72532 14.5999C4.02627 14.4592 4.3233 14.3009 4.61671 14.1246C5.83426 13.0858 6.04209 11.8774 5.24006 10.4995C4.84895 9.96473 4.33379 9.61801 3.69473 9.45922C3.68475 9.02483 3.69463 8.58895 3.72418 8.15181C7.37451 8.18218 11.0394 8.19273 14.7187 8.18344C14.7192 10.729 14.7196 13.2746 14.72 15.8202C12.2368 15.8148 9.75557 15.8193 7.27645 15.8337Z"
    fill="black" />
  <defs>
    <rect width="24" height="24" fill="white" />
  </defs>
</svg>