<svg width="24" height="24" viewBox="0 0 24 24" fill="none" xmlns="http://www.w3.org/2000/svg">
  <path fill-rule="evenodd" clip-rule="evenodd"
    d="M22.3268 6.0227C22.5271 6.09348 22.7273 6.09346 22.9276 6.02276C23.4674 5.94101 23.8242 6.14745 23.998 6.64214C23.9982 7.6683 23.9985 8.69439 23.9986 9.72046C23.9282 9.94389 23.7906 10.1208 23.5856 10.2512C23.2263 10.2774 22.8757 10.348 22.5342 10.4633C21.437 11.0756 21.1869 11.913 21.7834 12.9754C22.0612 13.3212 22.4243 13.5454 22.8728 13.6479C23.2916 13.5985 23.6296 13.7282 23.8868 14.0373C23.9347 14.1156 23.9722 14.1983 23.9995 14.2849C23.9996 15.311 23.9999 16.3372 24 17.3632C23.8856 17.7184 23.6352 17.9307 23.249 18C15.7429 17.9575 8.22556 17.9503 0.696879 17.9787C0.333981 17.9066 0.102354 17.7003 0.00198426 17.3593C0.00176055 16.3332 0.00163542 15.307 0.00142183 14.2809C0.0658122 14.0547 0.203493 13.8777 0.414432 13.7503C0.687109 13.6882 0.962531 13.6411 1.24062 13.6089C2.25292 13.2457 2.66597 12.5617 2.47957 11.5569C2.31016 11.0517 1.9721 10.686 1.46534 10.4598C1.11775 10.3742 0.767263 10.3033 0.413796 10.2473C0.208738 10.1169 0.0709953 9.94 0.000554824 9.71651C0.000339966 8.69042 0.000214858 7.66425 0 6.63816C0.112569 6.27911 0.362901 6.06685 0.750997 6.00139C7.94543 5.99673 15.1374 6.00378 22.3268 6.0227ZM22.4021 7.43801C22.4587 7.92099 22.4775 8.41045 22.4587 8.90645C22.096 9.07141 21.733 9.24833 21.3696 9.43695C20.0534 10.4098 19.653 11.648 20.1686 13.1521C20.6357 14.0821 21.3869 14.7072 22.4223 15.0277C22.4662 15.5269 22.4725 16.0282 22.4413 16.5315C20.6209 16.5489 18.7994 16.5544 16.9769 16.5483C16.9764 13.5171 16.9759 10.4859 16.9753 7.4548C18.7868 7.461 20.5958 7.45545 22.4021 7.43801ZM6.02948 16.5642L5.54135 16.5287C5.04062 16.505 4.53971 16.5049 4.03907 16.5285C4.03907 16.5285 3.78864 16.5048 3.66353 16.5283L3.06259 16.5283C3.06259 16.5283 2.71213 16.5046 2.53682 16.5282C2.53682 16.5282 1.86295 16.5376 1.52282 16.4927C1.49151 16.0294 1.49769 15.5635 1.54132 15.095C1.92168 14.9275 2.29709 14.7389 2.66792 14.5291C4.20674 13.2921 4.46941 11.8532 3.45575 10.2125C2.96144 9.57565 2.31035 9.16279 1.50266 8.97369C1.49005 8.45644 1.50253 7.93742 1.53988 7.4169C6.15342 7.45306 10.7853 7.46562 15.4355 7.45456C15.4361 10.4857 15.4367 13.5169 15.4372 16.548C12.2987 16.5416 9.16277 16.547 6.02948 16.5642Z"
    fill="black" />
  <path fill-rule="evenodd" clip-rule="evenodd"
    d="M13.6405 10.5495C14.1696 11.1089 14.1146 11.6082 13.4759 12.0472C13.0522 12.3814 12.625 12.7099 12.1944 13.0329C12.3465 13.7082 12.5298 14.3782 12.744 15.0427C12.7979 15.5256 12.6027 15.8416 12.1582 15.9905C11.9919 16.0158 11.8331 15.9906 11.6822 15.9146C11.1227 15.5158 10.5611 15.1238 9.99732 14.7388C9.41155 15.1431 8.82568 15.5476 8.23981 15.9519C7.64079 16.0609 7.29892 15.808 7.21439 15.1934C7.40192 14.4964 7.59704 13.8013 7.7999 13.108C7.21699 12.6267 6.64322 12.1337 6.07852 11.6287C5.87393 11.0283 6.06916 10.6366 6.66418 10.4534C7.33296 10.4726 7.99826 10.4537 8.66006 10.3968C8.89838 9.65051 9.16679 8.91747 9.46531 8.19771C9.90336 7.88595 10.2879 7.94288 10.6189 8.36858C10.8873 9.03774 11.1193 9.72032 11.315 10.4164C11.972 10.4544 12.6312 10.4672 13.2925 10.4546C13.4167 10.4726 13.5327 10.5043 13.6405 10.5495Z"
    fill="black" />
</svg>