
<svg width="19" height="19" viewBox="0 0 19 19" fill="none" xmlns="http://www.w3.org/2000/svg">
<path d="M15.2659 7.79544C15.5147 8.52262 15.6498 9.30257 15.6498 10.1141C15.6498 14.0673 12.4451 17.272 8.49188 17.272C4.53868 17.272 1.33398 14.0673 1.33398 10.1141C1.33398 6.16088 4.53868 2.95618 8.49188 2.95618C9.12648 2.95618 9.7418 3.03876 10.3277 3.19377" stroke="#919191" stroke-width="1.5" stroke-linecap="round"/>
<path d="M15.2288 1.27197V5.4825" stroke="#919191" stroke-width="1.5" stroke-linecap="round"/>
<path d="M13.1235 3.3772L17.3341 3.3772" stroke="#919191" stroke-width="1.5" stroke-linecap="round"/>
<path d="M5.35602 12.4803C5.70664 12.9141 6.18868 13.2486 6.73218 13.4728C7.27692 13.6974 7.88303 13.8115 8.4918 13.8115C9.10057 13.8115 9.70668 13.6974 10.2514 13.4728C10.7949 13.2486 11.277 12.9141 11.6276 12.4803" stroke="#919191" stroke-width="1.5" stroke-linecap="round"/>
<circle cx="6.10587" cy="8.52335" r="0.795322" fill="#909090" stroke="#919191" stroke-width="0.795322" stroke-linecap="round"/>
<circle cx="10.8778" cy="8.52335" r="0.795322" fill="#909090" stroke="#919191" stroke-width="0.795322" stroke-linecap="round"/>
</svg>
