<svg width="14" height="18" viewBox="0 0 14 18" fill="none" xmlns="http://www.w3.org/2000/svg">
  <path fill-rule="evenodd" clip-rule="evenodd"
    d="M11.3814 16.2782C11.8264 16.6013 12.45 16.2834 12.45 15.7334V2.92762C12.45 2.36334 12.0277 1.90588 11.5068 1.90588H2.07468C1.55376 1.90588 1.13147 2.36334 1.13147 2.92762V15.7334C1.13147 16.2834 1.7551 16.6013 2.20009 16.2782L6.17692 13.391C6.53144 13.1534 7.07598 13.1534 7.40458 13.391L11.3814 16.2782Z"
    stroke="black" stroke-width="0.801368" />
  <path fill-rule="evenodd" clip-rule="evenodd"
    d="M11.3814 15.49C11.8264 15.813 12.45 15.4951 12.45 14.9453V2.13942C12.45 1.57512 12.0277 1.11768 11.5068 1.11768H2.07468C1.55376 1.11768 1.13147 1.57512 1.13147 2.13942V14.9453C1.13147 15.4951 1.7551 15.813 2.20009 15.49L6.17692 12.6028C6.53143 12.3653 7.07598 12.3653 7.40458 12.6028L11.3814 15.49Z"
    stroke="black" stroke-width="0.801368" />
</svg>