<svg width="24" height="24" viewBox="0 0 24 24" fill="none" >
<path fill-rule="evenodd" clip-rule="evenodd" d="M11 1C5.47715 1 1 5.47715 1 11C1 16.5228 5.47715 21 11 21C13.0371 21 14.9337 20.39 16.5147 19.3431L19.5858 22.4142C20.3668 23.1953 21.6332 23.1953 22.4142 22.4142C23.1953 21.6332 23.1953 20.3668 22.4142 19.5858L19.3431 16.5147C20.39 14.9337 21 13.0371 21 11C21 5.47715 16.5228 1 11 1ZM5 11C5 7.68629 7.68629 5 11 5C14.3137 5 17 7.68629 17 11C17 12.5958 16.3783 14.0443 15.3619 15.12C15.3185 15.1566 15.2764 15.1952 15.2358 15.2358C15.1952 15.2764 15.1566 15.3185 15.12 15.3619C14.0443 16.3783 12.5958 17 11 17C7.68629 17 5 14.3137 5 11Z" fill="#18181B"/>
</svg>
