<svg width="24" height="24" viewBox="0 0 24 24" fill="none" >
<path fill-rule="evenodd" clip-rule="evenodd" d="M20.7071 3.29289C20.9296 3.51536 21.0253 3.81657 20.9943 4.1068C20.9854 4.18989 20.9662 4.27208 20.9365 4.35126L14.6439 22.3303C14.5084 22.7173 14.1504 22.9825 13.7408 22.9992C13.3311 23.0159 12.9527 22.7808 12.7862 22.4061L9.40859 14.8065C9.36816 14.7768 9.32946 14.7437 9.29289 14.7071C9.25632 14.6705 9.22317 14.6318 9.19345 14.5914L1.59386 11.2138C1.21918 11.0473 0.984117 10.6689 1.00083 10.2592C1.01754 9.84956 1.28265 9.49159 1.66965 9.35614L19.6488 3.06345C19.7272 3.03411 19.8085 3.01494 19.8907 3.00595C19.9511 2.99931 20.0117 2.99823 20.0717 3.00256C20.3032 3.0191 20.5301 3.11588 20.7071 3.29289ZM11.2927 14.1215L13.5894 19.2889L17.6085 7.80568L11.2927 14.1215ZM16.1943 6.39147L9.87853 12.7072L4.71107 10.4106L16.1943 6.39147Z" fill="black"/>
</svg>
