<svg width="24" height="24" viewBox="0 0 24 24" fill="none" xmlns="http://www.w3.org/2000/svg">
<path fill-rule="evenodd" clip-rule="evenodd" d="M12 3.36363C10.1507 3.36363 8.65153 4.68643 8.65153 6.31818V8.36363H15.3485V6.31818C15.3485 4.68643 13.8494 3.36363 12 3.36363ZM12 2C14.7029 2 16.8939 3.93331 16.8939 6.31818V8.36363H18.697C19.6928 8.36363 20.5 9.07591 20.5 9.95454V19.9546C20.5 20.8332 19.6928 21.5455 18.697 21.5455H5.30304C4.30725 21.5455 3.5 20.8332 3.5 19.9546V9.95454C3.5 9.07591 4.30725 8.36363 5.30304 8.36363H7.10607V6.31818C7.10607 3.93331 9.29716 2 12 2ZM5.30304 9.72727C5.16078 9.72727 5.04546 9.82902 5.04546 9.95454V19.9546C5.04546 20.08 5.16078 20.1819 5.30304 20.1819H18.697C18.8393 20.1819 18.9545 20.08 18.9545 19.9546V9.95454C18.9545 9.82902 18.8393 9.72727 18.697 9.72727H16.1212H7.8788H5.30304ZM16.9583 12.3835C16.9583 12.7601 16.6124 13.0653 16.1856 13.0653C15.7588 13.0653 15.4129 12.7601 15.4129 12.3835C15.4129 12.0069 15.7588 11.7017 16.1856 11.7017C16.6124 11.7017 16.9583 12.0069 16.9583 12.3835ZM7.92709 13.0653C8.35386 13.0653 8.69982 12.7601 8.69982 12.3835C8.69982 12.0069 8.35386 11.7017 7.92709 11.7017C7.50033 11.7017 7.15436 12.0069 7.15436 12.3835C7.15436 12.7601 7.50033 13.0653 7.92709 13.0653Z" fill="#292D32"/>
</svg>
