<svg width="255" height="45" viewBox="0 0 255 45" fill="none" xmlns="http://www.w3.org/2000/svg">
  <path
    d="M37.6847 0.321429C37.6847 0.143908 37.5441 0 37.3707 0H30.4618C30.2884 0 30.1478 0.143909 30.1478 0.321429V43.3929C30.1478 43.5704 30.2884 43.7143 30.4618 43.7143H37.3707C37.5441 43.7143 37.6847 43.5704 37.6847 43.3929V18.9643C37.6847 18.7868 37.8253 18.6429 37.9988 18.6429H43.9655C47.4343 18.6429 50.2463 21.521 50.2463 25.0714V43.3929C50.2463 43.5704 50.3869 43.7143 50.5603 43.7143H57.4692C57.6427 43.7143 57.7833 43.5704 57.7833 43.3929V25.0714C57.7833 17.2605 51.5968 10.9286 43.9655 10.9286H37.9988C37.8253 10.9286 37.6847 10.7847 37.6847 10.6071V0.321429Z"
    fill="white" />
  <path
    d="M165.813 11.8929C165.813 11.7153 165.954 11.5714 166.127 11.5714H173.036C173.21 11.5714 173.35 11.7153 173.35 11.8929V43.3929C173.35 43.5704 173.21 43.7143 173.036 43.7143H166.127C165.954 43.7143 165.813 43.5704 165.813 43.3929V11.8929Z"
    fill="white" />
  <path fill-rule="evenodd" clip-rule="evenodd"
    d="M92.9557 27.6429C92.9557 36.8739 85.6445 44.3571 76.6256 44.3571C67.6068 44.3571 60.2956 36.8739 60.2956 27.6429C60.2956 18.4118 67.6068 10.9286 76.6256 10.9286C85.6445 10.9286 92.9557 18.4118 92.9557 27.6429ZM85.4187 27.6429C85.4187 32.6134 81.4819 36.6429 76.6256 36.6429C71.7693 36.6429 67.8325 32.6134 67.8325 27.6429C67.8325 22.6723 71.7693 18.6429 76.6256 18.6429C81.4819 18.6429 85.4187 22.6723 85.4187 27.6429Z"
    fill="white" />
  <path
    d="M146.656 11.5714C146.83 11.5714 146.97 11.4275 146.97 11.25V0.321429C146.97 0.143908 147.111 0 147.284 0H154.193C154.367 0 154.507 0.143909 154.507 0.321429V11.25C154.507 11.4275 154.648 11.5714 154.821 11.5714H161.73C161.904 11.5714 162.044 11.7153 162.044 11.8929V18.9643C162.044 19.1418 161.904 19.2857 161.73 19.2857H154.821C154.648 19.2857 154.507 19.4296 154.507 19.6071V32.1429C154.507 34.2731 156.195 36 158.276 36H161.73C161.904 36 162.044 36.1439 162.044 36.3214V43.3929C162.044 43.5704 161.904 43.7143 161.73 43.7143H158.276C152.032 43.7143 146.97 38.5336 146.97 32.1429V19.6071C146.97 19.4296 146.83 19.2857 146.656 19.2857H142.26C142.086 19.2857 141.946 19.1418 141.946 18.9643V11.8929C141.946 11.7153 142.086 11.5714 142.26 11.5714H146.656Z"
    fill="white" />
  <path
    d="M9.73531 11.5714C4.35869 11.5714 8.62535e-05 16.0326 8.62535e-05 21.5357C8.62535e-05 27.0388 4.35869 31.5 9.73531 31.5H17.9002C19.1143 31.5 20.0985 32.5074 20.0985 33.75C20.0985 34.9926 19.1143 36 17.9002 36H0.314039C0.1406 36 0 36.1439 0 36.3214V43.3929C0 43.5704 0.1406 43.7143 0.314039 43.7143H17.9002C23.2769 43.7143 27.6355 39.2531 27.6355 33.75C27.6355 28.2469 23.2769 23.7857 17.9002 23.7857H9.73531C8.52123 23.7857 7.53703 22.7784 7.53703 21.5357C7.53703 20.2931 8.52123 19.2857 9.73531 19.2857H25.4372C25.6106 19.2857 25.7512 19.1418 25.7512 18.9643V11.8929C25.7512 11.7153 25.6106 11.5714 25.4372 11.5714H9.73531Z"
    fill="white" />
  <path
    d="M94.5834 11.5714C94.387 11.5714 94.2389 11.7537 94.2745 11.9513L99.9646 43.4512C99.9921 43.6036 100.122 43.7142 100.273 43.7142H112.693C112.844 43.7142 112.974 43.6036 113.001 43.4512L116.852 22.1371C116.915 21.7864 117.406 21.7864 117.469 22.1371L121.319 43.4513C121.347 43.6037 121.477 43.7143 121.628 43.7143L134.048 43.7142C134.199 43.7142 134.329 43.6036 134.356 43.4512L140.046 11.9513C140.082 11.7537 139.934 11.5714 139.738 11.5714H132.712C132.56 11.5714 132.43 11.682 132.403 11.8344L128.074 35.7989C128.053 35.9154 127.954 36 127.838 36C127.722 36 127.623 35.9154 127.602 35.7989L123.273 11.8344C123.245 11.682 123.115 11.5714 122.964 11.5714H111.357C111.205 11.5714 111.075 11.682 111.048 11.8344L106.719 35.7989C106.698 35.9154 106.599 36 106.483 36C106.367 36 106.268 35.9154 106.247 35.7989L101.918 11.8344C101.891 11.682 101.761 11.5714 101.609 11.5714H94.5834Z"
    fill="white" />
  <path
    d="M201.927 43.7143C202.101 43.7143 202.241 43.5704 202.241 43.3929V19.6071C202.241 19.4296 202.382 19.2857 202.555 19.2857L207.266 19.2857C210.041 19.2857 212.291 21.5883 212.291 24.4286V43.3929C212.291 43.5704 212.431 43.7143 212.605 43.7143H219.514C219.687 43.7143 219.828 43.5704 219.828 43.3929V24.4286C219.828 17.3278 214.204 11.5714 207.266 11.5714H177.432C177.259 11.5714 177.118 11.7153 177.118 11.8929V43.3929C177.118 43.5704 177.259 43.7143 177.432 43.7143H184.341C184.515 43.7143 184.655 43.5704 184.655 43.3929V19.6071C184.655 19.4296 184.796 19.2857 184.969 19.2857L189.68 19.2857C192.454 19.2857 194.703 21.5863 194.704 24.425V43.3929C194.704 43.5704 194.845 43.7143 195.018 43.7143H201.927Z"
    fill="white" />
  <path
    d="M165.813 2.25C165.813 2.07248 165.953 1.92857 166.127 1.92857H173.036C173.209 1.92857 173.35 2.07248 173.35 2.25V8.67857C173.35 8.85609 173.209 9 173.036 9H166.127C165.953 9 165.813 8.85609 165.813 8.67857V2.25Z"
    fill="white" />
  <path fill-rule="evenodd" clip-rule="evenodd"
    d="M238.67 36.6429C234.835 36.6429 231.573 34.1296 230.371 30.6244C230.301 30.4215 230.452 30.2143 230.662 30.2143H254.686C254.859 30.2143 255 30.0704 255 29.8929V27.6429C255 18.4118 247.689 10.9286 238.67 10.9286C229.651 10.9286 222.34 18.4118 222.34 27.6429C222.34 36.8739 229.651 44.3571 238.67 44.3571C243.125 44.3571 247.448 42.5277 250.668 39.6318C251.822 38.5935 252.866 37.3884 253.73 36.0457C253.838 35.8773 253.765 35.6511 253.581 35.578L246.881 32.9111C246.757 32.862 246.617 32.8977 246.528 32.998C246.271 33.2875 245.992 33.5676 245.693 33.8366C243.739 35.5941 241.153 36.6429 238.67 36.6429ZM238.67 18.6429C242.505 18.6429 245.767 21.1561 246.969 24.6613C247.039 24.8642 246.888 25.0714 246.678 25.0714H230.662C230.452 25.0714 230.301 24.8642 230.371 24.6613C231.573 21.1561 234.835 18.6429 238.67 18.6429Z"
    fill="white" />
</svg>