<svg width="80" height="80" viewBox="0 0 80 80" fill="none" >
<path d="M75.7107 41.8383C77.3269 41.1456 77.3269 38.8544 75.7106 38.1617L64.868 33.5149C56.6075 29.9746 50.0253 23.3925 46.4851 15.132L41.8383 4.28934C41.1456 2.67312 38.8544 2.67313 38.1617 4.28934L33.5149 15.132C29.9746 23.3925 23.3925 29.9746 15.132 33.5149L4.28934 38.1617C2.67313 38.8544 2.67312 41.1456 4.28934 41.8383L15.132 46.4851C23.3925 50.0253 29.9746 56.6075 33.5149 64.868L38.1617 75.7107C38.8544 77.3269 41.1456 77.3269 41.8383 75.7106L46.4851 64.868C50.0253 56.6075 56.6075 50.0253 64.868 46.4851L75.7107 41.8383Z" fill="black"/>
</svg>
