<svg width="16" height="16" viewBox="0 0 16 16" fill="none" xmlns="http://www.w3.org/2000/svg">
<g id="Group 1182">
<circle id="Ellipse 417" cx="7.89453" cy="8.13123" r="6.97062" stroke="white" stroke-width="1.05875"/>
<path id="Union" d="M11.5853 8.32122C11.7523 8.24961 11.7523 8.01273 11.5853 7.94112L10.4643 7.46071C9.61031 7.09471 8.92983 6.41423 8.56383 5.56023L8.08342 4.43928C8.01181 4.27219 7.77494 4.27219 7.70333 4.43928L7.22292 5.56023C6.85692 6.41423 6.17644 7.09471 5.32244 7.46071L4.20149 7.94112C4.0344 8.01273 4.0344 8.24961 4.20149 8.32122L5.32244 8.80162C6.17643 9.16762 6.85692 9.84811 7.22292 10.7021L7.70333 11.8231C7.77494 11.9901 8.01181 11.9901 8.08342 11.8231L8.56383 10.7021C8.92983 9.84811 9.61031 9.16762 10.4643 8.80162L11.5853 8.32122Z" fill="white"/>
</g>
</svg>
