<svg width="24" height="24" viewBox="0 0 24 24" fill="none" >
<path d="M22.7132 12.5515C23.1981 12.3437 23.1981 11.6563 22.7132 11.4485L19.4604 10.0545C16.9823 8.9924 15.0076 7.01775 13.9455 4.53959L12.5515 1.2868C12.3437 0.80194 11.6563 0.801941 11.4485 1.28681L10.0545 4.53959C8.9924 7.01775 7.01775 8.9924 4.53959 10.0545L1.28681 11.4485C0.801941 11.6563 0.801941 12.3437 1.2868 12.5515L4.53959 13.9455C7.01775 15.0076 8.9924 16.9823 10.0545 19.4604L11.4485 22.7132C11.6563 23.1981 12.3437 23.1981 12.5515 22.7132L13.9455 19.4604C15.0076 16.9823 16.9823 15.0076 19.4604 13.9455L22.7132 12.5515Z" fill="url(#paint0_linear_2601_969)"/>
<defs>
<linearGradient id="paint0_linear_2601_969" x1="23.0768" y1="0.923157" x2="0.923153" y2="23.0768" gradientUnits="userSpaceOnUse">
<stop stop-color="#FFFBEB"/>
<stop offset="0.234375" stop-color="#FDE68A"/>
<stop offset="0.692708" stop-color="#F59E0B"/>
</linearGradient>
</defs>
</svg>
