<svg width="16" height="19" viewBox="0 0 16 19" fill="none" xmlns="http://www.w3.org/2000/svg">
<path fill-rule="evenodd" clip-rule="evenodd" d="M13.4691 1.18289C13.4074 1.18855 12.8601 1.28557 12.7942 1.29903L5.21672 2.82798L5.21388 2.82868C5.01629 2.87047 4.8612 2.94058 4.74153 3.04114C4.59705 3.16224 4.51704 3.33362 4.48659 3.53333C4.48022 3.57582 4.46959 3.66221 4.46959 3.78968C4.46959 3.78968 4.46959 11.5315 4.46959 13.2735C4.46959 13.4952 4.45188 13.7105 4.30176 13.8939C4.15162 14.0774 3.96608 14.1326 3.74867 14.1765C3.58366 14.2098 3.41865 14.243 3.25365 14.2763C2.62761 14.4024 2.22042 14.4881 1.85145 14.6311C1.49879 14.7678 1.23464 14.9421 1.02431 15.163C0.607192 15.5999 0.437937 16.1927 0.496007 16.7479C0.54558 17.2217 0.758742 17.6749 1.12487 18.0098C1.37202 18.2365 1.68078 18.4086 2.0448 18.4816C2.42225 18.5573 2.82449 18.5311 3.41228 18.4121C3.7253 18.3491 4.01848 18.2506 4.2975 18.0856C4.57368 17.9227 4.81022 17.7053 4.99505 17.4405C5.18059 17.175 5.30028 16.8796 5.36614 16.5658C5.43413 16.2422 5.45041 15.9497 5.45041 15.6269V7.40139C5.45041 6.96089 5.57505 6.84475 5.93055 6.75837C5.93055 6.75837 12.2291 5.48789 12.523 5.43053C12.9329 5.35192 13.1264 5.46877 13.1264 5.89863V11.5138C13.1264 11.7361 13.1242 11.9613 12.9727 12.1455C12.8225 12.3289 12.637 12.3841 12.4196 12.428C12.2546 12.4613 12.0896 12.4946 11.9246 12.5279C11.2985 12.6539 10.8913 12.7396 10.5224 12.8826C10.1697 13.0193 9.90555 13.1936 9.69522 13.4145C9.27811 13.8515 9.09397 14.4442 9.15205 14.9994C9.20163 15.4732 9.42965 15.9264 9.79578 16.2613C10.0429 16.4879 10.3517 16.6551 10.7157 16.7287C11.0932 16.8046 11.4954 16.7776 12.0832 16.6593C12.3962 16.5964 12.6894 16.5021 12.9684 16.3372C13.2445 16.1743 13.4812 15.9568 13.666 15.692C13.8515 15.4265 13.9712 15.1311 14.0371 14.8175C14.105 14.4938 14.1079 14.2012 14.1079 13.8784V1.85282C14.1093 1.41658 13.8791 1.14748 13.4691 1.18289Z" fill="black"/>
</svg>
