<svg width="24" height="24" viewBox="0 0 24 24" fill="none" xmlns="http://www.w3.org/2000/svg">
  <path
    d="M11.9999 2.4C6.69814 2.4 2.39999 6.69814 2.39999 12C2.39999 17.3022 6.69814 21.6 11.9999 21.6C17.3023 21.6 21.6 17.3022 21.6 12C21.6 6.69849 17.3024 2.4 11.9999 2.4ZM16.4024 16.2461C16.2305 16.5281 15.8614 16.6175 15.5794 16.4443C13.3254 15.0676 10.4879 14.7557 7.14626 15.5192C6.82425 15.5926 6.50326 15.3908 6.42989 15.0688C6.35619 14.7466 6.55714 14.4256 6.87995 14.3522C10.5368 13.5164 13.6736 13.8764 16.2041 15.4229C16.4861 15.596 16.5755 15.9641 16.4024 16.2461ZM17.5775 13.6318C17.3608 13.9842 16.9 14.0954 16.548 13.8787C13.9675 12.2923 10.034 11.8329 6.98187 12.7595C6.58604 12.879 6.16796 12.6559 6.04781 12.2608C5.92859 11.8649 6.15179 11.4476 6.54694 11.3272C10.0334 10.2694 14.3676 10.7818 17.331 12.6029C17.6828 12.8195 17.7941 13.2803 17.5775 13.6318ZM17.6783 10.9097C14.5843 9.07197 9.47955 8.90298 6.52551 9.79957C6.05114 9.94344 5.5495 9.67565 5.40574 9.20128C5.26199 8.72667 5.52955 8.22535 6.00425 8.08114C9.3953 7.05169 15.0325 7.25058 18.5947 9.36532C19.0223 9.61855 19.1622 10.1696 18.9088 10.5957C18.6566 11.0224 18.1036 11.1631 17.6783 10.9097Z"
    fill="black" />
</svg>