<svg width="24" height="24" viewBox="0 0 24 24" fill="none" xmlns="http://www.w3.org/2000/svg">
<path d="M11.9999 0C5.37268 0 0 5.37267 0 12C0 18.6277 5.37268 24 11.9999 24C18.6279 24 24 18.6277 24 12C24 5.3731 18.628 0 11.9999 0ZM17.503 17.3076C17.2881 17.6601 16.8268 17.7719 16.4743 17.5554C13.6568 15.8345 10.1099 15.4446 5.93283 16.399C5.53032 16.4907 5.12908 16.2385 5.03737 15.836C4.94525 15.4332 5.19643 15.032 5.59995 14.9402C10.171 13.8955 14.092 14.3455 17.2551 16.2786C17.6076 16.495 17.7194 16.9551 17.503 17.3076ZM18.9719 14.0397C18.701 14.4802 18.125 14.6192 17.685 14.3484C14.4594 12.3654 9.54251 11.7911 5.72735 12.9494C5.23256 13.0987 4.70996 12.8199 4.55977 12.326C4.41075 11.8311 4.68975 11.3095 5.18368 11.159C9.54176 9.83675 14.9595 10.4772 18.6638 12.7536C19.1035 13.0244 19.2426 13.6004 18.9719 14.0397ZM19.0979 10.6371C15.2304 8.33995 8.84944 8.12872 5.1569 9.24946C4.56393 9.4293 3.93688 9.09456 3.75718 8.5016C3.5775 7.90832 3.91195 7.28168 4.50532 7.10142C8.74413 5.81461 15.7906 6.06322 20.2434 8.70665C20.7779 9.02318 20.9528 9.71199 20.636 10.2446C20.3208 10.778 19.6295 10.9539 19.0979 10.6371Z" fill="black"/>
</svg>
