<svg width="20" height="20" viewBox="0 0 20 20" fill="none" xmlns="http://www.w3.org/2000/svg">
  <path
    d="M9.99995 2C5.58179 2 2 5.58178 2 10C2 14.4185 5.58179 18 9.99995 18C14.4186 18 18 14.4185 18 10C18 5.58207 14.4187 2 9.99995 2ZM13.6687 13.5384C13.5254 13.7734 13.2178 13.8479 12.9828 13.7036C11.1045 12.5563 8.73991 12.2964 5.95522 12.9327C5.68688 12.9938 5.41939 12.8257 5.35825 12.5573C5.29683 12.2888 5.46429 12.0213 5.7333 11.9602C8.78071 11.2637 11.3947 11.5637 13.5034 12.8524C13.7384 12.9967 13.8129 13.3034 13.6687 13.5384ZM14.6479 11.3598C14.4673 11.6535 14.0833 11.7462 13.79 11.5656C11.6396 10.2436 8.36171 9.86076 5.81823 10.6329C5.48837 10.7325 5.13997 10.5466 5.03985 10.2173C4.9405 9.88741 5.1265 9.53968 5.45579 9.43937C8.36114 8.5578 11.973 8.98483 14.4425 10.5024C14.7357 10.6829 14.8284 11.0669 14.6479 11.3598ZM14.7319 9.09144C12.1536 7.55997 7.89963 7.41915 5.43793 8.16631C5.04262 8.2862 4.62459 8.06304 4.50479 7.66773C4.385 7.27222 4.60796 6.85446 5.00355 6.73428C7.82942 5.87641 12.5271 6.04215 15.4956 7.80443C15.8519 8.01546 15.9685 8.47469 15.7573 8.82978C15.5472 9.18535 15.0863 9.30257 14.7319 9.09144Z"
    fill="white" />
</svg>