<svg width="14" height="15" viewBox="0 0 14 15" fill="none" xmlns="http://www.w3.org/2000/svg">
<path fill-rule="evenodd" clip-rule="evenodd" d="M11.1405 6.7055C8.88417 5.36558 5.1625 5.2425 3.00825 5.89642C2.66233 6.00142 2.29658 5.806 2.19217 5.46008C2.08717 5.11417 2.282 4.74842 2.6285 4.64342C5.10125 3.89267 9.21142 4.03792 11.809 5.57967C12.1199 5.76458 12.222 6.16592 12.0377 6.47683C11.8533 6.78775 11.4514 6.89042 11.1405 6.7055ZM11.067 8.69058C10.9083 8.94725 10.5729 9.02775 10.3162 8.87025C8.435 7.71408 5.56675 7.37867 3.34075 8.05417C3.05258 8.14167 2.7475 7.97892 2.66 7.69075C2.57308 7.402 2.73583 7.09808 3.024 7.01C5.56617 6.23883 8.72667 6.61217 10.8873 7.94042C11.144 8.09792 11.2245 8.4345 11.067 8.69058ZM10.2101 10.5963C10.0847 10.8028 9.81575 10.8676 9.61042 10.7416C7.96658 9.73708 5.8975 9.51017 3.46092 10.0667C3.22642 10.1203 2.9925 9.97333 2.93883 9.73883C2.88517 9.50375 3.03158 9.26983 3.26667 9.21617C5.93308 8.60658 8.22033 8.86908 10.0654 9.99667C10.2713 10.1221 10.3361 10.391 10.2101 10.5963ZM7 0.5C3.13425 0.5 0 3.63425 0 7.5C0 11.3663 3.13425 14.5 7 14.5C10.8663 14.5 14 11.3663 14 7.5C14 3.63425 10.8663 0.5 7 0.5Z" fill="white"/>
</svg>
