<svg width="95" height="94" viewBox="0 0 95 94" fill="none" xmlns="http://www.w3.org/2000/svg">
<path d="M35.601 18.6606C34.7954 17.8408 33.7932 17.241 32.69 16.9183C31.5868 16.5956 30.4194 16.5608 29.2989 16.8172C28.1683 17.0671 27.1193 17.5991 26.2497 18.3637C25.3801 19.1283 24.7183 20.1007 24.3258 21.19L1.21816 84.6826C0.857804 85.7159 0.748337 86.8202 0.898788 87.9042C1.04924 88.9882 1.45529 90.0209 2.08345 90.917C2.71161 91.8132 3.54386 92.5472 4.51153 93.0584C5.4792 93.5695 6.55456 93.8433 7.64886 93.857C8.45065 93.8582 9.2472 93.7279 10.0068 93.4712L73.4993 70.3635C74.5887 69.9711 75.561 69.3092 76.3256 68.4396C77.0902 67.5701 77.6223 66.5211 77.8722 65.3904C78.1286 64.27 78.0938 63.1025 77.7711 61.9994C77.4484 60.8962 76.8485 59.894 76.0287 59.0884L35.601 18.6606ZM15.5801 65.219L23.8114 42.5829L52.1065 70.878L29.4704 79.1093L15.5801 65.219ZM56.8223 27.5779C56.8854 25.2583 57.4407 22.9787 58.4514 20.8899C60.7236 16.3456 65.0108 13.859 70.5412 13.859C73.4136 13.859 75.257 12.873 76.4146 10.7723C77.0046 9.58273 77.3405 8.28328 77.4006 6.95675C77.4006 6.50835 77.4896 6.06441 77.6624 5.65068C77.8353 5.23695 78.0886 4.86167 78.4077 4.54661C78.7267 4.23154 79.1052 3.98297 79.521 3.81531C79.9369 3.64764 80.3819 3.56423 80.8303 3.56991C81.7399 3.56991 82.6123 3.93125 83.2555 4.57445C83.8987 5.21764 84.26 6.09 84.26 6.99962C84.26 12.53 80.616 20.7185 70.5412 20.7185C67.6688 20.7185 65.8253 21.7045 64.6678 23.8052C64.0777 24.9948 63.7419 26.2942 63.6818 27.6208C63.6818 28.0692 63.5928 28.5131 63.4199 28.9268C63.247 29.3406 62.9937 29.7158 62.6747 30.0309C62.3556 30.346 61.9772 30.5945 61.5613 30.7622C61.1454 30.9299 60.7004 31.0133 60.252 31.0076C59.3424 31.0076 58.4701 30.6463 57.8269 30.0031C57.1837 29.3599 56.8223 28.4875 56.8223 27.5779ZM46.5332 13.859V3.56991C46.5332 2.66029 46.8945 1.78793 47.5377 1.14474C48.1809 0.501541 49.0533 0.140198 49.9629 0.140198C50.8725 0.140198 51.7449 0.501541 52.3881 1.14474C53.0313 1.78793 53.3926 2.66029 53.3926 3.56991V13.859C53.3926 14.7687 53.0313 15.641 52.3881 16.2842C51.7449 16.9274 50.8725 17.2888 49.9629 17.2888C49.0533 17.2888 48.1809 16.9274 47.5377 16.2842C46.8945 15.641 46.5332 14.7687 46.5332 13.859ZM90.1334 49.1422C90.7774 49.7924 91.1387 50.6707 91.1387 51.5859C91.1387 52.5011 90.7774 53.3793 90.1334 54.0295C89.4778 54.6634 88.6016 55.0177 87.6897 55.0177C86.7778 55.0177 85.9016 54.6634 85.2461 54.0295L78.3866 47.1701C77.8397 46.5037 77.5602 45.6577 77.6025 44.7967C77.6448 43.9357 78.0059 43.1211 78.6154 42.5116C79.225 41.902 80.0395 41.5409 80.9006 41.4987C81.7616 41.4564 82.6076 41.7359 83.274 42.2828L90.1334 49.1422ZM92.1912 30.8361L81.9021 34.2658C81.5575 34.385 81.1948 34.443 80.8303 34.4373C80.0146 34.4375 79.2255 34.147 78.6047 33.6179C77.9839 33.0888 77.572 32.3557 77.4429 31.5503C77.3139 30.7449 77.4761 29.9198 77.9005 29.2232C78.3248 28.5266 78.9836 28.0041 79.7585 27.7494L90.0477 24.3197C90.4755 24.1789 90.9269 24.1238 91.3761 24.1575C91.8253 24.1912 92.2634 24.3131 92.6655 24.5161C93.0676 24.7191 93.4257 24.9994 93.7195 25.3408C94.0133 25.6823 94.2369 26.0782 94.3777 26.5061C94.5184 26.934 94.5735 27.3854 94.5398 27.8346C94.5061 28.2837 94.3843 28.7219 94.1812 29.1239C93.9782 29.526 93.698 29.8842 93.3565 30.1779C93.0151 30.4717 92.6191 30.6954 92.1912 30.8361Z" fill="#121212"/>
</svg>
