<svg width="24" height="24" viewBox="0 0 24 24" fill="none" >
<g clip-path="url(#clip0_61:23)">
<path d="M14.5842 24C12.8612 24 11.6061 23.5876 10.8177 22.7628C10.03 21.9384 9.63578 21.0492 9.63578 20.0964C9.63578 19.748 9.70433 19.4549 9.84179 19.2167C9.97591 18.9816 10.1706 18.7869 10.4057 18.6528C10.6439 18.5153 10.937 18.4468 11.2854 18.4468C11.6338 18.4468 11.9265 18.5153 12.1651 18.6528C12.4033 18.7902 12.5911 18.9785 12.7286 19.2167C12.8661 19.4549 12.9346 19.748 12.9346 20.0964C12.9346 20.5179 12.8339 20.8613 12.6324 21.1272C12.4306 21.393 12.1924 21.5669 11.9174 21.6498C12.156 21.9793 12.5317 22.2129 13.0448 22.3504C13.558 22.4973 14.0711 22.5704 14.5842 22.5704C15.2988 22.5704 15.9449 22.378 16.5224 21.9933C17.0995 21.6081 17.526 21.0401 17.8009 20.2888C18.0758 19.5374 18.2133 18.685 18.2133 17.7318C18.2133 16.6964 18.0618 15.8118 17.7596 15.079C17.4661 14.3368 17.031 13.7869 16.4535 13.4294C15.8938 13.0772 15.2455 12.8913 14.5842 12.8935C14.1442 12.8935 13.5947 13.0768 12.9346 13.4434L11.7251 14.0482V13.4434L17.1685 6.18566H9.63578V13.718C9.63578 14.3413 9.77325 14.8544 10.0482 15.2578C10.3231 15.6611 10.7446 15.8625 11.313 15.8625C11.7523 15.8625 12.1742 15.716 12.5775 15.4225C12.9834 15.1265 13.3365 14.7642 13.622 14.3508C13.6587 14.2678 13.7045 14.2084 13.7594 14.1716C13.8088 14.128 13.8723 14.1037 13.9382 14.1031C14.0389 14.1031 14.1578 14.1535 14.2957 14.2546C14.424 14.4008 14.488 14.5704 14.488 14.7628C14.4723 14.8924 14.4493 15.0209 14.4191 15.1479C14.1078 15.8444 13.6769 16.3757 13.127 16.7422C12.5917 17.1044 11.9593 17.2961 11.313 17.2921C9.6816 17.2921 8.55422 16.9714 7.93126 16.3302C7.3083 15.6883 6.99663 14.8177 6.99663 13.7183V6.18566H3.14754V4.78334H6.99663V1.5947L6.11692 0.714225V0H8.67351L9.6354 0.49458V4.78334L19.5876 4.75607L20.5775 5.74561L14.4744 11.8487C14.8439 11.7014 15.2329 11.6088 15.6291 11.5738C16.2888 11.5738 17.031 11.7847 17.8558 12.2062C18.6897 12.6186 19.3312 13.187 19.78 13.9103C20.2291 14.6253 20.5177 15.3127 20.6461 15.9724C20.7835 16.6324 20.8524 17.2187 20.8524 17.7318C20.8524 18.905 20.6048 19.9953 20.1102 21.0037C19.6152 22.0115 18.8639 22.7628 17.8558 23.2578C16.8477 23.7527 15.7571 24 14.5842 24Z" fill="#18181B"/>
</g>
<defs>
<clipPath id="clip0_61:23">
<rect width="24" height="24" fill="white"/>
</clipPath>
</defs>
</svg>
