<svg width="20" height="20" viewBox="0 0 20 20" fill="none" xmlns="http://www.w3.org/2000/svg">
<g clip-path="url(#clip0_3674_35)">
<path d="M9.99998 18.6668C14.7864 18.6668 18.6666 14.7865 18.6666 10C18.6666 5.21354 14.7864 1.33334 9.99998 1.33334C5.21351 1.33334 1.33331 5.21354 1.33331 10C1.33331 14.7865 5.21351 18.6668 9.99998 18.6668Z" stroke="black" stroke-width="1.05875"/>
<path d="M15.1692 10.5823C15.388 10.4885 15.388 10.1782 15.1692 10.0844L13.7009 9.45512C12.5823 8.97572 11.6909 8.08438 11.2115 6.96575L10.5822 5.49748C10.4884 5.27862 10.1782 5.27862 10.0844 5.49748L9.45511 6.96575C8.9757 8.08438 8.08435 8.97572 6.96573 9.45512L5.49746 10.0844C5.2786 10.1782 5.2786 10.4885 5.49746 10.5823L6.96573 11.2115C8.08435 11.6909 8.9757 12.5823 9.45511 13.7009L10.0844 15.1692C10.1782 15.3879 10.4884 15.3879 10.5822 15.1692L11.2115 13.7009C11.6909 12.5823 12.5823 11.6909 13.7009 11.2115L15.1692 10.5823Z" fill="black"/>
</g>
<defs>
<clipPath id="clip0_3674_35">
<rect width="20" height="20" fill="white"/>
</clipPath>
</defs>
</svg>
