<svg width="20" height="20" viewBox="0 0 20 20" fill="none" xmlns="http://www.w3.org/2000/svg">
<path d="M0 10C0 4.47715 4.47715 0 10 0C15.5228 0 20 4.47715 20 10C20 15.5228 15.5228 20 10 20C4.47715 20 0 15.5228 0 10Z" fill="#8B5CF6"/>
<path fill-rule="evenodd" clip-rule="evenodd" d="M9.29289 12.7929C8.90237 13.1834 8.90237 13.8166 9.29289 14.2071C9.68342 14.5976 10.3166 14.5976 10.7071 14.2071L14.2071 10.7071C14.3946 10.5196 14.5 10.2652 14.5 10C14.5 9.73478 14.3946 9.48043 14.2071 9.29289L10.7071 5.79289C10.3166 5.40237 9.68342 5.40237 9.29289 5.79289C8.90237 6.18342 8.90237 6.81658 9.29289 7.20711L11.0858 9L6.5 9C5.94772 9 5.5 9.44771 5.5 10C5.5 10.5523 5.94772 11 6.5 11L11.0858 11L9.29289 12.7929Z" fill="white"/>
</svg>
