<svg width="24" height="24" viewBox="0 0 24 24" fill="none" >
<path fill-rule="evenodd" clip-rule="evenodd" d="M12 1C5.92487 1 1 5.92487 1 12C1 18.0751 5.92487 23 12 23C18.0751 23 23 18.0751 23 12C23 5.92487 18.0751 1 12 1ZM3 12C3 7.02944 7.02944 3 12 3C16.9706 3 21 7.02944 21 12C21 16.9706 16.9706 21 12 21C9.87499 21 7.92199 20.2635 6.38231 19.0319L14 11.4142V16C14 16.5523 14.4477 17 15 17C15.5523 17 16 16.5523 16 16V9C16 8.44772 15.5523 8 15 8H8C7.44771 8 7 8.44772 7 9C7 9.55229 7.44771 10 8 10H12.5858L4.9681 17.6177C3.73647 16.078 3 14.125 3 12Z" fill="#18181B"/>
</svg>
