<svg width="24" height="24" viewBox="0 0 24 24" fill="none" xmlns="http://www.w3.org/2000/svg">
  <path
    d="M22.1493 5.4569C21.4025 5.78844 20.5998 6.01172 19.7575 6.11237C20.6176 5.59729 21.2782 4.78112 21.5886 3.80848C20.7842 4.2855 19.8928 4.63227 18.9438 4.81918C18.1852 4.00978 17.1017 3.504 15.9041 3.504C13.2154 3.504 11.2396 6.01257 11.8469 8.61671C8.38685 8.44333 5.31838 6.78561 3.26399 4.26604C2.17294 6.13775 2.69817 8.58626 4.55211 9.82617C3.87041 9.80418 3.22762 9.61726 2.66687 9.30517C2.6212 11.2344 4.00404 13.0393 6.00684 13.441C5.42072 13.6 4.77877 13.6372 4.12584 13.5121C4.65529 15.1664 6.19291 16.3699 8.0164 16.4038C6.26565 17.7765 4.05986 18.3896 1.8507 18.1291C3.69364 19.3107 5.88336 20 8.23461 20C15.9667 20 20.3351 13.4698 20.0712 7.61278C20.8849 7.02496 21.5911 6.29168 22.1493 5.4569Z"
    fill="black" />
</svg>