<svg width="24" height="24" viewBox="0 0 24 24" fill="none" xmlns="http://www.w3.org/2000/svg">
  <path
    d="M2.97792 17.4941C2.8816 17.4939 2.78544 17.4919 2.68946 17.4881C2.22432 17.4699 1.89595 17.7856 1.78861 18.1195C1.67841 18.4623 1.77039 18.9375 2.2058 19.1791C4.04008 20.1969 6.11031 20.738 8.2212 20.7467C8.24438 20.7489 8.26778 20.75 8.29137 20.75C16.3278 20.7491 20.7147 14.1772 20.7147 8.50553V8.49784C20.7147 8.45053 20.7147 8.40105 20.7144 8.35002C21.3028 7.88975 21.8317 7.3592 22.2884 6.76969C22.5728 6.40262 22.5058 5.9507 22.2836 5.66874C22.1665 5.52017 21.9962 5.40389 21.7999 5.35203C21.8698 5.22566 21.9342 5.09593 21.9927 4.96317C22.1661 4.56936 22.0285 4.16215 21.7586 3.93102C21.4979 3.70776 21.1045 3.63577 20.755 3.81807C20.2215 4.09631 19.6561 4.31016 19.0708 4.45471C17.2135 2.82755 14.3725 2.83926 12.5269 4.5473C11.5159 5.48276 10.9694 6.78832 10.9936 8.12822C8.31225 7.77752 5.85149 6.4562 4.09987 4.41266C3.71407 3.96257 2.93636 3.97747 2.62368 4.57751C1.89267 5.98034 1.92764 7.59644 2.60783 8.92881C2.29741 9.02202 2.05033 9.30419 2.05033 9.67665C2.05033 11.1272 2.70845 12.445 3.76494 13.3297C3.57336 13.5553 3.49043 13.8744 3.62899 14.2223C4.09528 15.3932 4.99755 16.3116 6.11304 16.8204C5.13618 17.2621 4.06737 17.495 2.97792 17.4941ZM9.03966 19.9984C9.03966 19.992 9.03958 19.9857 9.03943 19.9794C9.03958 19.9857 9.03966 19.992 9.03966 19.9984Z"
    stroke="white" stroke-width="2" />
</svg>