<svg width="19" height="18" viewBox="0 0 19 18" fill="none" xmlns="http://www.w3.org/2000/svg">
<path fill-rule="evenodd" clip-rule="evenodd" d="M12 1.99999C12 1.61559 11.7797 1.26521 11.4332 1.09869C11.0867 0.932171 10.6755 0.978989 10.3753 1.21913L5.64922 4.99999H2C1.44772 4.99999 1 5.44771 1 5.99999V12C1 12.5523 1.44772 13 2 13H5.64922L10.3753 16.7809C10.6755 17.021 11.0867 17.0678 11.4332 16.9013C11.7797 16.7348 12 16.3844 12 16V1.99999ZM6.62469 6.78086L10 4.08062V13.9194L6.62469 11.2191C6.44738 11.0773 6.22707 11 6 11H3V6.99999H6C6.22707 6.99999 6.44738 6.92271 6.62469 6.78086Z" fill="white"/>
<path d="M16.2472 4.753C15.8567 4.36242 15.2236 4.36232 14.833 4.75279C14.4424 5.14325 14.4423 5.77642 14.8328 6.167C15.5827 6.91711 16.0039 7.93434 16.0039 8.995C16.0039 10.0557 15.5827 11.0729 14.8328 11.823C14.4423 12.2136 14.4424 12.8467 14.833 13.2372C15.2236 13.6277 15.8567 13.6276 16.2472 13.237C17.372 12.1118 18.0039 10.586 18.0039 8.995C18.0039 7.40402 17.372 5.87817 16.2472 4.753Z" fill="white"/>
<path fill-rule="evenodd" clip-rule="evenodd" d="M12 1.99999C12 1.61559 11.7797 1.26521 11.4332 1.09869C11.0867 0.932171 10.6755 0.978989 10.3753 1.21913L5.64922 4.99999H2C1.44772 4.99999 1 5.44771 1 5.99999V12C1 12.5523 1.44772 13 2 13H5.64922L10.3753 16.7809C10.6755 17.021 11.0867 17.0678 11.4332 16.9013C11.7797 16.7348 12 16.3844 12 16V1.99999ZM6.62469 6.78086L10 4.08062V13.9194L6.62469 11.2191C6.44738 11.0773 6.22707 11 6 11H3V6.99999H6C6.22707 6.99999 6.44738 6.92271 6.62469 6.78086Z" stroke="black" stroke-linecap="round" stroke-linejoin="round"/>
<path fill-rule="evenodd" clip-rule="evenodd" d="M12 1.99999C12 1.61559 11.7797 1.26521 11.4332 1.09869C11.0867 0.932171 10.6755 0.978989 10.3753 1.21913L5.64922 4.99999H2C1.44772 4.99999 1 5.44771 1 5.99999V12C1 12.5523 1.44772 13 2 13H5.64922L10.3753 16.7809C10.6755 17.021 11.0867 17.0678 11.4332 16.9013C11.7797 16.7348 12 16.3844 12 16V1.99999ZM6.62469 6.78086L10 4.08062V13.9194L6.62469 11.2191C6.44738 11.0773 6.22707 11 6 11H3V6.99999H6C6.22707 6.99999 6.44738 6.92271 6.62469 6.78086Z" stroke="black" stroke-opacity="0.2" stroke-linecap="round" stroke-linejoin="round"/>
<path d="M16.2472 4.753C15.8567 4.36242 15.2236 4.36232 14.833 4.75279C14.4424 5.14325 14.4423 5.77642 14.8328 6.167C15.5827 6.91711 16.0039 7.93434 16.0039 8.995C16.0039 10.0557 15.5827 11.0729 14.8328 11.823C14.4423 12.2136 14.4424 12.8467 14.833 13.2372C15.2236 13.6277 15.8567 13.6276 16.2472 13.237C17.372 12.1118 18.0039 10.586 18.0039 8.995C18.0039 7.40402 17.372 5.87817 16.2472 4.753Z" stroke="black" stroke-linecap="round" stroke-linejoin="round"/>
<path d="M16.2472 4.753C15.8567 4.36242 15.2236 4.36232 14.833 4.75279C14.4424 5.14325 14.4423 5.77642 14.8328 6.167C15.5827 6.91711 16.0039 7.93434 16.0039 8.995C16.0039 10.0557 15.5827 11.0729 14.8328 11.823C14.4423 12.2136 14.4424 12.8467 14.833 13.2372C15.2236 13.6277 15.8567 13.6276 16.2472 13.237C17.372 12.1118 18.0039 10.586 18.0039 8.995C18.0039 7.40402 17.372 5.87817 16.2472 4.753Z" stroke="black" stroke-opacity="0.2" stroke-linecap="round" stroke-linejoin="round"/>
</svg>
