<svg width="24" height="24" viewBox="0 0 24 24" fill="none" >
<path fill-rule="evenodd" clip-rule="evenodd" d="M4.18 3C3.5283 3 3 3.5283 3 4.18V6H6V3H4.18ZM4.18 1C2.42373 1 1 2.42373 1 4.18V19.82C1 21.5763 2.42373 23 4.18 23H19.82C21.5763 23 23 21.5763 23 19.82V4.18C23 2.42373 21.5763 1 19.82 1H4.18ZM8 3V11H16V3H8ZM18 3V6H21V4.18C21 3.5283 20.4717 3 19.82 3H18ZM21 8H18V11H21V8ZM21 13H18V16H21V13ZM21 18H18V21H19.82C20.4717 21 21 20.4717 21 19.82V18ZM16 21V13H8V21H16ZM6 21V18H3V19.82C3 20.4717 3.5283 21 4.18 21H6ZM3 16H6V13H3V16ZM3 11H6V8H3V11Z" fill="#18181B"/>
</svg>
