<svg width="24" height="24" viewBox="0 0 24 24" fill="none" >
<path fill-rule="evenodd" clip-rule="evenodd" d="M1 6C1 4.34315 2.34315 3 4 3H17C18.6569 3 20 4.34315 20 6V7C21.6569 7 23 8.34315 23 10V14C23 15.6569 21.6569 17 20 17V18C20 19.6569 18.6569 21 17 21H4C2.34315 21 1 19.6569 1 18V6ZM18 6V7H16C14.3431 7 13 8.34315 13 10V14C13 15.6569 14.3431 17 16 17H18V18C18 18.5523 17.5523 19 17 19H4C3.44772 19 3 18.5523 3 18V6C3 5.44772 3.44772 5 4 5H17C17.5523 5 18 5.44772 18 6ZM16 9C15.4477 9 15 9.44772 15 10V14C15 14.5523 15.4477 15 16 15H20C20.5523 15 21 14.5523 21 14V10C21 9.44772 20.5523 9 20 9H16ZM17 11C16.4477 11 16 11.4477 16 12C16 12.5523 16.4477 13 17 13H18C18.5523 13 19 12.5523 19 12C19 11.4477 18.5523 11 18 11H17Z" fill="#18181B"/>
</svg>
